<svg width="25" height="29" viewBox="0 0 25 29" fill="none" xmlns="http://www.w3.org/2000/svg">
<path d="M20.8526 15.0484C20.8116 11.5197 23.9276 9.80029 24.0779 9.7233C22.3149 7.31099 19.5816 6.97737 18.6249 6.95171C16.3289 6.72074 14.1012 8.23485 12.9396 8.23485C11.7506 8.23485 9.94656 6.96454 8.00589 7.00303C5.50488 7.04153 3.16787 8.40166 1.89687 10.506C-0.740804 14.8046 1.2272 21.1176 3.75554 24.595C5.02655 26.3015 6.50255 28.2006 8.44322 28.1236C10.3429 28.0466 11.0536 26.9944 13.3359 26.9944C15.6046 26.9944 16.2606 28.1236 18.2423 28.0851C20.2786 28.0595 21.5633 26.3785 22.7796 24.6591C24.2419 22.7087 24.8296 20.784 24.8569 20.6942C24.7886 20.6814 20.8936 19.2827 20.8526 15.0484Z" fill="white"/>
<path d="M17.1219 4.66766C18.1469 3.47433 18.8439 1.84472 18.6389 0.189453C17.1629 0.253611 15.3179 1.15182 14.2519 2.31949C13.3089 3.34601 12.4752 5.03978 12.6939 6.63089C14.3476 6.74637 16.0559 5.84817 17.1219 4.66766Z" fill="white"/>
</svg>
