<svg width="141" height="64" viewBox="0 0 141 64" fill="none" xmlns="http://www.w3.org/2000/svg">
<path d="M6.88058 2.28418H6.48315V57.656H6.88058V2.28418Z" fill="white"/>
<path d="M140.699 57.4612H6.56421V57.8586H140.699V57.4612Z" fill="white"/>
<path d="M140.699 46.3821H6.56421V46.7795H140.699V46.3821Z" fill="white"/>
<path d="M140.699 35.311H6.56421V35.7085H140.699V35.311Z" fill="white"/>
<path d="M140.699 24.2397H6.56421V24.6372H140.699V24.2397Z" fill="white"/>
<path d="M140.699 13.1606H6.56421V13.5581H140.699V13.1606Z" fill="white"/>
<path d="M140.699 2.08936H6.56445V2.48677H140.699V2.08936Z" fill="white"/>
<path d="M23.6374 2.28418H23.24V57.656H23.6374V2.28418Z" fill="white"/>
<path d="M40.394 2.28418H39.9966V57.656H40.394V2.28418Z" fill="white"/>
<path d="M57.1508 2.28418H56.7534V57.656H57.1508V2.28418Z" fill="white"/>
<path d="M73.9074 2.28418H73.51V57.656H73.9074V2.28418Z" fill="white"/>
<path d="M90.6643 2.28418H90.2668V57.656H90.6643V2.28418Z" fill="white"/>
<path d="M107.421 2.28418H107.023V57.656H107.421V2.28418Z" fill="white"/>
<path d="M124.178 2.28418H123.78V57.656H124.178V2.28418Z" fill="white"/>
<path d="M140.934 2.28418H140.537V57.656H140.934V2.28418Z" fill="white"/>
<path d="M7.13202 35.0188L24.0023 23.0312L40.0858 34.816H57.3535L74.2319 11.8546L90.3073 23.0312L107.583 11.6519H140.732V57.6477H6.70215L7.13202 35.0188Z" fill="url(#paint0_linear_479_2828)"/>
<path d="M140.732 57.6475V22.9661H124.851L107.916 34.613L90.7048 11.5786L74.0292 23.7771H57.3535L40.1507 46.8115L24.0023 34.613L6.78326 46.5358L6.70215 57.6475H140.732Z" fill="url(#paint1_linear_479_2828)"/>
<path d="M11.3404 60.5307H11.6511V62.1904C11.6511 62.4146 11.5835 62.5901 11.4483 62.7168C11.3142 62.8434 11.1349 62.9067 10.9106 62.9067C10.6778 62.9067 10.4964 62.8471 10.3665 62.728C10.2367 62.6089 10.1717 62.442 10.1717 62.2274H10.4808C10.4808 62.3615 10.5173 62.4662 10.5903 62.5413C10.6643 62.6164 10.7711 62.654 10.9106 62.654C11.0383 62.654 11.1414 62.6137 11.2197 62.5332C11.2991 62.4527 11.3394 62.3401 11.3404 62.1952V60.5307ZM13.4364 62.2628H12.4544L12.2339 62.8745H11.9151L12.8102 60.5307H13.0806L13.9773 62.8745H13.6602L13.4364 62.2628ZM12.5478 62.0084H13.3446L12.9454 60.9122L12.5478 62.0084ZM16.0941 62.8745H15.7835L14.6035 61.0683V62.8745H14.2928V60.5307H14.6035L15.7867 62.3449V60.5307H16.0941V62.8745Z" fill="#F5F7F6"/>
<path d="M28.7537 61.8394H27.7701V62.8745H27.461V60.5307H28.913V60.785H27.7701V61.5867H28.7537V61.8394ZM30.6081 61.7911H29.5924V62.6218H30.7723V62.8745H29.2833V60.5307H30.7562V60.785H29.5924V61.5384H30.6081V61.7911ZM31.1571 62.8745V60.5307H31.9233C32.1777 60.5307 32.3687 60.5833 32.4964 60.6884C32.6252 60.7936 32.6896 60.9492 32.6896 61.1553C32.6896 61.2647 32.6585 61.3618 32.5962 61.4466C32.534 61.5303 32.4492 61.5953 32.3419 61.6414C32.4685 61.6768 32.5683 61.7444 32.6413 61.8442C32.7154 61.943 32.7524 62.061 32.7524 62.1984C32.7524 62.4087 32.6842 62.574 32.5479 62.6942C32.4116 62.8144 32.219 62.8745 31.97 62.8745H31.1571ZM31.4662 61.7782V62.6218H31.9765C32.1203 62.6218 32.2335 62.5848 32.3161 62.5107C32.3998 62.4356 32.4417 62.3326 32.4417 62.2016C32.4417 61.9194 32.2882 61.7782 31.9813 61.7782H31.4662ZM31.4662 61.5303H31.933C32.0682 61.5303 32.1761 61.4965 32.2566 61.4289C32.3381 61.3613 32.3789 61.2696 32.3789 61.1537C32.3789 61.0249 32.3414 60.9315 32.2662 60.8735C32.1911 60.8145 32.0768 60.785 31.9233 60.785H31.4662V61.5303Z" fill="#F5F7F6"/>
<path d="M45.7865 60.5307L46.5528 62.4431L47.319 60.5307H47.7199V62.8745H47.4108V61.9618L47.4398 60.9766L46.6703 62.8745H46.4336L45.6658 60.9814L45.6964 61.9618V62.8745H45.3873V60.5307H45.7865ZM49.5888 62.2628H48.6069L48.3863 62.8745H48.0676L48.9626 60.5307H49.2331L50.1297 62.8745H49.8126L49.5888 62.2628ZM48.7002 62.0084H49.4971L49.0978 60.9122L48.7002 62.0084ZM51.3049 61.9263H50.7543V62.8745H50.4436V60.5307H51.2195C51.4835 60.5307 51.6864 60.5908 51.828 60.711C51.9708 60.8312 52.0421 61.0061 52.0421 61.2357C52.0421 61.3817 52.0024 61.5089 51.923 61.6173C51.8447 61.7257 51.7352 61.8067 51.5946 61.8603L52.1452 62.8552V62.8745H51.8136L51.3049 61.9263ZM50.7543 61.6736H51.2292C51.3827 61.6736 51.5045 61.6339 51.5946 61.5545C51.6858 61.4751 51.7315 61.3688 51.7315 61.2357C51.7315 61.0909 51.688 60.9798 51.6011 60.9025C51.5152 60.8253 51.3907 60.7861 51.2276 60.785H50.7543V61.6736Z" fill="#F5F7F6"/>
<path d="M63.7843 62.2628H62.8024L62.5818 62.8745H62.2631L63.1581 60.5307H63.4286L64.3252 62.8745H64.0081L63.7843 62.2628ZM62.8957 62.0084H63.6926L63.2934 60.9122L62.8957 62.0084ZM64.9498 61.9569V62.8745H64.6407V60.5307H65.5052C65.7617 60.5307 65.9624 60.5961 66.1073 60.7271C66.2532 60.858 66.3262 61.0313 66.3262 61.247C66.3262 61.4745 66.2548 61.65 66.1121 61.7734C65.9704 61.8958 65.7671 61.9569 65.502 61.9569H64.9498ZM64.9498 61.7042H65.5052C65.6705 61.7042 65.7971 61.6656 65.8851 61.5883C65.9731 61.51 66.0171 61.3973 66.0171 61.2502C66.0171 61.1107 65.9731 60.9991 65.8851 60.9154C65.7971 60.8317 65.6764 60.7882 65.5229 60.785H64.9498V61.7042ZM67.5802 61.9263H67.0297V62.8745H66.719V60.5307H67.4949C67.7589 60.5307 67.9617 60.5908 68.1034 60.711C68.2461 60.8312 68.3175 61.0061 68.3175 61.2357C68.3175 61.3817 68.2778 61.5089 68.1984 61.6173C68.12 61.7257 68.0106 61.8067 67.87 61.8603L68.4205 62.8552V62.8745H68.0889L67.5802 61.9263ZM67.0297 61.6736H67.5046C67.658 61.6736 67.7798 61.6339 67.87 61.5545C67.9612 61.4751 68.0068 61.3688 68.0068 61.2357C68.0068 61.0909 67.9633 60.9798 67.8764 60.9025C67.7906 60.8253 67.6661 60.7861 67.5029 60.785H67.0297V61.6736Z" fill="#F5F7F6"/>
<path d="M81.64 60.5307L82.4063 62.4431L83.1725 60.5307H83.5734V62.8745H83.2643V61.9618L83.2933 60.9766L82.5238 62.8745H82.2872L81.5193 60.9814L81.5499 61.9618V62.8745H81.2408V60.5307H81.64ZM85.4423 62.2628H84.4604L84.2398 62.8745H83.9211L84.8161 60.5307H85.0866L85.9832 62.8745H85.6661L85.4423 62.2628ZM84.5537 62.0084H85.3506L84.9514 60.9122L84.5537 62.0084ZM86.8622 61.7074L87.4739 60.5307H87.8248L87.0167 62.0004V62.8745H86.7076V62.0004L85.8995 60.5307H86.2537L86.8622 61.7074Z" fill="#F5F7F6"/>
<path d="M99.3253 60.5307H99.636V62.1904C99.636 62.4146 99.5684 62.5901 99.4332 62.7168C99.299 62.8434 99.1198 62.9067 98.8955 62.9067C98.6626 62.9067 98.4812 62.8471 98.3514 62.728C98.2215 62.6089 98.1566 62.442 98.1566 62.2274H98.4657C98.4657 62.3615 98.5022 62.4662 98.5752 62.5413C98.6492 62.6164 98.756 62.654 98.8955 62.654C99.0232 62.654 99.1262 62.6137 99.2046 62.5332C99.284 62.4527 99.3242 62.3401 99.3253 62.1952V60.5307ZM101.812 60.5307V62.1244C101.811 62.3454 101.742 62.5263 101.603 62.6668C101.466 62.8074 101.279 62.8863 101.043 62.9035L100.961 62.9067C100.704 62.9067 100.5 62.8375 100.348 62.699C100.195 62.5606 100.118 62.3701 100.116 62.1276V60.5307H100.422V62.1179C100.422 62.2875 100.468 62.4195 100.562 62.5139C100.655 62.6073 100.788 62.654 100.961 62.654C101.136 62.654 101.269 62.6073 101.362 62.5139C101.455 62.4206 101.502 62.2891 101.502 62.1195V60.5307H101.812ZM104.102 62.8745H103.791L102.611 61.0683V62.8745H102.3V60.5307H102.611L103.794 62.3449V60.5307H104.102V62.8745Z" fill="#F5F7F6"/>
<path d="M117.252 60.5307H117.563V62.1904C117.563 62.4146 117.495 62.5901 117.36 62.7168C117.226 62.8434 117.047 62.9067 116.822 62.9067C116.589 62.9067 116.408 62.8471 116.278 62.728C116.148 62.6089 116.083 62.442 116.083 62.2274H116.392C116.392 62.3615 116.429 62.4662 116.502 62.5413C116.576 62.6164 116.683 62.654 116.822 62.654C116.95 62.654 117.053 62.6137 117.131 62.5332C117.211 62.4527 117.251 62.3401 117.252 62.1952V60.5307ZM119.739 60.5307V62.1244C119.738 62.3454 119.668 62.5263 119.53 62.6668C119.393 62.8074 119.206 62.8863 118.97 62.9035L118.888 62.9067C118.631 62.9067 118.427 62.8375 118.274 62.699C118.122 62.5606 118.045 62.3701 118.042 62.1276V60.5307H118.348V62.1179C118.348 62.2875 118.395 62.4195 118.488 62.5139C118.582 62.6073 118.715 62.654 118.888 62.654C119.063 62.654 119.196 62.6073 119.288 62.5139C119.382 62.4206 119.429 62.2891 119.429 62.1195V60.5307H119.739ZM120.538 62.6218H121.648V62.8745H120.227V60.5307H120.538V62.6218Z" fill="#F5F7F6"/>
<path d="M134.667 62.2628H133.685L133.464 62.8745H133.146L134.041 60.5307H134.311L135.208 62.8745H134.891L134.667 62.2628ZM133.778 62.0084H134.575L134.176 60.9122L133.778 62.0084ZM137.144 60.5307V62.1244C137.143 62.3454 137.074 62.5263 136.935 62.6668C136.798 62.8074 136.611 62.8863 136.375 62.9035L136.293 62.9067C136.036 62.9067 135.832 62.8375 135.679 62.699C135.527 62.5606 135.45 62.3701 135.448 62.1276V60.5307H135.754V62.1179C135.754 62.2875 135.8 62.4195 135.894 62.5139C135.987 62.6073 136.12 62.654 136.293 62.654C136.468 62.654 136.601 62.6073 136.694 62.5139C136.787 62.4206 136.834 62.2891 136.834 62.1195V60.5307H137.144ZM139.363 62.567C139.283 62.6808 139.172 62.7661 139.029 62.823C138.888 62.8788 138.722 62.9067 138.534 62.9067C138.343 62.9067 138.173 62.8622 138.025 62.7731C137.877 62.6829 137.762 62.5552 137.68 62.39C137.6 62.2247 137.559 62.0331 137.556 61.8153V61.6108C137.556 61.2578 137.639 60.9841 137.803 60.7898C137.968 60.5956 138.2 60.4985 138.498 60.4985C138.743 60.4985 138.94 60.5612 139.089 60.6868C139.238 60.8113 139.329 60.9884 139.363 61.218H139.054C138.996 60.9079 138.811 60.7528 138.5 60.7528C138.293 60.7528 138.135 60.8258 138.028 60.9717C137.922 61.1166 137.868 61.327 137.867 61.6028V61.7943C137.867 62.0573 137.927 62.2665 138.047 62.4222C138.168 62.5767 138.33 62.654 138.535 62.654C138.651 62.654 138.753 62.6411 138.839 62.6153C138.926 62.5896 138.998 62.5461 139.055 62.4849V61.9585H138.513V61.7074H139.363V62.567Z" fill="#F5F7F6"/>
<path d="M2.61886 56.995C2.61886 57.3437 2.5593 57.6029 2.44018 57.7725C2.32105 57.942 2.13486 58.0268 1.88158 58.0268C1.63153 58.0268 1.4464 57.9442 1.32621 57.7789C1.20601 57.6126 1.14376 57.3647 1.13947 57.0352V56.6376C1.13947 56.2931 1.19903 56.0371 1.31816 55.8697C1.43728 55.7023 1.62402 55.6186 1.87836 55.6186C2.13056 55.6186 2.31622 55.6996 2.43535 55.8617C2.55447 56.0226 2.61564 56.2716 2.61886 56.6086V56.995ZM2.32105 56.5877C2.32105 56.3355 2.28564 56.152 2.21481 56.0371C2.14398 55.9212 2.03183 55.8633 1.87836 55.8633C1.72597 55.8633 1.61489 55.9207 1.54514 56.0355C1.47538 56.1504 1.43943 56.3269 1.43728 56.5651V57.0416C1.43728 57.2949 1.47377 57.4822 1.54675 57.6035C1.6208 57.7236 1.73241 57.7837 1.88158 57.7837C2.02861 57.7837 2.13754 57.7269 2.20837 57.6131C2.28027 57.4994 2.31783 57.3201 2.32105 57.0754V56.5877Z" fill="#F5F7F6"/>
<path d="M2.12788 47.8333H1.82846V45.8484L1.22801 46.0689V45.7985L2.0812 45.4781H2.12788V47.8333ZM4.47012 46.8336C4.47012 47.1824 4.41056 47.4415 4.29143 47.6111C4.17231 47.7807 3.98611 47.8654 3.73284 47.8654C3.48278 47.8654 3.29766 47.7828 3.17746 47.6175C3.05726 47.4512 2.99502 47.2033 2.99072 46.8738V46.4762C2.99072 46.1317 3.05029 45.8758 3.16941 45.7083C3.28854 45.5409 3.47527 45.4572 3.72962 45.4572C3.98182 45.4572 4.16748 45.5382 4.2866 45.7003C4.40573 45.8613 4.4669 46.1102 4.47012 46.4472V46.8336ZM4.17231 46.4263C4.17231 46.1741 4.13689 45.9906 4.06606 45.8758C3.99523 45.7598 3.88308 45.7019 3.72962 45.7019C3.57722 45.7019 3.46615 45.7593 3.39639 45.8741C3.32663 45.989 3.29068 46.1655 3.28854 46.4038V46.8803C3.28854 47.1335 3.32502 47.3208 3.398 47.4421C3.47205 47.5623 3.58366 47.6224 3.73284 47.6224C3.87986 47.6224 3.98879 47.5655 4.05962 47.4517C4.13153 47.338 4.16909 47.1588 4.17231 46.9141V46.4263Z" fill="#F5F7F6"/>
<path d="M2.12788 36.3145H1.82846V34.3296L1.22801 34.5501V34.2797L2.0812 33.9593H2.12788V36.3145ZM3.97913 36.3145H3.67971V34.3296L3.07926 34.5501V34.2797L3.93245 33.9593H3.97913V36.3145Z" fill="#F5F7F6"/>
<path d="M2.12788 25.5566H1.82846V23.5718L1.22801 23.7923V23.5219L2.0812 23.2015H2.12788V25.5566ZM4.53612 25.5566H3.00038V25.3425L3.81172 24.4411C3.93191 24.3048 4.01455 24.1942 4.05962 24.1094C4.10577 24.0236 4.12884 23.935 4.12884 23.8438C4.12884 23.7215 4.09182 23.6211 4.01777 23.5428C3.94372 23.4645 3.84498 23.4253 3.72157 23.4253C3.57347 23.4253 3.4581 23.4677 3.37546 23.5525C3.2939 23.6362 3.25312 23.7531 3.25312 23.9034H2.95531C2.95531 23.6877 3.02453 23.5133 3.16297 23.3802C3.30249 23.2471 3.48869 23.1806 3.72157 23.1806C3.93943 23.1806 4.11167 23.238 4.23831 23.3528C4.36495 23.4666 4.42826 23.6185 4.42826 23.8084C4.42826 24.0391 4.28124 24.3139 3.98718 24.6326L3.35937 25.3136H4.53612V25.5566Z" fill="#F5F7F6"/>
<path d="M2.12788 15.0171H1.82846V13.0322L1.22801 13.2528V12.9823L2.0812 12.662H2.12788V15.0171ZM3.43342 13.7003H3.65718C3.79776 13.6981 3.9083 13.6611 3.98879 13.5892C4.06928 13.5173 4.10953 13.4202 4.10953 13.2978C4.10953 13.0231 3.97269 12.8857 3.69903 12.8857C3.57025 12.8857 3.46722 12.9228 3.38995 12.9968C3.31376 13.0698 3.27566 13.1669 3.27566 13.2882H2.97785C2.97785 13.1025 3.04546 12.9485 3.18068 12.8262C3.31697 12.7028 3.48976 12.641 3.69903 12.641C3.92011 12.641 4.09343 12.6995 4.21899 12.8165C4.34455 12.9335 4.40734 13.0961 4.40734 13.3043C4.40734 13.4062 4.37407 13.505 4.30753 13.6005C4.24206 13.696 4.15245 13.7674 4.0387 13.8146C4.16748 13.8554 4.26675 13.923 4.33651 14.0174C4.40734 14.1119 4.44275 14.2272 4.44275 14.3635C4.44275 14.5739 4.37407 14.7407 4.2367 14.8642C4.09933 14.9876 3.92064 15.0493 3.70064 15.0493C3.48064 15.0493 3.30141 14.9897 3.16297 14.8706C3.0256 14.7515 2.95692 14.5943 2.95692 14.3989H3.25634C3.25634 14.5223 3.29658 14.6211 3.37707 14.6951C3.45756 14.7692 3.56542 14.8062 3.70064 14.8062C3.84445 14.8062 3.95445 14.7686 4.03065 14.6935C4.10684 14.6184 4.14494 14.5105 4.14494 14.37C4.14494 14.2337 4.10309 14.129 4.01938 14.056C3.93567 13.9831 3.81493 13.9455 3.65718 13.9434H3.43342V13.7003Z" fill="#F5F7F6"/>
<path d="M2.12788 3.76367H1.82846V1.77881L1.22801 1.99935V1.7289L2.0812 1.40856H2.12788V3.76367ZM4.25763 2.97649H4.5828V3.21956H4.25763V3.76367H3.95821V3.21956H2.89092V3.0441L3.9405 1.41982H4.25763V2.97649ZM3.22897 2.97649H3.95821V1.8271L3.92279 1.89149L3.22897 2.97649Z" fill="#F5F7F6"/>
<defs>
<linearGradient id="paint0_linear_479_2828" x1="73.7178" y1="55.6022" x2="73.7178" y2="-6.43908" gradientUnits="userSpaceOnUse">
<stop stop-color="#27B7FF"/>
<stop offset="0.895833" stop-color="#F408AB"/>
</linearGradient>
<linearGradient id="paint1_linear_479_2828" x1="73.7178" y1="80.2062" x2="73.7178" y2="15.0944" gradientUnits="userSpaceOnUse">
<stop offset="0.000116" stop-color="#0055CB"/>
<stop offset="0.3594" stop-color="#0077CE"/>
<stop offset="0.6484" stop-color="#0066FF"/>
<stop offset="0.8709" stop-color="#0066FF"/>
<stop offset="1" stop-color="#0066FF"/>
</linearGradient>
</defs>
</svg>
