<svg width="148" height="69" viewBox="0 0 148 69" fill="none" xmlns="http://www.w3.org/2000/svg">
<path d="M147.107 25.9131V68.7214H0.554199V15.353C7.21309 15.353 7.21308 25.905 13.872 25.905C20.539 25.905 20.539 4.04663 27.1979 4.04663C33.8568 4.04663 33.8567 40.6097 40.5238 40.6097C47.1826 40.6097 47.1826 15.353 53.8415 15.353C60.5004 15.353 60.5005 32.3124 67.1593 32.3124C73.8263 32.3124 73.8263 25.1507 80.4852 25.1507C87.1441 25.1507 87.1441 35.3296 93.8111 35.3296C100.47 35.3296 100.47 24.9641 107.137 24.9641C113.796 24.9641 113.796 48.8989 120.455 48.8989C127.122 48.8989 127.122 5.36056 133.781 5.36056C140.44 5.36867 140.44 25.9131 147.107 25.9131Z" fill="url(#paint0_linear_479_2812)"/>
<path d="M120.455 49.28C116.837 49.28 115.183 43.3349 113.431 37.0409C111.833 31.2905 110.178 25.3534 107.137 25.3534C104.006 25.3534 102.449 27.7866 100.786 30.3658C99.0911 33.0018 97.3473 35.7189 93.8111 35.7189C90.2748 35.7189 88.5229 33.0424 86.8358 30.455C85.1812 27.9245 83.6159 25.54 80.4933 25.54C77.3301 25.54 75.7648 27.2189 74.1102 29.0032C72.415 30.82 70.6631 32.7017 67.1674 32.7017C63.5824 32.7017 61.8387 28.2651 60.1597 23.9827C58.57 19.9273 56.9235 15.7422 53.8496 15.7422C50.8081 15.7422 49.1535 22.0199 47.5557 28.0867C45.8038 34.7213 44.1492 40.9909 40.5318 40.9909C36.882 40.9909 35.2355 31.9555 33.4998 22.393C31.9669 13.9741 30.2231 4.42776 27.214 4.42776C24.1644 4.42776 22.5098 9.84572 20.912 15.0934C19.1601 20.852 17.4974 26.2942 13.8881 26.2942C10.3519 26.2942 8.59994 23.5204 6.91291 20.8438C5.25832 18.2241 3.69295 15.7422 0.570327 15.7422C0.359448 15.7422 0.197266 15.5719 0.197266 15.3691C0.197266 15.1582 0.367559 14.996 0.570327 14.996C4.1066 14.996 5.85854 17.7699 7.54557 20.4464C9.20015 23.0662 10.7655 25.5481 13.8881 25.5481C16.9378 25.5481 18.5923 20.122 20.1901 14.8825C21.9421 9.12388 23.6048 3.6897 27.214 3.6897C30.8557 3.6897 32.5022 12.7169 34.246 22.2794C35.7789 30.7065 37.5227 40.2528 40.5399 40.2528C43.5814 40.2528 45.236 33.9751 46.8339 27.9083C48.5858 21.2737 50.2403 15.0041 53.8577 15.0041C57.4426 15.0041 59.1865 19.4407 60.8654 23.7231C62.4551 27.7785 64.1015 31.9636 67.1755 31.9636C70.3468 31.9636 71.904 30.2847 73.5667 28.5004C75.2619 26.6836 77.0057 24.8019 80.5014 24.8019C84.0376 24.8019 85.7815 27.4784 87.4766 30.0576C89.1312 32.5882 90.6966 34.9727 93.8273 34.9727C96.9499 34.9727 98.5153 32.5395 100.17 29.9684C101.865 27.3324 103.617 24.6153 107.153 24.6153C110.771 24.6153 112.425 30.5605 114.177 36.8544C115.775 42.6049 117.429 48.55 120.471 48.55C123.48 48.55 125.224 37.1545 126.765 27.1053C128.809 13.7632 130.398 5.01985 133.805 5.01985C137.406 5.01985 139.142 10.3729 140.821 15.5476C142.419 20.4708 144.065 25.5562 147.123 25.5562C147.334 25.5562 147.496 25.7265 147.496 25.9293C147.496 26.1401 147.326 26.3023 147.123 26.3023C143.513 26.3023 141.778 20.9493 140.099 15.7665C138.501 10.8433 136.855 5.75793 133.797 5.75793C130.788 5.75793 129.044 17.1535 127.503 27.2026C125.451 40.5366 123.853 49.28 120.455 49.28Z" fill="white"/>
<path d="M30.1096 3.95737C30.1096 5.62007 28.7632 6.97456 27.0924 6.97456C25.4297 6.97456 24.0752 5.62818 24.0752 3.95737C24.0752 2.29468 25.4215 0.940186 27.0924 0.940186C28.7551 0.940186 30.1096 2.29468 30.1096 3.95737Z" fill="#018DCE"/>
<path d="M16.1591 25.5399C16.1591 27.2026 14.8127 28.5571 13.1419 28.5571C11.4792 28.5571 10.1248 27.2107 10.1248 25.5399C10.1248 23.8772 11.4711 22.5227 13.1419 22.5227C14.8127 22.5227 16.1591 23.8691 16.1591 25.5399Z" fill="#018DCE"/>
<path d="M43.2814 40.4149C43.2814 42.0776 41.935 43.4321 40.2642 43.4321C38.6015 43.4321 37.2471 42.0857 37.2471 40.4149C37.2471 38.7522 38.5934 37.3977 40.2642 37.3977C41.935 37.4058 43.2814 38.7522 43.2814 40.4149Z" fill="#018DCE"/>
<path d="M56.6315 15.5719C56.6315 17.2346 55.2852 18.5891 53.6144 18.5891C51.9517 18.5891 50.5972 17.2427 50.5972 15.5719C50.5972 13.9092 51.9436 12.5547 53.6144 12.5547C55.2771 12.5628 56.6315 13.9092 56.6315 15.5719Z" fill="#018DCE"/>
<path d="M70.4929 32.0204C70.4929 33.6831 69.1465 35.0376 67.4757 35.0376C65.813 35.0376 64.4585 33.6912 64.4585 32.0204C64.4585 30.3577 65.8049 29.0032 67.4757 29.0032C69.1384 29.0032 70.4929 30.3496 70.4929 32.0204Z" fill="#018DCE"/>
<path d="M83.5104 25.6617C83.5104 27.3244 82.1641 28.6789 80.4933 28.6789C78.8306 28.6789 77.4761 27.3325 77.4761 25.6617C77.4761 23.999 78.8225 22.6445 80.4933 22.6445C82.1641 22.6445 83.5104 23.999 83.5104 25.6617Z" fill="#018DCE"/>
<path d="M96.3334 35.0052C96.3334 36.6679 94.9871 38.0224 93.3163 38.0224C91.6536 38.0224 90.2991 36.676 90.2991 35.0052C90.2991 33.3425 91.6455 31.988 93.3163 31.988C94.9871 31.988 96.3334 33.3425 96.3334 35.0052Z" fill="#018DCE"/>
<path d="M110.397 24.8587C110.397 26.5214 109.051 27.8759 107.38 27.8759C105.718 27.8759 104.363 26.5295 104.363 24.8587C104.363 23.196 105.709 21.8416 107.38 21.8416C109.051 21.8416 110.397 23.196 110.397 24.8587Z" fill="#018DCE"/>
<path d="M123.131 48.5826C123.131 50.2453 121.785 51.5998 120.114 51.5998C118.451 51.5998 117.097 50.2534 117.097 48.5826C117.097 46.9199 118.443 45.5654 120.114 45.5654C121.777 45.5654 123.131 46.9118 123.131 48.5826Z" fill="#018DCE"/>
<path d="M137.106 5.65244C137.106 7.31513 135.76 8.66962 134.089 8.66962C132.426 8.66962 131.072 7.32325 131.072 5.65244C131.072 3.98974 132.418 2.63525 134.089 2.63525C135.752 2.63525 137.106 3.98163 137.106 5.65244Z" fill="#018DCE"/>
<defs>
<linearGradient id="paint0_linear_479_2812" x1="73.8303" y1="70.1048" x2="73.8303" y2="3.16532" gradientUnits="userSpaceOnUse">
<stop offset="0.0101" stop-opacity="0"/>
<stop offset="1" stop-color="#0198CE"/>
</linearGradient>
</defs>
</svg>
