<svg width="120" height="135" viewBox="0 0 120 135" fill="none" xmlns="http://www.w3.org/2000/svg">
<path d="M76.7988 0.689941C70.0102 0.689941 63.4405 1.59834 57.179 3.26915C50.6986 4.99673 44.575 7.57593 38.8975 10.8527C33.147 14.1781 27.8588 18.2253 23.1952 22.889C18.5315 27.5526 14.4843 32.8489 11.1508 38.5994C7.86592 44.2688 5.29482 50.4005 3.56724 56.8809C1.89644 63.1424 0.988037 69.7121 0.988037 76.5007H9.80438C9.80438 70.5069 10.6073 64.6997 12.0916 59.16C13.6245 53.442 15.9036 48.024 18.8073 43.0197C21.7515 37.9424 25.3283 33.2707 29.4485 29.1504C33.5688 25.0302 38.2405 21.4534 43.3178 18.5092C48.3302 15.6055 53.7401 13.3264 59.4581 11.7935C64.9896 10.3092 70.805 9.50628 76.7988 9.50628V0.689941Z" fill="url(#paint0_radial_479_2637)"/>
<path d="M59.4582 11.7936C53.7402 13.3265 48.3222 15.6056 43.3179 18.5092C38.2406 21.4534 33.5688 25.0302 29.4486 29.1505C25.3283 33.2707 21.7515 37.9425 18.8073 43.0198C15.9037 48.0322 13.6246 53.4421 12.0917 59.1601C10.6074 64.6916 9.80444 70.507 9.80444 76.5008C9.80444 82.4946 10.6074 88.3019 12.0917 93.8415C13.6246 99.5596 15.9037 104.978 18.8073 109.982C21.7515 115.059 25.3283 119.731 29.4486 123.851L35.6776 117.622C32.0927 114.037 28.9944 109.99 26.4395 105.578C23.9171 101.23 21.9381 96.5262 20.6079 91.5543C19.3183 86.7528 18.6208 81.6998 18.6208 76.5008C18.6208 71.2937 19.3183 66.2489 20.6079 61.4473C21.9381 56.4836 23.9171 51.7794 26.4395 47.4239C28.9944 43.0117 32.1008 38.9644 35.6776 35.3795C39.2625 31.7946 43.3098 28.6963 47.722 26.1414C52.0694 23.619 56.7736 21.64 61.7454 20.3098C66.547 19.0202 71.5999 18.3227 76.7989 18.3227V9.50635C70.8051 9.50635 64.9978 10.3093 59.4582 11.7936Z" fill="url(#paint1_linear_479_2637)"/>
<path d="M29.1159 63.7265C30.2433 59.5089 31.9222 55.5266 34.0634 51.8281C36.229 48.0891 38.8649 44.6501 41.9065 41.6086C44.948 38.5671 48.3869 35.9392 52.1259 33.7655C55.8163 31.6243 59.8068 29.9454 64.0244 28.818C68.104 27.7231 72.3865 27.131 76.7987 27.131V18.3228C71.5916 18.3228 66.5468 19.0203 61.7452 20.3099C56.7815 21.64 52.0773 23.619 47.7218 26.1415C43.3096 28.6964 39.2624 31.8028 35.6774 35.3796C32.0925 38.9645 28.9942 43.0118 26.4393 47.424C23.9169 51.7713 21.9379 56.4755 20.6077 61.4474C19.3181 66.2489 18.6206 71.2938 18.6206 76.5009C18.6206 81.7079 19.3181 86.7528 20.6077 91.5544C21.9379 96.5181 23.9169 101.222 26.4393 105.578C28.9942 109.99 32.1006 114.037 35.6774 117.622C39.2624 121.207 43.3096 124.305 47.7218 126.86C52.0692 129.383 56.7734 131.362 61.7452 132.692C66.5549 133.981 71.5998 134.679 76.7987 134.679V125.871C72.3784 125.871 68.104 125.279 64.0244 124.184C59.8068 123.056 55.8244 121.377 52.1259 119.236C48.3869 117.071 44.948 114.435 41.9065 111.393C38.8649 108.352 36.2371 104.913 34.0634 101.174C31.9222 97.4833 30.2433 93.4928 29.1159 89.2752C28.0209 85.1955 27.4288 80.9131 27.4288 76.5009C27.4288 72.0805 28.0209 67.8062 29.1159 63.7265Z" fill="url(#paint2_radial_479_2637)"/>
<path d="M111.902 96.7694C110.118 99.8434 107.96 102.666 105.462 105.164C102.964 107.662 100.141 109.828 97.0675 111.604C94.0341 113.364 90.7574 114.743 87.2941 115.667C83.9444 116.568 80.4324 117.054 76.7988 117.054C73.1734 117.054 69.6533 116.568 66.3036 115.667C62.8403 114.743 59.5636 113.364 56.5302 111.604C53.4562 109.82 50.6337 107.662 48.1356 105.164C45.6375 102.666 43.48 99.8434 41.6957 96.7694C39.9357 93.736 38.5568 90.4593 37.6322 86.996C36.7319 83.6463 36.2453 80.1262 36.2453 76.5007C36.2453 72.8753 36.7319 69.3552 37.6322 66.0055C38.5568 62.5422 39.9357 59.2655 41.6957 56.2321C43.48 53.1581 45.6375 50.3356 48.1356 47.8375C50.6337 45.3394 53.4562 43.182 56.5302 41.3976C59.5636 39.6376 62.8403 38.2588 66.3036 37.3341C69.6533 36.4338 73.1734 35.9472 76.7988 35.9472V27.1309C72.3785 27.1309 68.1042 27.7229 64.0245 28.8179C59.8069 29.9453 55.8246 31.6242 52.1261 33.7654C48.387 35.931 44.9481 38.567 41.9066 41.6085C38.8651 44.65 36.2372 48.0889 34.0635 51.828C31.9223 55.5183 30.2434 59.5088 29.116 63.7264C28.021 67.8061 27.429 72.0885 27.429 76.5007C27.429 80.9211 28.021 85.1954 29.116 89.2751C30.2434 93.4927 31.9223 97.4751 34.0635 101.174C36.2291 104.913 38.8651 108.352 41.9066 111.393C44.9481 114.435 48.387 117.062 52.1261 119.236C55.8164 121.377 59.8069 123.056 64.0245 124.184C68.1042 125.279 72.3866 125.871 76.7988 125.871C81.2192 125.871 85.4935 125.279 89.5732 124.184C93.7908 123.056 97.7731 121.377 101.472 119.236C105.211 117.071 108.65 114.435 111.691 111.393C114.733 108.352 117.361 104.913 119.534 101.174L111.902 96.7694Z" fill="url(#paint3_linear_479_2637)"/>
<path d="M108.536 76.5008C108.536 79.3396 108.155 82.0891 107.449 84.717C106.719 87.4259 105.641 89.9889 104.27 92.3654C102.875 94.7742 101.18 96.9804 99.2331 98.935C97.2784 100.89 95.0723 102.585 92.6634 103.98C90.287 105.359 87.724 106.437 85.015 107.159C82.3952 107.865 79.6457 108.246 76.7989 108.246C73.9601 108.246 71.2106 107.865 68.5827 107.159C65.8737 106.429 63.3107 105.351 60.9343 103.98C58.5254 102.585 56.3193 100.89 54.3646 98.9432C52.41 96.9966 50.7148 94.7742 49.3279 92.3735C47.9491 89.997 46.8703 87.4341 46.1485 84.7251C45.4429 82.1053 45.0617 79.3558 45.0617 76.5089C45.0617 73.6702 45.4429 70.9207 46.1485 68.2928C46.8784 65.5838 47.9572 63.0208 49.3279 60.6444C50.7229 58.2355 52.4181 56.0294 54.3727 54.0747C56.3274 52.12 58.5335 50.4249 60.9424 49.0379C63.3189 47.6591 65.8818 46.5804 68.5908 45.8586C71.2106 45.1529 73.9601 44.7717 76.807 44.7717V35.9473C73.1815 35.9473 69.6614 36.4339 66.3117 37.3342C62.8484 38.2588 59.5717 39.6376 56.5383 41.3977C53.4643 43.182 50.6418 45.3395 48.1437 47.8376C45.6456 50.3357 43.4882 53.1582 41.7038 56.2322C39.9438 59.2656 38.565 62.5423 37.6403 66.0056C36.7401 69.3553 36.2534 72.8672 36.2534 76.5008C36.2534 80.1263 36.7401 83.6464 37.6403 86.9961C38.565 90.4594 39.9438 93.7361 41.7038 96.7695C43.4882 99.8434 45.6456 102.666 48.1437 105.164C50.6418 107.662 53.4643 109.82 56.5383 111.604C59.5717 113.364 62.8484 114.743 66.3117 115.667C69.6614 116.568 73.1815 117.054 76.807 117.054C80.4325 117.054 83.9525 116.568 87.3022 115.667C90.7655 114.743 94.0422 113.364 97.0756 111.604C100.15 109.82 102.972 107.662 105.47 105.164C107.968 102.666 110.126 99.8434 111.91 96.7695C113.67 93.7361 115.049 90.4594 115.974 86.9961C116.874 83.6464 117.361 80.1344 117.361 76.5008H108.536Z" fill="url(#paint4_radial_479_2637)"/>
<path opacity="0.77" d="M114.505 75.9249C113.776 73.2159 112.697 70.6529 111.326 68.2765C109.931 65.8676 108.236 63.6615 106.289 61.7068C104.335 59.7521 102.129 58.057 99.7197 56.67C97.3432 55.2912 94.7803 54.2125 92.0713 53.4906C89.4515 52.785 86.702 52.4038 83.8551 52.4038C81.0164 52.4038 78.2668 52.785 75.639 53.4906C72.93 54.2206 70.367 55.2993 67.9906 56.67C65.5817 58.0651 63.3756 59.7602 61.4209 61.7068C59.4662 63.6615 57.7711 65.8676 56.3842 68.2765C55.0053 70.6529 53.9266 73.2159 53.2048 75.9249C52.4991 78.5446 52.1179 81.2942 52.1179 84.141C52.1179 86.9798 52.4991 89.7293 53.2048 92.3572C53.9347 95.0661 55.0134 97.6291 56.3842 100.006C57.7792 102.414 59.4743 104.621 61.4209 106.575C63.3675 108.53 65.5898 110.225 67.9906 111.612C70.367 112.991 72.93 114.07 75.639 114.791C78.2587 115.497 81.0083 115.878 83.8551 115.878C86.6939 115.878 89.4434 115.497 92.0713 114.791C94.7803 114.061 97.3432 112.983 99.7197 111.612C102.129 110.217 104.335 108.522 106.289 106.567C108.244 104.612 109.939 102.406 111.326 99.9975C112.705 97.621 113.784 95.058 114.505 92.3491C115.211 89.7293 115.592 86.9798 115.592 84.1329C115.592 81.3023 115.211 78.5527 114.505 75.9249Z" fill="url(#paint5_radial_479_2637)"/>
<path d="M107.449 68.2847C106.719 65.5758 105.64 63.0128 104.27 60.6363C102.875 58.2274 101.18 56.0213 99.233 54.0667C97.2783 52.112 95.0722 50.4168 92.6633 49.0299C90.2869 47.6511 87.7239 46.5724 85.0149 45.8505C82.3952 45.1449 79.6456 44.7637 76.7988 44.7637C73.96 44.7637 71.2105 45.1449 68.5826 45.8505C65.8737 46.5805 63.3107 47.6592 60.9342 49.0299C58.5254 50.4249 56.3192 52.1201 54.3646 54.0667C52.4099 56.0213 50.7147 58.2274 49.3197 60.6363C47.9409 63.0128 46.8622 65.5758 46.1403 68.2847C45.4347 70.9045 45.0535 73.654 45.0535 76.5009C45.0535 79.3396 45.4347 82.0892 46.1403 84.717C46.8703 87.426 47.949 89.989 49.3197 92.3654C50.7147 94.7743 52.4099 96.9804 54.3565 98.9351C56.303 100.89 58.5172 102.585 60.9261 103.972C63.3026 105.351 65.8655 106.429 68.5745 107.151C71.1943 107.857 73.9438 108.238 76.7907 108.238C79.6294 108.238 82.379 107.857 85.0068 107.151C87.7158 106.421 90.2788 105.343 92.6552 103.972C95.0641 102.577 97.2702 100.882 99.2249 98.927C101.18 96.9723 102.875 94.7662 104.262 92.3573C105.64 89.9809 106.719 87.4179 107.441 84.7089C108.147 82.0892 108.528 79.3396 108.528 76.4928C108.536 73.6621 108.155 70.9126 107.449 68.2847Z" fill="url(#paint6_linear_479_2637)"/>
<path d="M100.287 70.2066C99.7278 68.1302 98.9005 66.1674 97.8461 64.3506C96.7755 62.5095 95.4778 60.8144 93.9854 59.3139C92.4849 57.8134 90.7979 56.5238 88.9487 55.4532C87.1319 54.3988 85.1691 53.5715 83.0927 53.0119C81.0813 52.4766 78.9725 52.1846 76.7988 52.1846C74.6251 52.1846 72.5164 52.4766 70.5049 53.0119C68.4286 53.5715 66.4658 54.3988 64.649 55.4532C62.8078 56.5238 61.1127 57.8215 59.6122 59.3139C58.1117 60.8144 56.8221 62.5014 55.7515 64.3506C54.6971 66.1674 53.8698 68.1302 53.3102 70.2066C52.7749 72.218 52.4829 74.3268 52.4829 76.5005C52.4829 78.6741 52.7749 80.7829 53.3102 82.7944C53.8698 84.8707 54.6971 86.8335 55.7515 88.6503C56.8221 90.4915 58.1199 92.1866 59.6122 93.6871C61.1127 95.1876 62.7997 96.4772 64.649 97.5478C66.4658 98.6022 68.4286 99.4295 70.5049 99.9891C72.5164 100.524 74.6251 100.816 76.7988 100.816C78.9725 100.816 81.0813 100.524 83.0927 99.9891C85.1691 99.4295 87.1319 98.6022 88.9487 97.5478C90.7898 96.4772 92.4849 95.1794 93.9854 93.6871C95.4859 92.1866 96.7755 90.4996 97.8461 88.6503C98.9005 86.8335 99.7278 84.8707 100.287 82.7944C100.823 80.7829 101.115 78.6741 101.115 76.5005C101.115 74.3268 100.823 72.218 100.287 70.2066Z" fill="#F5F7F6"/>
<path d="M100.231 7.29219L104.197 5.0293L100.231 2.7583V4.8022H81.0569V5.24829H100.231V7.29219Z" fill="#F5F7F6"/>
<path d="M100.231 13.6916H81.0569V14.1377H100.231V16.0762L104.197 13.8052L100.231 11.5342V13.6916Z" fill="#F5F7F6"/>
<path d="M100.231 22.5486H81.0569V22.9866H100.231V25.0386L104.197 22.7676L100.231 20.4966V22.5486Z" fill="#F5F7F6"/>
<path d="M100.231 31.9084H81.0569V32.3545H100.231V34.1794L104.197 31.9084L100.231 29.6455V31.9084Z" fill="#F5F7F6"/>
<path d="M100.231 40.9438H81.0569V41.3899H100.231V43.4419L104.197 41.1709L100.231 38.8999V40.9438Z" fill="#F5F7F6"/>
<path d="M110.632 38.6543L109.023 42.2607H108.506L110.109 38.7824H108.007V38.3769H110.632V38.6543ZM111.419 40.3135L111.616 38.3769H113.606V38.833H112.035L111.918 39.892C112.108 39.78 112.324 39.724 112.566 39.724C112.92 39.724 113.201 39.8414 113.409 40.0761C113.617 40.309 113.721 40.6247 113.721 41.023C113.721 41.4232 113.612 41.7388 113.395 41.97C113.18 42.1994 112.879 42.3141 112.491 42.3141C112.148 42.3141 111.868 42.219 111.651 42.0287C111.434 41.8384 111.31 41.5752 111.28 41.2391H111.747C111.777 41.4614 111.856 41.6294 111.984 41.7433C112.112 41.8553 112.281 41.9113 112.491 41.9113C112.721 41.9113 112.9 41.8331 113.03 41.6766C113.162 41.5201 113.227 41.304 113.227 41.0284C113.227 40.7687 113.156 40.5607 113.014 40.4042C112.873 40.2459 112.686 40.1668 112.451 40.1668C112.236 40.1668 112.067 40.2139 111.944 40.3082L111.814 40.4149L111.419 40.3135ZM114.217 39.1238C114.217 38.8908 114.291 38.6988 114.438 38.5476C114.588 38.3965 114.779 38.3209 115.012 38.3209C115.248 38.3209 115.44 38.3974 115.585 38.5503C115.733 38.7015 115.807 38.898 115.807 39.1398V39.3292C115.807 39.5639 115.732 39.756 115.583 39.9054C115.435 40.053 115.247 40.1268 115.017 40.1268C114.786 40.1268 114.595 40.053 114.444 39.9054C114.293 39.756 114.217 39.5577 114.217 39.3105V39.1238ZM114.585 39.3292C114.585 39.4679 114.624 39.5826 114.702 39.6733C114.781 39.7622 114.886 39.8067 115.017 39.8067C115.144 39.8067 115.245 39.7631 115.321 39.676C115.4 39.5888 115.439 39.4697 115.439 39.3185V39.1238C115.439 38.9851 115.4 38.8704 115.324 38.7797C115.248 38.689 115.144 38.6437 115.012 38.6437C114.88 38.6437 114.776 38.689 114.7 38.7797C114.623 38.8704 114.585 38.9887 114.585 39.1345V39.3292ZM116.108 41.3085C116.108 41.0755 116.182 40.8843 116.33 40.735C116.479 40.5838 116.67 40.5082 116.903 40.5082C117.136 40.5082 117.327 40.5829 117.477 40.7323C117.626 40.8817 117.701 41.0799 117.701 41.3271V41.5165C117.701 41.7495 117.626 41.9415 117.477 42.0927C117.329 42.2421 117.14 42.3168 116.908 42.3168C116.677 42.3168 116.486 42.243 116.335 42.0954C116.184 41.946 116.108 41.7477 116.108 41.5005V41.3085ZM116.476 41.5165C116.476 41.657 116.515 41.7726 116.594 41.8633C116.672 41.9522 116.777 41.9967 116.908 41.9967C117.037 41.9967 117.139 41.9531 117.215 41.866C117.292 41.777 117.33 41.657 117.33 41.5058V41.3085C117.33 41.168 117.291 41.0533 117.213 40.9644C117.136 40.8754 117.033 40.831 116.903 40.831C116.777 40.831 116.674 40.8754 116.594 40.9644C116.515 41.0515 116.476 41.1697 116.476 41.3191V41.5165ZM115.129 41.9673L114.849 41.7913L116.746 38.7557L117.026 38.9317L115.129 41.9673Z" fill="#F5F7F6"/>
<path d="M110.061 29.6487V30.0675H109.97C109.586 30.0746 109.28 30.1884 109.053 30.4089C108.825 30.6294 108.694 30.9397 108.658 31.3398C108.863 31.1051 109.142 30.9877 109.496 30.9877C109.833 30.9877 110.103 31.1069 110.304 31.3452C110.507 31.5835 110.608 31.8911 110.608 32.2681C110.608 32.6682 110.499 32.9883 110.28 33.2284C110.063 33.4685 109.771 33.5885 109.405 33.5885C109.033 33.5885 108.732 33.4462 108.501 33.1617C108.269 32.8754 108.154 32.5073 108.154 32.0574V31.868C108.154 31.1531 108.306 30.6072 108.61 30.2302C108.916 29.8514 109.37 29.6576 109.973 29.6487H110.061ZM109.413 31.3985C109.244 31.3985 109.088 31.4492 108.946 31.5506C108.804 31.6519 108.705 31.7791 108.65 31.932V32.1134C108.65 32.4335 108.722 32.6913 108.866 32.887C109.01 33.0826 109.19 33.1804 109.405 33.1804C109.627 33.1804 109.801 33.0986 109.928 32.935C110.056 32.7714 110.12 32.5571 110.12 32.2921C110.12 32.0254 110.055 31.8102 109.925 31.6466C109.797 31.4812 109.626 31.3985 109.413 31.3985ZM113.628 31.8787C113.628 32.4566 113.529 32.8861 113.331 33.167C113.134 33.448 112.825 33.5885 112.406 33.5885C111.991 33.5885 111.685 33.4516 111.486 33.1777C111.286 32.9021 111.183 32.4913 111.176 31.9453V31.2865C111.176 30.7156 111.275 30.2915 111.472 30.0141C111.67 29.7367 111.979 29.598 112.4 29.598C112.818 29.598 113.126 29.7322 113.323 30.0008C113.521 30.2675 113.622 30.6801 113.628 31.2385V31.8787ZM113.134 31.2038C113.134 30.7859 113.075 30.4818 112.958 30.2915C112.841 30.0995 112.655 30.0034 112.4 30.0034C112.148 30.0034 111.964 30.0986 111.848 30.2889C111.733 30.4791 111.673 30.7717 111.67 31.1664V31.956C111.67 32.3757 111.73 32.686 111.851 32.887C111.974 33.0861 112.159 33.1857 112.406 33.1857C112.649 33.1857 112.83 33.0915 112.947 32.903C113.066 32.7145 113.129 32.4175 113.134 32.012V31.2038ZM114.217 30.3982C114.217 30.1653 114.291 29.9732 114.438 29.822C114.588 29.6709 114.779 29.5953 115.012 29.5953C115.248 29.5953 115.44 29.6718 115.585 29.8247C115.733 29.9759 115.807 30.1724 115.807 30.4142V30.6036C115.807 30.8383 115.732 31.0304 115.583 31.1798C115.435 31.3274 115.247 31.4012 115.017 31.4012C114.786 31.4012 114.595 31.3274 114.444 31.1798C114.293 31.0304 114.217 30.8321 114.217 30.5849V30.3982ZM114.585 30.6036C114.585 30.7423 114.624 30.857 114.702 30.9477C114.781 31.0366 114.886 31.0811 115.017 31.0811C115.144 31.0811 115.245 31.0375 115.321 30.9504C115.4 30.8632 115.439 30.7441 115.439 30.5929V30.3982C115.439 30.2595 115.4 30.1448 115.324 30.0541C115.248 29.9634 115.144 29.9181 115.012 29.9181C114.88 29.9181 114.776 29.9634 114.7 30.0541C114.623 30.1448 114.585 30.2631 114.585 30.4089V30.6036ZM116.108 32.5829C116.108 32.3499 116.182 32.1587 116.33 32.0094C116.479 31.8582 116.67 31.7826 116.903 31.7826C117.136 31.7826 117.327 31.8573 117.477 32.0067C117.626 32.1561 117.701 32.3544 117.701 32.6015V32.7909C117.701 33.0239 117.626 33.2159 117.477 33.3671C117.329 33.5165 117.14 33.5912 116.908 33.5912C116.677 33.5912 116.486 33.5174 116.335 33.3698C116.184 33.2204 116.108 33.0221 116.108 32.7749V32.5829ZM116.476 32.7909C116.476 32.9314 116.515 33.047 116.594 33.1377C116.672 33.2266 116.777 33.2711 116.908 33.2711C117.037 33.2711 117.139 33.2275 117.215 33.1404C117.292 33.0515 117.33 32.9314 117.33 32.7803V32.5829C117.33 32.4424 117.291 32.3277 117.213 32.2388C117.136 32.1499 117.033 32.1054 116.903 32.1054C116.777 32.1054 116.674 32.1499 116.594 32.2388C116.515 32.3259 116.476 32.4442 116.476 32.5935V32.7909ZM115.129 33.2417L114.849 33.0657L116.746 30.0301L117.026 30.2062L115.129 33.2417Z" fill="#F5F7F6"/>
<path d="M108.351 22.711L108.549 20.7744H110.539V21.2305H108.967L108.85 22.2895C109.04 22.1775 109.256 22.1214 109.498 22.1214C109.852 22.1214 110.133 22.2388 110.341 22.4735C110.549 22.7065 110.653 23.0222 110.653 23.4205C110.653 23.8206 110.545 24.1363 110.328 24.3674C110.113 24.5969 109.811 24.7116 109.424 24.7116C109.08 24.7116 108.8 24.6164 108.583 24.4261C108.366 24.2359 108.243 23.9727 108.213 23.6366H108.679C108.71 23.8589 108.789 24.0269 108.917 24.1407C109.045 24.2527 109.214 24.3088 109.424 24.3088C109.653 24.3088 109.833 24.2305 109.962 24.074C110.094 23.9175 110.16 23.7015 110.16 23.4258C110.16 23.1662 110.089 22.9581 109.946 22.8016C109.806 22.6434 109.618 22.5642 109.384 22.5642C109.168 22.5642 108.999 22.6114 108.877 22.7056L108.746 22.8123L108.351 22.711ZM113.628 23.0017C113.628 23.5797 113.529 24.0091 113.331 24.2901C113.134 24.5711 112.825 24.7116 112.406 24.7116C111.991 24.7116 111.685 24.5746 111.486 24.3008C111.286 24.0251 111.183 23.6143 111.176 23.0684V22.4095C111.176 21.8387 111.275 21.4146 111.472 21.1371C111.67 20.8597 111.979 20.721 112.4 20.721C112.818 20.721 113.126 20.8553 113.323 21.1238C113.521 21.3906 113.622 21.8031 113.628 22.3615V23.0017ZM113.134 22.3268C113.134 21.9089 113.075 21.6048 112.958 21.4146C112.841 21.2225 112.655 21.1265 112.4 21.1265C112.148 21.1265 111.964 21.2216 111.848 21.4119C111.733 21.6022 111.673 21.8947 111.67 22.2895V23.0791C111.67 23.4987 111.73 23.8091 111.851 24.01C111.974 24.2092 112.159 24.3088 112.406 24.3088C112.649 24.3088 112.83 24.2145 112.947 24.026C113.066 23.8375 113.129 23.5405 113.134 23.1351V22.3268ZM114.217 21.5213C114.217 21.2883 114.291 21.0962 114.438 20.9451C114.588 20.7939 114.779 20.7184 115.012 20.7184C115.248 20.7184 115.44 20.7948 115.585 20.9478C115.733 21.0989 115.807 21.2954 115.807 21.5373V21.7267C115.807 21.9614 115.732 22.1535 115.583 22.3028C115.435 22.4504 115.247 22.5242 115.017 22.5242C114.786 22.5242 114.595 22.4504 114.444 22.3028C114.293 22.1535 114.217 21.9552 114.217 21.708V21.5213ZM114.585 21.7267C114.585 21.8654 114.624 21.9801 114.702 22.0708C114.781 22.1597 114.886 22.2041 115.017 22.2041C115.144 22.2041 115.245 22.1606 115.321 22.0734C115.4 21.9863 115.439 21.8671 115.439 21.716V21.5213C115.439 21.3826 115.4 21.2679 115.324 21.1772C115.248 21.0865 115.144 21.0411 115.012 21.0411C114.88 21.0411 114.776 21.0865 114.7 21.1772C114.623 21.2679 114.585 21.3861 114.585 21.5319V21.7267ZM116.108 23.7059C116.108 23.473 116.182 23.2818 116.33 23.1324C116.479 22.9813 116.67 22.9057 116.903 22.9057C117.136 22.9057 117.327 22.9804 117.477 23.1297C117.626 23.2791 117.701 23.4774 117.701 23.7246V23.914C117.701 24.1469 117.626 24.339 117.477 24.4902C117.329 24.6395 117.14 24.7142 116.908 24.7142C116.677 24.7142 116.486 24.6404 116.335 24.4928C116.184 24.3434 116.108 24.1452 116.108 23.898V23.7059ZM116.476 23.914C116.476 24.0545 116.515 24.1701 116.594 24.2608C116.672 24.3497 116.777 24.3941 116.908 24.3941C117.037 24.3941 117.139 24.3506 117.215 24.2634C117.292 24.1745 117.33 24.0545 117.33 23.9033V23.7059C117.33 23.5654 117.291 23.4507 117.213 23.3618C117.136 23.2729 117.033 23.2284 116.903 23.2284C116.777 23.2284 116.674 23.2729 116.594 23.3618C116.515 23.449 116.476 23.5672 116.476 23.7166V23.914ZM115.129 24.3648L114.849 24.1887L116.746 21.1532L117.026 21.3292L115.129 24.3648Z" fill="#F5F7F6"/>
<path d="M108.842 13.0675H109.213C109.446 13.064 109.629 13.0026 109.762 12.8835C109.896 12.7643 109.962 12.6034 109.962 12.4007C109.962 11.9454 109.736 11.7178 109.282 11.7178C109.069 11.7178 108.898 11.7791 108.77 11.9018C108.644 12.0228 108.581 12.1837 108.581 12.3847H108.087C108.087 12.077 108.199 11.8218 108.423 11.6191C108.649 11.4146 108.935 11.3123 109.282 11.3123C109.649 11.3123 109.936 11.4093 110.144 11.6031C110.352 11.7969 110.456 12.0663 110.456 12.4113C110.456 12.5803 110.401 12.7439 110.291 12.9021C110.182 13.0604 110.034 13.1787 109.845 13.2569C110.058 13.3245 110.223 13.4365 110.339 13.593C110.456 13.7495 110.515 13.9407 110.515 14.1665C110.515 14.5151 110.401 14.7916 110.173 14.9961C109.946 15.2006 109.649 15.3029 109.285 15.3029C108.92 15.3029 108.623 15.2042 108.394 15.0068C108.166 14.8094 108.052 14.5489 108.052 14.2252H108.549C108.549 14.4297 108.615 14.5933 108.749 14.716C108.882 14.8387 109.061 14.9001 109.285 14.9001C109.523 14.9001 109.705 14.8378 109.832 14.7134C109.958 14.5889 110.021 14.4101 110.021 14.1772C110.021 13.9513 109.952 13.778 109.813 13.657C109.674 13.5361 109.474 13.4739 109.213 13.4703H108.842V13.0675ZM113.628 13.593C113.628 14.171 113.529 14.6004 113.331 14.8814C113.134 15.1624 112.825 15.3029 112.406 15.3029C111.991 15.3029 111.685 15.1659 111.486 14.8921C111.286 14.6164 111.183 14.2056 111.176 13.6597V13.0008C111.176 12.43 111.275 12.0059 111.472 11.7285C111.67 11.451 111.979 11.3123 112.4 11.3123C112.818 11.3123 113.126 11.4466 113.323 11.7151C113.521 11.9819 113.622 12.3944 113.628 12.9528V13.593ZM113.134 12.9181C113.134 12.5002 113.075 12.1962 112.958 12.0059C112.841 11.8138 112.655 11.7178 112.4 11.7178C112.148 11.7178 111.964 11.8129 111.848 12.0032C111.733 12.1935 111.673 12.486 111.67 12.8808V13.6704C111.67 14.0901 111.73 14.4004 111.851 14.6013C111.974 14.8005 112.159 14.9001 112.406 14.9001C112.649 14.9001 112.83 14.8058 112.947 14.6173C113.066 14.4288 113.129 14.1318 113.134 13.7264V12.9181ZM114.217 12.1126C114.217 11.8796 114.291 11.6876 114.438 11.5364C114.588 11.3852 114.779 11.3097 115.012 11.3097C115.248 11.3097 115.44 11.3861 115.585 11.5391C115.733 11.6902 115.807 11.8867 115.807 12.1286V12.318C115.807 12.5527 115.732 12.7448 115.583 12.8941C115.435 13.0417 115.247 13.1155 115.017 13.1155C114.786 13.1155 114.595 13.0417 114.444 12.8941C114.293 12.7448 114.217 12.5465 114.217 12.2993V12.1126ZM114.585 12.318C114.585 12.4567 114.624 12.5714 114.702 12.6621C114.781 12.751 114.886 12.7954 115.017 12.7954C115.144 12.7954 115.245 12.7519 115.321 12.6647C115.4 12.5776 115.439 12.4585 115.439 12.3073V12.1126C115.439 11.9739 115.4 11.8592 115.324 11.7685C115.248 11.6778 115.144 11.6324 115.012 11.6324C114.88 11.6324 114.776 11.6778 114.7 11.7685C114.623 11.8592 114.585 11.9774 114.585 12.1232V12.318ZM116.108 14.2972C116.108 14.0643 116.182 13.8731 116.33 13.7237C116.479 13.5726 116.67 13.497 116.903 13.497C117.136 13.497 117.327 13.5717 117.477 13.7211C117.626 13.8704 117.701 14.0687 117.701 14.3159V14.5053C117.701 14.7382 117.626 14.9303 117.477 15.0815C117.329 15.2308 117.14 15.3055 116.908 15.3055C116.677 15.3055 116.486 15.2317 116.335 15.0841C116.184 14.9348 116.108 14.7365 116.108 14.4893V14.2972ZM116.476 14.5053C116.476 14.6458 116.515 14.7614 116.594 14.8521C116.672 14.941 116.777 14.9854 116.908 14.9854C117.037 14.9854 117.139 14.9419 117.215 14.8547C117.292 14.7658 117.33 14.6458 117.33 14.4946V14.2972C117.33 14.1567 117.291 14.042 117.213 13.9531C117.136 13.8642 117.033 13.8198 116.903 13.8198C116.777 13.8198 116.674 13.8642 116.594 13.9531C116.515 14.0403 116.476 14.1585 116.476 14.3079V14.5053ZM115.129 14.9561L114.849 14.78L116.746 11.7445L117.026 11.9205L115.129 14.9561Z" fill="#F5F7F6"/>
<path d="M109.746 5.68994H109.25V2.40096L108.255 2.7664V2.31827L109.669 1.78744H109.746V5.68994ZM111.419 3.74269L111.616 1.80611H113.606V2.26225H112.035L111.918 3.32123C112.108 3.2092 112.324 3.15318 112.566 3.15318C112.92 3.15318 113.201 3.27055 113.409 3.50529C113.617 3.73825 113.721 4.0539 113.721 4.45224C113.721 4.85236 113.612 5.16801 113.395 5.39919C113.18 5.62859 112.879 5.74329 112.491 5.74329C112.148 5.74329 111.868 5.64815 111.651 5.45787C111.434 5.26759 111.31 5.0044 111.28 4.6683H111.747C111.777 4.89059 111.856 5.05864 111.984 5.17245C112.112 5.28449 112.281 5.3405 112.491 5.3405C112.721 5.3405 112.9 5.26226 113.03 5.10577C113.162 4.94928 113.227 4.73321 113.227 4.45757C113.227 4.19794 113.156 3.98988 113.014 3.83339C112.873 3.67512 112.686 3.59598 112.451 3.59598C112.236 3.59598 112.067 3.64311 111.944 3.73736L111.814 3.84406L111.419 3.74269ZM114.217 2.553C114.217 2.32004 114.291 2.12799 114.438 1.97683C114.588 1.82567 114.779 1.7501 115.012 1.7501C115.248 1.7501 115.44 1.82656 115.585 1.9795C115.733 2.13065 115.807 2.32716 115.807 2.56901V2.7584C115.807 2.99313 115.732 3.18519 115.583 3.33457C115.435 3.48217 115.247 3.55597 115.017 3.55597C114.786 3.55597 114.595 3.48217 114.444 3.33457C114.293 3.18519 114.217 2.98691 114.217 2.73973V2.553ZM114.585 2.7584C114.585 2.89711 114.624 3.01181 114.702 3.1025C114.781 3.19142 114.886 3.23587 115.017 3.23587C115.144 3.23587 115.245 3.1923 115.321 3.10517C115.4 3.01803 115.439 2.89888 115.439 2.74773V2.553C115.439 2.41429 115.4 2.29959 115.324 2.2089C115.248 2.11821 115.144 2.07286 115.012 2.07286C114.88 2.07286 114.776 2.11821 114.7 2.2089C114.623 2.29959 114.585 2.41785 114.585 2.56367V2.7584ZM116.108 4.73766C116.108 4.5047 116.182 4.31353 116.33 4.16415C116.479 4.013 116.67 3.93742 116.903 3.93742C117.136 3.93742 117.327 4.01211 117.477 4.16148C117.626 4.31086 117.701 4.50914 117.701 4.75633V4.94572C117.701 5.17868 117.626 5.37073 117.477 5.52189C117.329 5.67127 117.14 5.74596 116.908 5.74596C116.677 5.74596 116.486 5.67216 116.335 5.52456C116.184 5.37518 116.108 5.1769 116.108 4.92971V4.73766ZM116.476 4.94572C116.476 5.08621 116.515 5.2018 116.594 5.29249C116.672 5.3814 116.777 5.42586 116.908 5.42586C117.037 5.42586 117.139 5.38229 117.215 5.29516C117.292 5.20624 117.33 5.08621 117.33 4.93505V4.73766C117.33 4.59717 117.291 4.48247 117.213 4.39355C117.136 4.30464 117.033 4.26018 116.903 4.26018C116.777 4.26018 116.674 4.30464 116.594 4.39355C116.515 4.48069 116.476 4.59895 116.476 4.74833V4.94572ZM115.129 5.39652L114.849 5.22047L116.746 2.18489L117.026 2.36095L115.129 5.39652Z" fill="#F5F7F6"/>
<path d="M80.3768 71.2494C78.3257 69.6194 75.4189 69.5923 73.4493 71.1951C72.0367 72.3361 71.3303 74.0476 71.3303 76.2617C71.3303 77.7287 72.6479 79.8341 72.8109 80.1058C72.8245 80.1193 73.9111 81.5863 74.1692 83.3386L74.2372 83.7733H79.7112L79.7791 83.3386C80.0372 81.5863 81.1239 80.1193 81.1511 80.0786C81.3005 79.8477 82.6181 77.7423 82.6181 76.2753C82.6045 74.1019 81.8574 72.4176 80.3768 71.2494ZM76.8587 74.1291C75.9351 74.1563 75.0929 74.7268 74.7397 75.5825C74.6582 75.7727 74.4681 75.8949 74.2643 75.8949C74.1964 75.8949 74.1285 75.8813 74.0606 75.8542C73.8025 75.7455 73.6802 75.4467 73.7889 75.1886C74.3051 73.9661 75.5004 73.1511 76.818 73.1103C77.0896 73.0968 77.3341 73.3277 77.3341 73.6129C77.3613 73.8846 77.144 74.1155 76.8587 74.1291Z" fill="#193566"/>
<path d="M79.6705 86.069H74.0198C73.7346 86.069 73.5037 85.838 73.5037 85.5528C73.5037 85.2675 73.7346 85.0366 74.0198 85.0366H79.6705C79.9557 85.0366 80.1867 85.2675 80.1867 85.5528C80.1867 85.838 79.9557 86.069 79.6705 86.069Z" fill="#193566"/>
<path d="M78.3936 85.7974H75.1743V87.1421H78.3936V85.7974Z" fill="#193566"/>
<path d="M76.7364 68.8589C76.4511 68.8589 76.2202 68.628 76.2202 68.3427V66.9029C76.2202 66.6176 76.4511 66.3867 76.7364 66.3867C77.0216 66.3867 77.2525 66.6176 77.2525 66.9029V68.3427C77.2525 68.6416 77.0216 68.8589 76.7364 68.8589Z" fill="#193566"/>
<path d="M72.6479 70.0135C72.4713 70.0135 72.2947 69.9184 72.1997 69.7554L71.4797 68.5057C71.3439 68.2612 71.4254 67.9488 71.6699 67.813C71.9144 67.6772 72.2268 67.7587 72.3627 68.0032L73.0826 69.2528C73.2184 69.4973 73.1369 69.8097 72.8924 69.9456C72.8245 69.9999 72.743 70.0135 72.6479 70.0135Z" fill="#193566"/>
<path d="M69.6867 73.0697C69.6052 73.0697 69.5101 73.0425 69.4286 73.0018L68.1789 72.2818C67.9344 72.146 67.8529 71.8336 67.9888 71.5891C68.1246 71.3446 68.437 71.2631 68.6815 71.3989L69.9312 72.1188C70.1757 72.2547 70.2572 72.5671 70.1214 72.8116C70.0399 72.9746 69.8633 73.0697 69.6867 73.0697Z" fill="#193566"/>
<path d="M68.6408 77.1856H67.201C66.9157 77.1856 66.6848 76.9547 66.6848 76.6695C66.6848 76.3842 66.9157 76.1533 67.201 76.1533H68.6408C68.9261 76.1533 69.157 76.3842 69.157 76.6695C69.157 76.9547 68.9261 77.1856 68.6408 77.1856Z" fill="#193566"/>
<path d="M68.5593 81.994C68.3828 81.994 68.2062 81.8989 68.1111 81.7359C67.9753 81.4914 68.0568 81.179 68.3013 81.0432L69.5509 80.3232C69.7954 80.1874 70.1078 80.2689 70.2437 80.5134C70.3795 80.7579 70.298 81.0703 70.0535 81.2062L68.8038 81.9261C68.7359 81.9668 68.6408 81.994 68.5593 81.994Z" fill="#193566"/>
<path d="M85.2668 81.8041C85.1853 81.8041 85.0902 81.7769 85.0087 81.7361L83.759 81.0162C83.5145 80.8804 83.433 80.568 83.5689 80.3235C83.7047 80.079 84.0171 79.9975 84.2616 80.1333L85.5113 80.8532C85.7558 80.9891 85.8373 81.3015 85.7014 81.546C85.6064 81.709 85.4434 81.8041 85.2668 81.8041Z" fill="#193566"/>
<path d="M86.5029 76.9547H85.063C84.7778 76.9547 84.5469 76.7238 84.5469 76.4385C84.5469 76.1533 84.7778 75.9224 85.063 75.9224H86.5029C86.7881 75.9224 87.019 76.1533 87.019 76.4385C87.019 76.7238 86.7881 76.9547 86.5029 76.9547Z" fill="#193566"/>
<path d="M83.9085 72.8661C83.7319 72.8661 83.5553 72.771 83.4602 72.608C83.3244 72.3635 83.4059 72.0511 83.6504 71.9152L84.9 71.1953C85.1445 71.0595 85.457 71.141 85.5928 71.3855C85.7286 71.63 85.6471 71.9424 85.4026 72.0782L84.153 72.7981C84.085 72.8525 83.99 72.8661 83.9085 72.8661Z" fill="#193566"/>
<path d="M80.8657 69.9051C80.7842 69.9051 80.6892 69.8779 80.6077 69.8372C80.3632 69.7013 80.2817 69.3889 80.4175 69.1444L81.1374 67.8948C81.2732 67.6503 81.5856 67.5688 81.8301 67.7046C82.0746 67.8404 82.1562 68.1528 82.0203 68.3973L81.3004 69.647C81.2053 69.81 81.0287 69.9051 80.8657 69.9051Z" fill="#193566"/>
<defs>
<radialGradient id="paint0_radial_479_2637" cx="0" cy="0" r="1" gradientUnits="userSpaceOnUse" gradientTransform="translate(38.8938 62.3239) rotate(-90) scale(65.2316)">
<stop stop-color="#0066FF"/>
<stop offset="0.276042" stop-color="#0066FF"/>
<stop offset="0.6406" stop-color="#0097CE"/>
<stop offset="1" stop-color="#0058CB"/>
</radialGradient>
<linearGradient id="paint1_linear_479_2637" x1="43.3013" y1="144.745" x2="43.3013" y2="13.8385" gradientUnits="userSpaceOnUse">
<stop stop-color="#27B7FF"/>
<stop offset="0.9899" stop-color="#F408AB"/>
</linearGradient>
<radialGradient id="paint2_radial_479_2637" cx="0" cy="0" r="1" gradientUnits="userSpaceOnUse" gradientTransform="translate(47.7086 62.3238) rotate(-90) scale(65.2318)">
<stop stop-color="#0066FF"/>
<stop offset="0.307292" stop-color="#0066FF"/>
<stop offset="0.651042" stop-color="#0097CE"/>
<stop offset="0.9819" stop-color="#0058CB"/>
</radialGradient>
<linearGradient id="paint3_linear_479_2637" x1="73.4823" y1="144.745" x2="73.4823" y2="13.838" gradientUnits="userSpaceOnUse">
<stop stop-color="#27B7FF"/>
<stop offset="0.9899" stop-color="#F408AB"/>
</linearGradient>
<radialGradient id="paint4_radial_479_2637" cx="0" cy="0" r="1" gradientUnits="userSpaceOnUse" gradientTransform="translate(76.7997 62.3241) rotate(-90) scale(65.2315)">
<stop stop-color="#0066FF"/>
<stop offset="0.338542" stop-color="#0066FF"/>
<stop offset="0.692708" stop-color="#0097CE"/>
<stop offset="0.9819" stop-color="#0058CB"/>
</radialGradient>
<radialGradient id="paint5_radial_479_2637" cx="0" cy="0" r="1" gradientUnits="userSpaceOnUse" gradientTransform="translate(83.8516 84.1413) scale(31.7366 31.7366)">
<stop offset="0.000116"/>
<stop offset="0.0894" stop-color="#1D1D1D"/>
<stop offset="0.3464" stop-color="#6C6C6C"/>
<stop offset="0.5751" stop-color="#ABABAB"/>
<stop offset="0.7669" stop-color="#D9D9D9"/>
<stop offset="0.9145" stop-color="#F5F5F5"/>
<stop offset="1" stop-color="white"/>
</radialGradient>
<linearGradient id="paint6_linear_479_2637" x1="105.008" y1="104.71" x2="52.8751" y2="52.5772" gradientUnits="userSpaceOnUse">
<stop stop-color="#071A35"/>
<stop offset="1" stop-color="#193566"/>
</linearGradient>
</defs>
</svg>
