<svg width="205" height="103" viewBox="0 0 205 103" fill="none" xmlns="http://www.w3.org/2000/svg">
<path d="M204.583 3.68311H10.0718V4.27518H204.583V3.68311Z" fill="#FDFEFF"/>
<path d="M204.583 10.3096H10.0718V10.9016H204.583V10.3096Z" fill="#FDFEFF"/>
<path d="M204.583 16.936H10.0718V17.5281H204.583V16.936Z" fill="#FDFEFF"/>
<path d="M204.583 23.5708H10.0718V24.171H204.583V23.5708Z" fill="#FDFEFF"/>
<path d="M204.583 30.1973H10.0718V30.7975H204.583V30.1973Z" fill="#FDFEFF"/>
<path d="M204.583 36.8232H10.0718V37.4234H204.583V36.8232Z" fill="#FDFEFF"/>
<path d="M204.583 43.4502H10.0718V44.0423H204.583V43.4502Z" fill="#FDFEFF"/>
<path d="M204.583 50.0762H10.0718V50.6764H204.583V50.0762Z" fill="#FDFEFF"/>
<path d="M204.583 56.7026H10.0718V57.2947H204.583V56.7026Z" fill="#FDFEFF"/>
<path d="M204.583 63.3374H10.0718V63.9295H204.583V63.3374Z" fill="#FDFEFF"/>
<path d="M204.583 69.9639H10.0718V70.556H204.583V69.9639Z" fill="#FDFEFF"/>
<path d="M204.583 76.5903H10.0718V77.1824H204.583V76.5903Z" fill="#FDFEFF"/>
<path d="M204.583 83.2168H10.0718V83.8089H204.583V83.2168Z" fill="#FDFEFF"/>
<path d="M204.583 89.8433H10.0718V90.4354H204.583V89.8433Z" fill="#FDFEFF"/>
<path d="M10.1448 3.86133H9.55273V90.4026H10.1448V3.86133Z" fill="#FDFEFF"/>
<path d="M27.8423 3.86133H27.2502V90.4026H27.8423V3.86133Z" fill="#FDFEFF"/>
<path d="M45.5401 3.86133H44.948V90.4026H45.5401V3.86133Z" fill="#FDFEFF"/>
<path d="M63.2376 3.86133H62.6455V90.4026H63.2376V3.86133Z" fill="#FDFEFF"/>
<path d="M80.9351 3.86133H80.343V90.4026H80.9351V3.86133Z" fill="#FDFEFF"/>
<path d="M98.6246 3.86133H98.0325V90.4026H98.6246V3.86133Z" fill="#FDFEFF"/>
<path d="M116.322 3.86133H115.73V90.4026H116.322V3.86133Z" fill="#FDFEFF"/>
<path d="M134.02 3.86133H133.428V90.4026H134.02V3.86133Z" fill="#FDFEFF"/>
<path d="M151.717 3.86133H151.125V90.4026H151.717V3.86133Z" fill="#FDFEFF"/>
<path d="M169.415 3.86133H168.823V90.4026H169.415V3.86133Z" fill="#FDFEFF"/>
<path d="M187.112 3.86133H186.52V90.4026H187.112V3.86133Z" fill="#FDFEFF"/>
<path d="M204.802 3.86133H204.21V90.4026H204.802V3.86133Z" fill="#FDFEFF"/>
<path d="M23.3793 100.374H20.8783V100.025L22.1996 98.5572C22.3953 98.3353 22.5299 98.1552 22.6033 98.0172C22.6784 97.8773 22.716 97.7332 22.716 97.5846C22.716 97.3853 22.6557 97.2219 22.5351 97.0943C22.4145 96.9668 22.2537 96.903 22.0528 96.903C21.8116 96.903 21.6237 96.972 21.4891 97.1101C21.3563 97.2464 21.2899 97.4369 21.2899 97.6816H20.8048C20.8048 97.3303 20.9176 97.0463 21.143 96.8296C21.3702 96.6128 21.6735 96.5045 22.0528 96.5045C22.4075 96.5045 22.6881 96.598 22.8943 96.785C23.1005 96.9703 23.2037 97.2176 23.2037 97.5269C23.2037 97.9027 22.9642 98.3501 22.4853 98.8692L21.4629 99.9782H23.3793V100.374ZM26.2867 98.746C26.2867 99.314 26.1897 99.7361 25.9957 100.012C25.8017 100.288 25.4985 100.426 25.086 100.426C24.6788 100.426 24.3773 100.292 24.1815 100.023C23.9858 99.7518 23.8844 99.3481 23.8774 98.8115V98.164C23.8774 97.6029 23.9744 97.1861 24.1684 96.9135C24.3624 96.6408 24.6665 96.5045 25.0808 96.5045C25.4915 96.5045 25.7938 96.6364 25.9878 96.9003C26.1818 97.1625 26.2815 97.568 26.2867 98.1168V98.746ZM25.8017 98.0827C25.8017 97.672 25.744 97.3731 25.6287 97.1861C25.5133 96.9973 25.3307 96.903 25.0808 96.903C24.8326 96.903 24.6517 96.9965 24.5381 97.1835C24.4245 97.3705 24.3659 97.658 24.3624 98.046V98.822C24.3624 99.2345 24.4218 99.5395 24.5407 99.737C24.6613 99.9327 24.8431 100.031 25.086 100.031C25.3254 100.031 25.5028 99.938 25.6182 99.7527C25.7353 99.5674 25.7965 99.2756 25.8017 98.8771V98.0827ZM28.502 100.374H28.0144V97.1415L27.0365 97.5007V97.0603L28.426 96.5386H28.502V100.374ZM30.1458 98.4602L30.3398 96.5569H32.2955V97.0052H30.7514L30.636 98.046C30.823 97.9359 31.0354 97.8808 31.2731 97.8808C31.6209 97.8808 31.897 97.9962 32.1015 98.2269C32.306 98.4559 32.4082 98.7661 32.4082 99.1576C32.4082 99.5508 32.3016 99.8611 32.0884 100.088C31.8769 100.314 31.5807 100.426 31.1997 100.426C30.8624 100.426 30.5871 100.333 30.3739 100.146C30.1606 99.9589 30.0392 99.7003 30.0094 99.3699H30.4682C30.4979 99.5884 30.5757 99.7536 30.7016 99.8654C30.8274 99.9755 30.9934 100.031 31.1997 100.031C31.4251 100.031 31.6017 99.9537 31.7292 99.7999C31.8586 99.6461 31.9232 99.4337 31.9232 99.1628C31.9232 98.9077 31.8533 98.7032 31.7135 98.5494C31.5754 98.3938 31.391 98.316 31.1603 98.316C30.9489 98.316 30.7828 98.3623 30.6622 98.455L30.5338 98.5598L30.1458 98.4602Z" fill="#F5F7F6"/>
<path d="M41.7814 100.374H39.2804V100.025L40.6017 98.5572C40.7974 98.3353 40.932 98.1552 41.0054 98.0172C41.0805 97.8773 41.1181 97.7332 41.1181 97.5846C41.1181 97.3853 41.0578 97.2219 40.9372 97.0943C40.8166 96.9668 40.6558 96.903 40.4549 96.903C40.2137 96.903 40.0258 96.972 39.8912 97.1101C39.7584 97.2464 39.692 97.4369 39.692 97.6816H39.2069C39.2069 97.3303 39.3197 97.0463 39.5451 96.8296C39.7723 96.6128 40.0756 96.5045 40.4549 96.5045C40.8096 96.5045 41.0902 96.598 41.2964 96.785C41.5026 96.9703 41.6058 97.2176 41.6058 97.5269C41.6058 97.9027 41.3663 98.3501 40.8874 98.8692L39.865 99.9782H41.7814V100.374ZM44.6888 98.746C44.6888 99.314 44.5918 99.7361 44.3978 100.012C44.2038 100.288 43.9006 100.426 43.4881 100.426C43.0809 100.426 42.7794 100.292 42.5836 100.023C42.3879 99.7518 42.2865 99.3481 42.2795 98.8115V98.164C42.2795 97.6029 42.3765 97.1861 42.5705 96.9135C42.7645 96.6408 43.0686 96.5045 43.4828 96.5045C43.8936 96.5045 44.1959 96.6364 44.3899 96.9003C44.5839 97.1625 44.6836 97.568 44.6888 98.1168V98.746ZM44.2038 98.0827C44.2038 97.672 44.1461 97.3731 44.0308 97.1861C43.9154 96.9973 43.7328 96.903 43.4828 96.903C43.2347 96.903 43.0538 96.9965 42.9402 97.1835C42.8266 97.3705 42.768 97.658 42.7645 98.046V98.822C42.7645 99.2345 42.8239 99.5395 42.9428 99.737C43.0634 99.9327 43.2452 100.031 43.4881 100.031C43.7275 100.031 43.9049 99.938 44.0203 99.7527C44.1374 99.5674 44.1986 99.2756 44.2038 98.8771V98.0827ZM46.9041 100.374H46.4165V97.1415L45.4386 97.5007V97.0603L46.8281 96.5386H46.9041V100.374ZM50.2283 96.5543V96.9659H50.1392C49.7617 96.9729 49.4611 97.0847 49.2374 97.3015C49.0136 97.5182 48.8843 97.8232 48.8494 98.2164C49.0503 97.9857 49.3247 97.8704 49.6726 97.8704C50.0046 97.8704 50.2694 97.9875 50.4669 98.2217C50.6662 98.4559 50.7658 98.7582 50.7658 99.1287C50.7658 99.522 50.6583 99.8366 50.4433 100.073C50.2301 100.308 49.9435 100.426 49.5834 100.426C49.2181 100.426 48.9219 100.287 48.6947 100.007C48.4675 99.7256 48.3539 99.3638 48.3539 98.9216V98.7355C48.3539 98.0329 48.5033 97.4963 48.8022 97.1258C49.1028 96.7535 49.5493 96.563 50.1418 96.5543H50.2283ZM49.5913 98.2741C49.4252 98.2741 49.2723 98.3239 49.1325 98.4235C48.9927 98.5231 48.8957 98.6481 48.8415 98.7984V98.9767C48.8415 99.2913 48.9123 99.5447 49.0538 99.737C49.1954 99.9292 49.3719 100.025 49.5834 100.025C49.8019 100.025 49.9732 99.9449 50.0973 99.7842C50.2231 99.6234 50.286 99.4128 50.286 99.1523C50.286 98.8902 50.2222 98.6787 50.0946 98.5179C49.9688 98.3554 49.801 98.2741 49.5913 98.2741Z" fill="#F5F7F6"/>
<path d="M59.9543 100.374H57.4532V100.025L58.7745 98.5572C58.9703 98.3353 59.1048 98.1552 59.1782 98.0172C59.2534 97.8773 59.291 97.7332 59.291 97.5846C59.291 97.3853 59.2307 97.2219 59.1101 97.0943C58.9895 96.9668 58.8287 96.903 58.6277 96.903C58.3865 96.903 58.1986 96.972 58.064 97.1101C57.9312 97.2464 57.8648 97.4369 57.8648 97.6816H57.3798C57.3798 97.3303 57.4925 97.0463 57.718 96.8296C57.9452 96.6128 58.2484 96.5045 58.6277 96.5045C58.9825 96.5045 59.263 96.598 59.4692 96.785C59.6755 96.9703 59.7786 97.2176 59.7786 97.5269C59.7786 97.9027 59.5392 98.3501 59.0603 98.8692L58.0378 99.9782H59.9543V100.374ZM62.8617 98.746C62.8617 99.314 62.7647 99.7361 62.5707 100.012C62.3767 100.288 62.0734 100.426 61.6609 100.426C61.2537 100.426 60.9522 100.292 60.7565 100.023C60.5607 99.7518 60.4594 99.3481 60.4524 98.8115V98.164C60.4524 97.6029 60.5494 97.1861 60.7434 96.9135C60.9374 96.6408 61.2415 96.5045 61.6557 96.5045C62.0664 96.5045 62.3688 96.6364 62.5628 96.9003C62.7568 97.1625 62.8564 97.568 62.8617 98.1168V98.746ZM62.3767 98.0827C62.3767 97.672 62.319 97.3731 62.2036 97.1861C62.0883 96.9973 61.9056 96.903 61.6557 96.903C61.4075 96.903 61.2266 96.9965 61.113 97.1835C60.9994 97.3705 60.9409 97.658 60.9374 98.046V98.822C60.9374 99.2345 60.9968 99.5395 61.1156 99.737C61.2362 99.9327 61.418 100.031 61.6609 100.031C61.9004 100.031 62.0778 99.938 62.1931 99.7527C62.3102 99.5674 62.3714 99.2756 62.3767 98.8771V98.0827ZM65.0769 100.374H64.5893V97.1415L63.6114 97.5007V97.0603L65.0009 96.5386H65.0769V100.374ZM68.9622 96.8296L67.3814 100.374H66.8728L68.4484 96.9554H66.3825V96.5569H68.9622V96.8296Z" fill="#F5F7F6"/>
<path d="M77.1308 100.374H74.6297V100.025L75.951 98.5572C76.1468 98.3353 76.2814 98.1552 76.3548 98.0172C76.4299 97.8773 76.4675 97.7332 76.4675 97.5846C76.4675 97.3853 76.4072 97.2219 76.2866 97.0943C76.166 96.9668 76.0052 96.903 75.8042 96.903C75.563 96.903 75.3751 96.972 75.2406 97.1101C75.1077 97.2464 75.0413 97.4369 75.0413 97.6816H74.5563C74.5563 97.3303 74.669 97.0463 74.8945 96.8296C75.1217 96.6128 75.425 96.5045 75.8042 96.5045C76.159 96.5045 76.4395 96.598 76.6458 96.785C76.852 96.9703 76.9551 97.2176 76.9551 97.5269C76.9551 97.9027 76.7157 98.3501 76.2368 98.8692L75.2143 99.9782H77.1308V100.374ZM80.0382 98.746C80.0382 99.314 79.9412 99.7361 79.7472 100.012C79.5532 100.288 79.2499 100.426 78.8375 100.426C78.4302 100.426 78.1287 100.292 77.933 100.023C77.7372 99.7518 77.6359 99.3481 77.6289 98.8115V98.164C77.6289 97.6029 77.7259 97.1861 77.9199 96.9135C78.1139 96.6408 78.418 96.5045 78.8322 96.5045C79.2429 96.5045 79.5453 96.6364 79.7393 96.9003C79.9333 97.1625 80.0329 97.568 80.0382 98.1168V98.746ZM79.5532 98.0827C79.5532 97.672 79.4955 97.3731 79.3801 97.1861C79.2648 96.9973 79.0821 96.903 78.8322 96.903C78.584 96.903 78.4031 96.9965 78.2895 97.1835C78.1759 97.3705 78.1174 97.658 78.1139 98.046V98.822C78.1139 99.2345 78.1733 99.5395 78.2922 99.737C78.4128 99.9327 78.5945 100.031 78.8375 100.031C79.0769 100.031 79.2543 99.938 79.3697 99.7527C79.4868 99.5674 79.5479 99.2756 79.5532 98.8771V98.0827ZM82.2535 100.374H81.7658V97.1415L80.788 97.5007V97.0603L82.1774 96.5386H82.2535V100.374ZM85.9893 97.5531C85.9893 97.7436 85.9386 97.9132 85.8372 98.0617C85.7376 98.2103 85.6022 98.3265 85.4309 98.4104C85.6301 98.4961 85.7874 98.621 85.9028 98.7853C86.0199 98.9496 86.0784 99.1357 86.0784 99.3437C86.0784 99.674 85.9666 99.9371 85.7429 100.133C85.5209 100.329 85.2282 100.426 84.8646 100.426C84.4976 100.426 84.2031 100.329 83.9811 100.133C83.7609 99.9353 83.6508 99.6723 83.6508 99.3437C83.6508 99.1375 83.7067 98.9513 83.8186 98.7853C83.9322 98.6193 84.0886 98.4934 84.2879 98.4078C84.1183 98.3239 83.9846 98.2077 83.8867 98.0591C83.7889 97.9106 83.7399 97.7419 83.7399 97.5531C83.7399 97.2315 83.8431 96.9764 84.0493 96.7876C84.2555 96.5989 84.5273 96.5045 84.8646 96.5045C85.2002 96.5045 85.4711 96.5989 85.6773 96.7876C85.8853 96.9764 85.9893 97.2315 85.9893 97.5531ZM85.5934 99.3332C85.5934 99.12 85.5253 98.9461 85.3889 98.8115C85.2544 98.6769 85.0778 98.6097 84.8594 98.6097C84.6409 98.6097 84.4653 98.6761 84.3324 98.8089C84.2013 98.9417 84.1358 99.1165 84.1358 99.3332C84.1358 99.55 84.1996 99.7204 84.3272 99.8445C84.4565 99.9685 84.6357 100.031 84.8646 100.031C85.0918 100.031 85.2701 99.9685 85.3994 99.8445C85.5288 99.7186 85.5934 99.5482 85.5934 99.3332ZM84.8646 96.903C84.6741 96.903 84.5194 96.9624 84.4006 97.0812C84.2835 97.1983 84.2249 97.3583 84.2249 97.561C84.2249 97.755 84.2826 97.9123 84.398 98.0329C84.5151 98.1517 84.6706 98.2112 84.8646 98.2112C85.0586 98.2112 85.2133 98.1517 85.3287 98.0329C85.4458 97.9123 85.5043 97.755 85.5043 97.561C85.5043 97.367 85.444 97.2088 85.3234 97.0865C85.2028 96.9641 85.0499 96.903 84.8646 96.903Z" fill="#F5F7F6"/>
<path d="M94.998 100.374H92.4969V100.025L93.8182 98.5572C94.014 98.3353 94.1485 98.1552 94.2219 98.0172C94.2971 97.8773 94.3347 97.7332 94.3347 97.5846C94.3347 97.3853 94.2744 97.2219 94.1538 97.0943C94.0332 96.9668 93.8724 96.903 93.6714 96.903C93.4302 96.903 93.2423 96.972 93.1077 97.1101C92.9749 97.2464 92.9085 97.4369 92.9085 97.6816H92.4235C92.4235 97.3303 92.5362 97.0463 92.7617 96.8296C92.9889 96.6128 93.2921 96.5045 93.6714 96.5045C94.0262 96.5045 94.3067 96.598 94.513 96.785C94.7192 96.9703 94.8223 97.2176 94.8223 97.5269C94.8223 97.9027 94.5829 98.3501 94.104 98.8692L93.0815 99.9782H94.998V100.374ZM97.9054 98.746C97.9054 99.314 97.8084 99.7361 97.6144 100.012C97.4204 100.288 97.1171 100.426 96.7046 100.426C96.2974 100.426 95.9959 100.292 95.8002 100.023C95.6044 99.7518 95.5031 99.3481 95.4961 98.8115V98.164C95.4961 97.6029 95.5931 97.1861 95.7871 96.9135C95.9811 96.6408 96.2852 96.5045 96.6994 96.5045C97.1101 96.5045 97.4125 96.6364 97.6065 96.9003C97.8005 97.1625 97.9001 97.568 97.9054 98.1168V98.746ZM97.4204 98.0827C97.4204 97.672 97.3627 97.3731 97.2473 97.1861C97.132 96.9973 96.9493 96.903 96.6994 96.903C96.4512 96.903 96.2703 96.9965 96.1567 97.1835C96.0431 97.3705 95.9846 97.658 95.9811 98.046V98.822C95.9811 99.2345 96.0405 99.5395 96.1593 99.737C96.2799 99.9327 96.4617 100.031 96.7046 100.031C96.9441 100.031 97.1215 99.938 97.2368 99.7527C97.3539 99.5674 97.4151 99.2756 97.4204 98.8771V98.0827ZM100.121 100.374H99.633V97.1415L98.6551 97.5007V97.0603L100.045 96.5386H100.121V100.374ZM103.4 98.6962C103.299 98.8168 103.177 98.9138 103.036 98.9872C102.896 99.0606 102.742 99.0973 102.575 99.0973C102.354 99.0973 102.162 99.0431 101.998 98.9347C101.835 98.8264 101.709 98.6743 101.62 98.4786C101.531 98.2811 101.487 98.0635 101.487 97.8258C101.487 97.5706 101.535 97.3408 101.631 97.1363C101.729 96.9318 101.867 96.7754 102.045 96.667C102.223 96.5587 102.431 96.5045 102.669 96.5045C103.046 96.5045 103.344 96.646 103.56 96.9292C103.779 97.2106 103.888 97.5951 103.888 98.0827V98.2243C103.888 98.9671 103.741 99.5098 103.448 99.8523C103.154 100.193 102.711 100.368 102.118 100.377H102.024V99.9677H102.126C102.526 99.9607 102.834 99.8567 103.049 99.6557C103.264 99.453 103.381 99.1331 103.4 98.6962ZM102.653 98.6962C102.816 98.6962 102.965 98.6464 103.101 98.5467C103.24 98.4471 103.34 98.3239 103.403 98.1771V97.9831C103.403 97.665 103.334 97.4063 103.196 97.2071C103.058 97.0078 102.883 96.9082 102.672 96.9082C102.458 96.9082 102.287 96.9904 102.158 97.1546C102.028 97.3172 101.964 97.5322 101.964 97.7996C101.964 98.06 102.026 98.275 102.15 98.4445C102.276 98.6123 102.443 98.6962 102.653 98.6962Z" fill="#F5F7F6"/>
<path d="M113.401 100.374H110.9V100.025L112.221 98.5572C112.417 98.3353 112.552 98.1552 112.625 98.0172C112.7 97.8773 112.738 97.7332 112.738 97.5846C112.738 97.3853 112.677 97.2219 112.557 97.0943C112.436 96.9668 112.275 96.903 112.074 96.903C111.833 96.903 111.645 96.972 111.511 97.1101C111.378 97.2464 111.312 97.4369 111.312 97.6816H110.827C110.827 97.3303 110.939 97.0463 111.165 96.8296C111.392 96.6128 111.695 96.5045 112.074 96.5045C112.429 96.5045 112.71 96.598 112.916 96.785C113.122 96.9703 113.225 97.2176 113.225 97.5269C113.225 97.9027 112.986 98.3501 112.507 98.8692L111.485 99.9782H113.401V100.374ZM116.308 98.746C116.308 99.314 116.211 99.7361 116.017 100.012C115.823 100.288 115.52 100.426 115.108 100.426C114.7 100.426 114.399 100.292 114.203 100.023C114.008 99.7518 113.906 99.3481 113.899 98.8115V98.164C113.899 97.6029 113.996 97.1861 114.19 96.9135C114.384 96.6408 114.688 96.5045 115.102 96.5045C115.513 96.5045 115.816 96.6364 116.01 96.9003C116.204 97.1625 116.303 97.568 116.308 98.1168V98.746ZM115.823 98.0827C115.823 97.672 115.766 97.3731 115.65 97.1861C115.535 96.9973 115.352 96.903 115.102 96.903C114.854 96.903 114.673 96.9965 114.56 97.1835C114.446 97.3705 114.388 97.658 114.384 98.046V98.822C114.384 99.2345 114.444 99.5395 114.562 99.737C114.683 99.9327 114.865 100.031 115.108 100.031C115.347 100.031 115.525 99.938 115.64 99.7527C115.757 99.5674 115.818 99.2756 115.823 98.8771V98.0827ZM119.431 100.374H116.93V100.025L118.251 98.5572C118.447 98.3353 118.581 98.1552 118.655 98.0172C118.73 97.8773 118.768 97.7332 118.768 97.5846C118.768 97.3853 118.707 97.2219 118.587 97.0943C118.466 96.9668 118.305 96.903 118.104 96.903C117.863 96.903 117.675 96.972 117.541 97.1101C117.408 97.2464 117.341 97.4369 117.341 97.6816H116.856C116.856 97.3303 116.969 97.0463 117.195 96.8296C117.422 96.6128 117.725 96.5045 118.104 96.5045C118.459 96.5045 118.74 96.598 118.946 96.785C119.152 96.9703 119.255 97.2176 119.255 97.5269C119.255 97.9027 119.016 98.3501 118.537 98.8692L117.514 99.9782H119.431V100.374ZM122.338 98.746C122.338 99.314 122.241 99.7361 122.047 100.012C121.853 100.288 121.55 100.426 121.138 100.426C120.73 100.426 120.429 100.292 120.233 100.023C120.037 99.7518 119.936 99.3481 119.929 98.8115V98.164C119.929 97.6029 120.026 97.1861 120.22 96.9135C120.414 96.6408 120.718 96.5045 121.132 96.5045C121.543 96.5045 121.845 96.6364 122.039 96.9003C122.233 97.1625 122.333 97.568 122.338 98.1168V98.746ZM121.853 98.0827C121.853 97.672 121.796 97.3731 121.68 97.1861C121.565 96.9973 121.382 96.903 121.132 96.903C120.884 96.903 120.703 96.9965 120.59 97.1835C120.476 97.3705 120.417 97.658 120.414 98.046V98.822C120.414 99.2345 120.473 99.5395 120.592 99.737C120.713 99.9327 120.895 100.031 121.138 100.031C121.377 100.031 121.554 99.938 121.67 99.7527C121.787 99.5674 121.848 99.2756 121.853 98.8771V98.0827Z" fill="#F5F7F6"/>
<path d="M131.65 100.374H129.149V100.025L130.47 98.5572C130.666 98.3353 130.801 98.1552 130.874 98.0172C130.949 97.8773 130.987 97.7332 130.987 97.5846C130.987 97.3853 130.926 97.2219 130.806 97.0943C130.685 96.9668 130.524 96.903 130.324 96.903C130.082 96.903 129.894 96.972 129.76 97.1101C129.627 97.2464 129.561 97.4369 129.561 97.6816H129.076C129.076 97.3303 129.188 97.0463 129.414 96.8296C129.641 96.6128 129.944 96.5045 130.324 96.5045C130.678 96.5045 130.959 96.598 131.165 96.785C131.371 96.9703 131.474 97.2176 131.474 97.5269C131.474 97.9027 131.235 98.3501 130.756 98.8692L129.734 99.9782H131.65V100.374ZM134.557 98.746C134.557 99.314 134.46 99.7361 134.266 100.012C134.072 100.288 133.769 100.426 133.357 100.426C132.95 100.426 132.648 100.292 132.452 100.023C132.257 99.7518 132.155 99.3481 132.148 98.8115V98.164C132.148 97.6029 132.245 97.1861 132.439 96.9135C132.633 96.6408 132.937 96.5045 133.352 96.5045C133.762 96.5045 134.065 96.6364 134.259 96.9003C134.453 97.1625 134.552 97.568 134.557 98.1168V98.746ZM134.072 98.0827C134.072 97.672 134.015 97.3731 133.899 97.1861C133.784 96.9973 133.601 96.903 133.352 96.903C133.103 96.903 132.922 96.9965 132.809 97.1835C132.695 97.3705 132.637 97.658 132.633 98.046V98.822C132.633 99.2345 132.693 99.5395 132.811 99.737C132.932 99.9327 133.114 100.031 133.357 100.031C133.596 100.031 133.774 99.938 133.889 99.7527C134.006 99.5674 134.067 99.2756 134.072 98.8771V98.0827ZM137.68 100.374H135.179V100.025L136.5 98.5572C136.696 98.3353 136.83 98.1552 136.904 98.0172C136.979 97.8773 137.017 97.7332 137.017 97.5846C137.017 97.3853 136.956 97.2219 136.836 97.0943C136.715 96.9668 136.554 96.903 136.353 96.903C136.112 96.903 135.924 96.972 135.79 97.1101C135.657 97.2464 135.59 97.4369 135.59 97.6816H135.105C135.105 97.3303 135.218 97.0463 135.444 96.8296C135.671 96.6128 135.974 96.5045 136.353 96.5045C136.708 96.5045 136.989 96.598 137.195 96.785C137.401 96.9703 137.504 97.2176 137.504 97.5269C137.504 97.9027 137.265 98.3501 136.786 98.8692L135.763 99.9782H137.68V100.374ZM139.788 100.374H139.3V97.1415L138.322 97.5007V97.0603L139.712 96.5386H139.788V100.374Z" fill="#F5F7F6"/>
<path d="M148.942 100.374H146.441V100.025L147.763 98.5572C147.958 98.3353 148.093 98.1552 148.166 98.0172C148.241 97.8773 148.279 97.7332 148.279 97.5846C148.279 97.3853 148.219 97.2219 148.098 97.0943C147.978 96.9668 147.817 96.903 147.616 96.903C147.375 96.903 147.187 96.972 147.052 97.1101C146.919 97.2464 146.853 97.4369 146.853 97.6816H146.368C146.368 97.3303 146.481 97.0463 146.706 96.8296C146.933 96.6128 147.236 96.5045 147.616 96.5045C147.971 96.5045 148.251 96.598 148.457 96.785C148.664 96.9703 148.767 97.2176 148.767 97.5269C148.767 97.9027 148.527 98.3501 148.048 98.8692L147.026 99.9782H148.942V100.374ZM151.85 98.746C151.85 99.314 151.753 99.7361 151.559 100.012C151.365 100.288 151.061 100.426 150.649 100.426C150.242 100.426 149.94 100.292 149.745 100.023C149.549 99.7518 149.447 99.3481 149.44 98.8115V98.164C149.44 97.6029 149.537 97.1861 149.731 96.9135C149.925 96.6408 150.23 96.5045 150.644 96.5045C151.054 96.5045 151.357 96.6364 151.551 96.9003C151.745 97.1625 151.844 97.568 151.85 98.1168V98.746ZM151.365 98.0827C151.365 97.672 151.307 97.3731 151.192 97.1861C151.076 96.9973 150.894 96.903 150.644 96.903C150.396 96.903 150.215 96.9965 150.101 97.1835C149.987 97.3705 149.929 97.658 149.925 98.046V98.822C149.925 99.2345 149.985 99.5395 150.104 99.737C150.224 99.9327 150.406 100.031 150.649 100.031C150.888 100.031 151.066 99.938 151.181 99.7527C151.298 99.5674 151.359 99.2756 151.365 98.8771V98.0827ZM154.972 100.374H152.471V100.025L153.792 98.5572C153.988 98.3353 154.123 98.1552 154.196 98.0172C154.271 97.8773 154.309 97.7332 154.309 97.5846C154.309 97.3853 154.248 97.2219 154.128 97.0943C154.007 96.9668 153.847 96.903 153.646 96.903C153.404 96.903 153.216 96.972 153.082 97.1101C152.949 97.2464 152.883 97.4369 152.883 97.6816H152.398C152.398 97.3303 152.51 97.0463 152.736 96.8296C152.963 96.6128 153.266 96.5045 153.646 96.5045C154 96.5045 154.281 96.598 154.487 96.785C154.693 96.9703 154.796 97.2176 154.796 97.5269C154.796 97.9027 154.557 98.3501 154.078 98.8692L153.056 99.9782H154.972V100.374ZM157.987 100.374H155.486V100.025L156.807 98.5572C157.003 98.3353 157.138 98.1552 157.211 98.0172C157.286 97.8773 157.324 97.7332 157.324 97.5846C157.324 97.3853 157.263 97.2219 157.143 97.0943C157.022 96.9668 156.861 96.903 156.66 96.903C156.419 96.903 156.231 96.972 156.097 97.1101C155.964 97.2464 155.898 97.4369 155.898 97.6816H155.413C155.413 97.3303 155.525 97.0463 155.751 96.8296C155.978 96.6128 156.281 96.5045 156.66 96.5045C157.015 96.5045 157.296 96.598 157.502 96.785C157.708 96.9703 157.811 97.2176 157.811 97.5269C157.811 97.9027 157.572 98.3501 157.093 98.8692L156.071 99.9782H157.987V100.374Z" fill="#F5F7F6"/>
<path d="M166.273 100.374H163.772V100.025L165.093 98.5572C165.289 98.3353 165.423 98.1552 165.497 98.0172C165.572 97.8773 165.609 97.7332 165.609 97.5846C165.609 97.3853 165.549 97.2219 165.428 97.0943C165.308 96.9668 165.147 96.903 164.946 96.903C164.705 96.903 164.517 96.972 164.382 97.1101C164.25 97.2464 164.183 97.4369 164.183 97.6816H163.698C163.698 97.3303 163.811 97.0463 164.036 96.8296C164.264 96.6128 164.567 96.5045 164.946 96.5045C165.301 96.5045 165.581 96.598 165.788 96.785C165.994 96.9703 166.097 97.2176 166.097 97.5269C166.097 97.9027 165.858 98.3501 165.379 98.8692L164.356 99.9782H166.273V100.374ZM169.18 98.746C169.18 99.314 169.083 99.7361 168.889 100.012C168.695 100.288 168.392 100.426 167.979 100.426C167.572 100.426 167.271 100.292 167.075 100.023C166.879 99.7518 166.778 99.3481 166.771 98.8115V98.164C166.771 97.6029 166.868 97.1861 167.062 96.9135C167.256 96.6408 167.56 96.5045 167.974 96.5045C168.385 96.5045 168.687 96.6364 168.881 96.9003C169.075 97.1625 169.175 97.568 169.18 98.1168V98.746ZM168.695 98.0827C168.695 97.672 168.637 97.3731 168.522 97.1861C168.407 96.9973 168.224 96.903 167.974 96.903C167.726 96.903 167.545 96.9965 167.431 97.1835C167.318 97.3705 167.259 97.658 167.256 98.046V98.822C167.256 99.2345 167.315 99.5395 167.434 99.737C167.555 99.9327 167.736 100.031 167.979 100.031C168.219 100.031 168.396 99.938 168.511 99.7527C168.629 99.5674 168.69 99.2756 168.695 98.8771V98.0827ZM172.302 100.374H169.801V100.025L171.123 98.5572C171.318 98.3353 171.453 98.1552 171.526 98.0172C171.602 97.8773 171.639 97.7332 171.639 97.5846C171.639 97.3853 171.579 97.2219 171.458 97.0943C171.338 96.9668 171.177 96.903 170.976 96.903C170.735 96.903 170.547 96.972 170.412 97.1101C170.279 97.2464 170.213 97.4369 170.213 97.6816H169.728C169.728 97.3303 169.841 97.0463 170.066 96.8296C170.293 96.6128 170.597 96.5045 170.976 96.5045C171.331 96.5045 171.611 96.598 171.817 96.785C172.024 96.9703 172.127 97.2176 172.127 97.5269C172.127 97.9027 171.887 98.3501 171.408 98.8692L170.386 99.9782H172.302V100.374ZM173.521 98.2295H173.886C174.115 98.226 174.295 98.1657 174.426 98.0486C174.557 97.9315 174.623 97.7734 174.623 97.5741C174.623 97.1267 174.4 96.903 173.954 96.903C173.744 96.903 173.577 96.9633 173.451 97.0839C173.327 97.2027 173.265 97.3609 173.265 97.5584H172.78C172.78 97.256 172.89 97.0052 173.11 96.806C173.332 96.605 173.613 96.5045 173.954 96.5045C174.314 96.5045 174.596 96.5997 174.801 96.7902C175.005 96.9807 175.108 97.2455 175.108 97.5846C175.108 97.7506 175.053 97.9114 174.945 98.067C174.838 98.2225 174.692 98.3388 174.507 98.4157C174.717 98.4821 174.879 98.5922 174.992 98.746C175.108 98.8998 175.165 99.0877 175.165 99.3096C175.165 99.6522 175.053 99.924 174.83 100.125C174.606 100.326 174.315 100.426 173.957 100.426C173.598 100.426 173.306 100.329 173.081 100.135C172.857 99.9415 172.745 99.6854 172.745 99.3673H173.233C173.233 99.5683 173.299 99.7291 173.43 99.8497C173.561 99.9703 173.736 100.031 173.957 100.031C174.191 100.031 174.37 99.9694 174.494 99.8471C174.618 99.7247 174.68 99.5491 174.68 99.3201C174.68 99.0982 174.612 98.9277 174.476 98.8089C174.339 98.6901 174.143 98.6289 173.886 98.6254H173.521V98.2295Z" fill="#F5F7F6"/>
<path d="M184.101 100.374H181.6V100.025L182.921 98.5572C183.117 98.3353 183.252 98.1552 183.325 98.0172C183.4 97.8773 183.438 97.7332 183.438 97.5846C183.438 97.3853 183.378 97.2219 183.257 97.0943C183.136 96.9668 182.976 96.903 182.775 96.903C182.533 96.903 182.346 96.972 182.211 97.1101C182.078 97.2464 182.012 97.4369 182.012 97.6816H181.527C181.527 97.3303 181.64 97.0463 181.865 96.8296C182.092 96.6128 182.395 96.5045 182.775 96.5045C183.129 96.5045 183.41 96.598 183.616 96.785C183.822 96.9703 183.926 97.2176 183.926 97.5269C183.926 97.9027 183.686 98.3501 183.207 98.8692L182.185 99.9782H184.101V100.374ZM187.009 98.746C187.009 99.314 186.912 99.7361 186.718 100.012C186.524 100.288 186.22 100.426 185.808 100.426C185.401 100.426 185.099 100.292 184.903 100.023C184.708 99.7518 184.606 99.3481 184.599 98.8115V98.164C184.599 97.6029 184.696 97.1861 184.89 96.9135C185.084 96.6408 185.388 96.5045 185.803 96.5045C186.213 96.5045 186.516 96.6364 186.71 96.9003C186.904 97.1625 187.003 97.568 187.009 98.1168V98.746ZM186.524 98.0827C186.524 97.672 186.466 97.3731 186.351 97.1861C186.235 96.9973 186.053 96.903 185.803 96.903C185.554 96.903 185.374 96.9965 185.26 97.1835C185.146 97.3705 185.088 97.658 185.084 98.046V98.822C185.084 99.2345 185.144 99.5395 185.263 99.737C185.383 99.9327 185.565 100.031 185.808 100.031C186.047 100.031 186.225 99.938 186.34 99.7527C186.457 99.5674 186.518 99.2756 186.524 98.8771V98.0827ZM190.131 100.374H187.63V100.025L188.951 98.5572C189.147 98.3353 189.282 98.1552 189.355 98.0172C189.43 97.8773 189.468 97.7332 189.468 97.5846C189.468 97.3853 189.407 97.2219 189.287 97.0943C189.166 96.9668 189.005 96.903 188.804 96.903C188.563 96.903 188.375 96.972 188.241 97.1101C188.108 97.2464 188.042 97.4369 188.042 97.6816H187.557C187.557 97.3303 187.669 97.0463 187.895 96.8296C188.122 96.6128 188.425 96.5045 188.804 96.5045C189.159 96.5045 189.44 96.598 189.646 96.785C189.852 96.9703 189.955 97.2176 189.955 97.5269C189.955 97.9027 189.716 98.3501 189.237 98.8692L188.215 99.9782H190.131V100.374ZM192.692 99.092H193.222V99.4879H192.692V100.374H192.205V99.4879H190.467V99.2021L192.176 96.5569H192.692V99.092ZM191.017 99.092H192.205V97.2202L192.147 97.3251L191.017 99.092Z" fill="#F5F7F6"/>
<path d="M7.28353 98.9647C7.28353 99.5328 7.18653 99.9548 6.99253 100.231C6.79853 100.507 6.49529 100.645 6.08282 100.645C5.67559 100.645 5.3741 100.511 5.17835 100.241C4.9826 99.9706 4.88123 99.5668 4.87424 99.0303V98.3827C4.87424 97.8217 4.97124 97.4049 5.16525 97.1322C5.35925 96.8596 5.66336 96.7232 6.07758 96.7232C6.4883 96.7232 6.79067 96.8552 6.98467 97.1191C7.17867 97.3813 7.27829 97.7867 7.28353 98.3355V98.9647ZM6.79853 98.3015C6.79853 97.8907 6.74085 97.5919 6.6255 97.4049C6.51015 97.2161 6.32751 97.1217 6.07758 97.1217C5.8294 97.1217 5.6485 97.2152 5.5349 97.4022C5.42129 97.5892 5.36274 97.8767 5.35925 98.2648V99.0408C5.35925 99.4532 5.41867 99.7582 5.53752 99.9557C5.65811 100.151 5.83988 100.249 6.08282 100.249C6.32226 100.249 6.49966 100.157 6.61501 99.9714C6.73212 99.7862 6.79329 99.4943 6.79853 99.0958V98.3015Z" fill="#F5F7F6"/>
<path d="M2.50542 84.6787H2.01779V81.4462L1.03992 81.8054V81.365L2.42939 80.8432H2.50542V84.6787ZM6.31991 83.0507C6.31991 83.6187 6.22291 84.0408 6.02891 84.3169C5.83491 84.5931 5.53167 84.7311 5.1192 84.7311C4.71197 84.7311 4.41048 84.5966 4.21473 84.3274C4.01898 84.0565 3.91761 83.6528 3.91062 83.1162V82.4687C3.91062 81.9076 4.00762 81.4908 4.20162 81.2181C4.39562 80.9455 4.69973 80.8092 5.11395 80.8092C5.52468 80.8092 5.82704 80.9411 6.02104 81.205C6.21504 81.4672 6.31467 81.8727 6.31991 82.4215V83.0507ZM5.83491 82.3874C5.83491 81.9767 5.77723 81.6778 5.66188 81.4908C5.54652 81.302 5.36388 81.2077 5.11395 81.2077C4.86577 81.2077 4.68488 81.3012 4.57127 81.4882C4.45767 81.6752 4.39912 81.9627 4.39562 82.3507V83.1267C4.39562 83.5392 4.45505 83.8442 4.57389 84.0417C4.69449 84.2374 4.87626 84.3353 5.1192 84.3353C5.35864 84.3353 5.53604 84.2426 5.65139 84.0574C5.76849 83.8721 5.82966 83.5802 5.83491 83.1818V82.3874Z" fill="#F5F7F6"/>
<path d="M3.41251 71.5171H0.911457V71.1684L2.23277 69.7003C2.42852 69.4783 2.56309 69.2983 2.6365 69.1602C2.71165 69.0204 2.74923 68.8762 2.74923 68.7277C2.74923 68.5284 2.68893 68.365 2.56834 68.2374C2.44774 68.1098 2.28695 68.046 2.08595 68.046C1.84476 68.046 1.65688 68.1151 1.5223 68.2531C1.38947 68.3895 1.32306 68.58 1.32306 68.8247H0.838051C0.838051 68.4734 0.950782 68.1893 1.17624 67.9726C1.40345 67.7559 1.70669 67.6475 2.08595 67.6475C2.44075 67.6475 2.72127 67.741 2.9275 67.9281C3.13374 68.1133 3.23686 68.3606 3.23686 68.67C3.23686 69.0458 2.99741 69.4932 2.51853 70.0123L1.49608 71.1212H3.41251V71.5171ZM6.31991 69.889C6.31991 70.4571 6.22291 70.8792 6.02891 71.1553C5.83491 71.4314 5.53167 71.5695 5.1192 71.5695C4.71197 71.5695 4.41048 71.4349 4.21473 71.1658C4.01898 70.8949 3.91761 70.4912 3.91062 69.9546V69.307C3.91062 68.746 4.00762 68.3292 4.20162 68.0565C4.39562 67.7839 4.69973 67.6475 5.11395 67.6475C5.52468 67.6475 5.82704 67.7795 6.02104 68.0434C6.21504 68.3056 6.31467 68.7111 6.31991 69.2599V69.889ZM5.83491 69.2258C5.83491 68.815 5.77723 68.5162 5.66188 68.3292C5.54652 68.1404 5.36388 68.046 5.11395 68.046C4.86577 68.046 4.68488 68.1395 4.57127 68.3265C4.45767 68.5136 4.39912 68.8011 4.39562 69.1891V69.9651C4.39562 70.3775 4.45505 70.6825 4.57389 70.88C4.69449 71.0758 4.87626 71.1737 5.1192 71.1737C5.35864 71.1737 5.53604 71.081 5.65139 70.8958C5.76849 70.7105 5.82966 70.4186 5.83491 70.0201V69.2258Z" fill="#F5F7F6"/>
<path d="M1.61668 55.753H1.98109C2.21005 55.7495 2.39006 55.6892 2.52115 55.5721C2.65223 55.455 2.71777 55.2968 2.71777 55.0975C2.71777 54.6501 2.49493 54.4264 2.04925 54.4264C1.83952 54.4264 1.67173 54.4867 1.5459 54.6073C1.4218 54.7261 1.35976 54.8843 1.35976 55.0818H0.874754C0.874754 54.7795 0.984863 54.5286 1.20508 54.3294C1.42705 54.1284 1.70844 54.0279 2.04925 54.0279C2.40929 54.0279 2.69155 54.1232 2.89604 54.3137C3.10053 54.5042 3.20277 54.769 3.20277 55.108C3.20277 55.2741 3.14859 55.4349 3.04023 55.5904C2.93362 55.746 2.78768 55.8622 2.60242 55.9391C2.81215 56.0055 2.97382 56.1156 3.08742 56.2694C3.20277 56.4232 3.26045 56.6111 3.26045 56.8331C3.26045 57.1756 3.14859 57.4474 2.92488 57.6484C2.70117 57.8494 2.41016 57.9499 2.05187 57.9499C1.69358 57.9499 1.4017 57.8529 1.17624 57.6589C0.95253 57.4649 0.840673 57.2088 0.840673 56.8907H1.3283C1.3283 57.0917 1.39384 57.2525 1.52492 57.3731C1.656 57.4937 1.83165 57.554 2.05187 57.554C2.28607 57.554 2.46522 57.4929 2.58931 57.3705C2.7134 57.2482 2.77545 57.0725 2.77545 56.8436C2.77545 56.6216 2.70728 56.4512 2.57096 56.3323C2.43463 56.2135 2.23801 56.1523 1.98109 56.1488H1.61668V55.753ZM6.31991 56.2694C6.31991 56.8374 6.22291 57.2595 6.02891 57.5357C5.83491 57.8118 5.53167 57.9499 5.1192 57.9499C4.71197 57.9499 4.41048 57.8153 4.21473 57.5462C4.01898 57.2753 3.91761 56.8715 3.91062 56.335V55.6874C3.91062 55.1264 4.00762 54.7095 4.20162 54.4369C4.39562 54.1642 4.69973 54.0279 5.11395 54.0279C5.52468 54.0279 5.82704 54.1599 6.02104 54.4238C6.21504 54.6859 6.31467 55.0914 6.31991 55.6402V56.2694ZM5.83491 55.6061C5.83491 55.1954 5.77723 54.8966 5.66188 54.7095C5.54652 54.5208 5.36388 54.4264 5.11395 54.4264C4.86577 54.4264 4.68488 54.5199 4.57127 54.7069C4.45767 54.8939 4.39912 55.1814 4.39562 55.5694V56.3454C4.39562 56.7579 4.45505 57.0629 4.57389 57.2604C4.69449 57.4562 4.87626 57.554 5.1192 57.554C5.35864 57.554 5.53604 57.4614 5.65139 57.2761C5.76849 57.0909 5.82966 56.799 5.83491 56.4005V55.6061Z" fill="#F5F7F6"/>
<path d="M2.95896 43.4558H3.48853V43.8517H2.95896V44.7378H2.47134V43.8517H0.733185V43.5659L2.4425 40.9207H2.95896V43.4558ZM1.28373 43.4558H2.47134V41.584L2.41366 41.6888L1.28373 43.4558ZM6.31991 43.1098C6.31991 43.6778 6.22291 44.0999 6.02891 44.376C5.83491 44.6522 5.53167 44.7902 5.1192 44.7902C4.71197 44.7902 4.41048 44.6556 4.21473 44.3865C4.01898 44.1156 3.91761 43.7119 3.91062 43.1753V42.5277C3.91062 41.9667 4.00762 41.5499 4.20162 41.2772C4.39562 41.0046 4.69973 40.8682 5.11395 40.8682C5.52468 40.8682 5.82704 41.0002 6.02104 41.2641C6.21504 41.5263 6.31467 41.9318 6.31991 42.4806V43.1098ZM5.83491 42.4465C5.83491 42.0358 5.77723 41.7369 5.66188 41.5499C5.54652 41.3611 5.36388 41.2667 5.11395 41.2667C4.86577 41.2667 4.68488 41.3602 4.57127 41.5473C4.45767 41.7343 4.39912 42.0218 4.39562 42.4098V43.1858C4.39562 43.5983 4.45505 43.9032 4.57389 44.1007C4.69449 44.2965 4.87626 44.3944 5.1192 44.3944C5.35864 44.3944 5.53604 44.3017 5.65139 44.1165C5.76849 43.9312 5.82966 43.6393 5.83491 43.2408V42.4465Z" fill="#F5F7F6"/>
<path d="M1.1343 30.198L1.3283 28.2947H3.28405V28.743H1.7399L1.62454 29.7838C1.81156 29.6737 2.02391 29.6186 2.2616 29.6186C2.60941 29.6186 2.88556 29.734 3.09004 29.9647C3.29453 30.1936 3.39678 30.5039 3.39678 30.8954C3.39678 31.2886 3.29016 31.5988 3.07694 31.8261C2.86546 32.0515 2.56921 32.1642 2.1882 32.1642C1.85088 32.1642 1.57561 32.0707 1.36238 31.8837C1.14915 31.6967 1.02768 31.4381 0.997972 31.1077H1.45676C1.48647 31.3262 1.56425 31.4914 1.69009 31.6032C1.81592 31.7133 1.98196 31.7684 2.1882 31.7684C2.41366 31.7684 2.59018 31.6915 2.71777 31.5377C2.8471 31.3839 2.91177 31.1715 2.91177 30.9006C2.91177 30.6454 2.84186 30.441 2.70204 30.2872C2.56397 30.1316 2.37958 30.0538 2.14887 30.0538C1.93739 30.0538 1.77136 30.1001 1.65076 30.1928L1.5223 30.2976L1.1343 30.198ZM6.31991 30.4838C6.31991 31.0518 6.22291 31.4739 6.02891 31.75C5.83491 32.0262 5.53167 32.1642 5.1192 32.1642C4.71197 32.1642 4.41048 32.0297 4.21473 31.7605C4.01898 31.4896 3.91761 31.0859 3.91062 30.5493V29.9018C3.91062 29.3407 4.00762 28.9239 4.20162 28.6512C4.39562 28.3786 4.69973 28.2423 5.11395 28.2423C5.52468 28.2423 5.82704 28.3742 6.02104 28.6381C6.21504 28.9003 6.31467 29.3058 6.31991 29.8546V30.4838ZM5.83491 29.8205C5.83491 29.4098 5.77723 29.1109 5.66188 28.9239C5.54652 28.7351 5.36388 28.6408 5.11395 28.6408C4.86577 28.6408 4.68488 28.7343 4.57127 28.9213C4.45767 29.1083 4.39912 29.3958 4.39562 29.7838V30.5598C4.39562 30.9723 4.45505 31.2773 4.57389 31.4748C4.69449 31.6705 4.87626 31.7684 5.1192 31.7684C5.35864 31.7684 5.53604 31.6757 5.65139 31.4905C5.76849 31.3052 5.82966 31.0133 5.83491 30.6149V29.8205Z" fill="#F5F7F6"/>
<path d="M2.81477 15.1319V15.5435H2.72564C2.34812 15.5505 2.0475 15.6624 1.82379 15.8791C1.60008 16.0958 1.47074 16.4008 1.43579 16.794C1.63678 16.5633 1.91118 16.448 2.25898 16.448C2.59106 16.448 2.85584 16.5651 3.05334 16.7993C3.25259 17.0335 3.35221 17.3359 3.35221 17.7064C3.35221 18.0996 3.24472 18.4142 3.02975 18.6502C2.81652 18.8861 2.52989 19.0041 2.16985 19.0041C1.80456 19.0041 1.50832 18.8643 1.28111 18.5846C1.0539 18.3032 0.940295 17.9415 0.940295 17.4993V17.3131C0.940295 16.6105 1.08973 16.074 1.3886 15.7034C1.68921 15.3312 2.13577 15.1407 2.72826 15.1319H2.81477ZM2.17771 16.8517C2.01167 16.8517 1.85874 16.9015 1.71892 17.0012C1.5791 17.1008 1.4821 17.2257 1.42792 17.3761V17.5543C1.42792 17.8689 1.49871 18.1223 1.64027 18.3146C1.78184 18.5069 1.95837 18.603 2.16985 18.603C2.38832 18.603 2.5596 18.5226 2.68369 18.3618C2.80953 18.201 2.87245 17.9904 2.87245 17.73C2.87245 17.4678 2.80865 17.2563 2.68107 17.0955C2.55523 16.933 2.38744 16.8517 2.17771 16.8517ZM6.31991 17.3236C6.31991 17.8916 6.22291 18.3137 6.02891 18.5899C5.83491 18.866 5.53167 19.0041 5.1192 19.0041C4.71197 19.0041 4.41048 18.8695 4.21473 18.6004C4.01898 18.3295 3.91761 17.9257 3.91062 17.3892V16.7416C3.91062 16.1806 4.00762 15.7637 4.20162 15.4911C4.39562 15.2184 4.69973 15.0821 5.11395 15.0821C5.52468 15.0821 5.82704 15.2141 6.02104 15.478C6.21504 15.7401 6.31467 16.1456 6.31991 16.6944V17.3236ZM5.83491 16.6603C5.83491 16.2496 5.77723 15.9508 5.66188 15.7637C5.54652 15.575 5.36388 15.4806 5.11395 15.4806C4.86577 15.4806 4.68488 15.5741 4.57127 15.7611C4.45767 15.9481 4.39912 16.2356 4.39562 16.6236V17.3996C4.39562 17.8121 4.45505 18.1171 4.57389 18.3146C4.69449 18.5104 4.87626 18.6082 5.1192 18.6082C5.35864 18.6082 5.53604 18.5156 5.65139 18.3303C5.76849 18.1451 5.82966 17.8532 5.83491 17.4547V16.6603Z" fill="#F5F7F6"/>
<path d="M3.3758 1.78757L1.79495 5.33203H1.28635L2.86196 1.91341H0.796105V1.51492H3.3758V1.78757ZM6.31991 3.70399C6.31991 4.27201 6.22291 4.6941 6.02891 4.97024C5.83491 5.24639 5.53167 5.38446 5.1192 5.38446C4.71197 5.38446 4.41048 5.24989 4.21473 4.98073C4.01898 4.70983 3.91761 4.30609 3.91062 3.76953V3.12199C3.91062 2.56095 4.00762 2.14411 4.20162 1.87146C4.39562 1.59881 4.69973 1.46248 5.11395 1.46248C5.52468 1.46248 5.82704 1.59444 6.02104 1.85835C6.21504 2.12052 6.31467 2.526 6.31991 3.0748V3.70399ZM5.83491 3.04071C5.83491 2.62999 5.77723 2.33112 5.66188 2.14411C5.54652 1.95535 5.36388 1.86097 5.11395 1.86097C4.86577 1.86097 4.68488 1.95448 4.57127 2.14149C4.45767 2.3285 4.39912 2.61601 4.39562 3.00401V3.78002C4.39562 4.19249 4.45505 4.49747 4.57389 4.69497C4.69449 4.89072 4.87626 4.9886 5.1192 4.9886C5.35864 4.9886 5.53604 4.89596 5.65139 4.7107C5.76849 4.52544 5.82966 4.23356 5.83491 3.83507V3.04071Z" fill="#F5F7F6"/>
<path d="M186.65 37.0425H168.425L150.825 24.187L133.379 37.959L115.316 31.3812L98.1785 57.3923H80.1241L62.3859 70.5154L45.0939 50.4738L27.4937 57.2057V90.8327H186.764L186.65 37.0425Z" fill="url(#paint0_linear_479_2733)"/>
<path d="M62.3128 71.1396L44.9559 51.0169L27.6557 57.6353L27.3313 56.7755L45.2316 49.9301L62.4507 69.8987L79.9698 56.9378H97.935L115.138 30.8213L133.298 37.4396L150.809 23.6108L168.571 36.5799H186.65V37.5045H168.271L150.833 24.7626L133.46 38.4778L115.503 31.9324L98.4298 57.8543H80.2699L62.3128 71.1396Z" fill="url(#paint1_linear_479_2733)"/>
<path d="M29.4563 57.2055C29.4563 58.2923 28.5804 59.1683 27.4935 59.1683C26.4067 59.1683 25.5308 58.2923 25.5308 57.2055C25.5308 56.1186 26.4067 55.2427 27.4935 55.2427C28.5804 55.2427 29.4563 56.1186 29.4563 57.2055Z" fill="#F5F7F6"/>
<path d="M47.0567 50.4736C47.0567 51.5604 46.1807 52.4364 45.0939 52.4364C44.0071 52.4364 43.1311 51.5604 43.1311 50.4736C43.1311 49.3868 44.0071 48.5108 45.0939 48.5108C46.1807 48.5027 47.0567 49.3868 47.0567 50.4736Z" fill="#F5F7F6"/>
<path d="M64.3487 70.515C64.3487 71.6019 63.4646 72.4778 62.3859 72.4778C61.2991 72.4778 60.4231 71.5938 60.4231 70.515C60.4231 69.4282 61.2991 68.5522 62.3859 68.5522C63.4727 68.5522 64.3487 69.4282 64.3487 70.515Z" fill="#F5F7F6"/>
<path d="M82.0867 57.392C82.0867 58.4788 81.2108 59.3548 80.1239 59.3548C79.0371 59.3548 78.1611 58.4707 78.1611 57.392C78.1611 56.3052 79.0371 55.4292 80.1239 55.4292C81.2108 55.4292 82.0867 56.3133 82.0867 57.392Z" fill="#F5F7F6"/>
<path d="M100.149 57.392C100.149 58.4788 99.2732 59.3548 98.1864 59.3548C97.0996 59.3548 96.2236 58.4707 96.2236 57.392C96.2236 56.3052 97.1077 55.4292 98.1864 55.4292C99.2651 55.4292 100.149 56.3133 100.149 57.392Z" fill="#F5F7F6"/>
<path d="M117.287 31.3812C117.287 32.4681 116.411 33.344 115.324 33.344C114.238 33.344 113.362 32.46 113.362 31.3812C113.362 30.2944 114.238 29.4185 115.324 29.4185C116.403 29.4185 117.287 30.2944 117.287 31.3812Z" fill="#F5F7F6"/>
<path d="M135.342 37.9589C135.342 39.0457 134.466 39.9217 133.379 39.9217C132.292 39.9217 131.416 39.0457 131.416 37.9589C131.416 36.872 132.292 35.9961 133.379 35.9961C134.466 35.9961 135.342 36.872 135.342 37.9589Z" fill="#F5F7F6"/>
<path d="M152.788 24.1869C152.788 25.2737 151.904 26.1497 150.825 26.1497C149.738 26.1497 148.862 25.2656 148.862 24.1869C148.862 23.1001 149.738 22.2241 150.825 22.2241C151.912 22.2241 152.788 23.1001 152.788 24.1869Z" fill="#F5F7F6"/>
<path d="M170.388 37.0424C170.388 38.1292 169.512 39.0052 168.425 39.0052C167.338 39.0052 166.462 38.1292 166.462 37.0424C166.462 35.9555 167.338 35.0796 168.425 35.0796C169.504 35.0796 170.388 35.9555 170.388 37.0424Z" fill="#F5F7F6"/>
<path d="M188.613 37.1151C188.613 38.202 187.729 39.0779 186.65 39.0779C185.563 39.0779 184.687 38.1939 184.687 37.1151C184.687 36.0283 185.563 35.1523 186.65 35.1523C187.729 35.1523 188.613 36.0364 188.613 37.1151Z" fill="#F5F7F6"/>
<defs>
<linearGradient id="paint0_linear_479_2733" x1="107.128" y1="101.163" x2="107.128" y2="35.6622" gradientUnits="userSpaceOnUse">
<stop offset="0.0101" stop-color="white" stop-opacity="0"/>
<stop offset="1" stop-color="white"/>
</linearGradient>
<linearGradient id="paint1_linear_479_2733" x1="27.6087" y1="47.3753" x2="152.256" y2="47.3753" gradientUnits="userSpaceOnUse">
<stop stop-color="#00EAD1"/>
<stop offset="0.1291" stop-color="#00E0D1"/>
<stop offset="0.3516" stop-color="#00C4CF"/>
<stop offset="0.6406" stop-color="#0097CE"/>
<stop offset="0.9819" stop-color="#0058CB"/>
<stop offset="0.9999" stop-color="#0055CB"/>
</linearGradient>
</defs>
</svg>
