<svg width="156" height="63" viewBox="0 0 156 63" fill="none" xmlns="http://www.w3.org/2000/svg">
<path d="M8.59696 0.945557H5.66089V57.096H8.59696V0.945557Z" fill="#406EB2"/>
<path d="M15.1018 0.945557H12.1658V57.096H15.1018V0.945557Z" fill="#406EB2"/>
<path d="M28.1033 0.945557H25.1672V57.096H28.1033V0.945557Z" fill="#406EB2"/>
<path d="M34.5999 0.945557H31.6638V57.096H34.5999V0.945557Z" fill="#406EB2"/>
<path d="M47.6014 0.945557H44.6653V57.096H47.6014V0.945557Z" fill="#406EB2"/>
<path d="M54.1062 0.945557H51.1702V57.096H54.1062V0.945557Z" fill="#406EB2"/>
<path d="M67.1077 0.945557H64.1716V57.096H67.1077V0.945557Z" fill="#406EB2"/>
<path d="M73.6043 0.945557H70.6682V57.096H73.6043V0.945557Z" fill="#406EB2"/>
<path d="M86.6058 0.945557H83.6697V57.096H86.6058V0.945557Z" fill="#406EB2"/>
<path d="M93.1023 0.945557H90.1663V57.096H93.1023V0.945557Z" fill="#406EB2"/>
<path d="M106.104 0.945557H103.168V57.096H106.104V0.945557Z" fill="#406EB2"/>
<path d="M112.609 0.945557H109.673V57.096H112.609V0.945557Z" fill="#406EB2"/>
<path d="M125.61 0.945557H122.674V57.096H125.61V0.945557Z" fill="#406EB2"/>
<path d="M132.107 0.945557H129.171V57.096H132.107V0.945557Z" fill="#406EB2"/>
<path d="M145.108 0.945557H142.172V57.096H145.108V0.945557Z" fill="#406EB2"/>
<path d="M151.613 0.945557H148.677V57.096H151.613V0.945557Z" fill="#406EB2"/>
<path d="M8.59696 22.1064H5.66089V57.1042H8.59696V22.1064Z" fill="url(#paint0_linear_479_2679)"/>
<path d="M15.1018 36.2756H12.1658V57.0958H15.1018V36.2756Z" fill="url(#paint1_linear_479_2679)"/>
<path d="M28.1033 32.4312H25.1672V57.0958H28.1033V32.4312Z" fill="url(#paint2_linear_479_2679)"/>
<path d="M34.5999 25.7075H31.6638V57.096H34.5999V25.7075Z" fill="url(#paint3_linear_479_2679)"/>
<path d="M47.6014 29.0735H44.6653V57.1041H47.6014V29.0735Z" fill="url(#paint4_linear_479_2679)"/>
<path d="M54.1062 36.9165H51.1702V57.096H54.1062V36.9165Z" fill="url(#paint5_linear_479_2679)"/>
<path d="M67.1077 34.8401H64.1716V57.104H67.1077V34.8401Z" fill="url(#paint6_linear_479_2679)"/>
<path d="M73.6043 27.4675H70.6682V57.096H73.6043V27.4675Z" fill="url(#paint7_linear_479_2679)"/>
<path d="M86.6058 19.7056H83.6697V57.104H86.6058V19.7056Z" fill="url(#paint8_linear_479_2679)"/>
<path d="M93.1023 33.7129H90.1663V57.0961H93.1023V33.7129Z" fill="url(#paint9_linear_479_2679)"/>
<path d="M106.104 22.585H103.168V57.096H106.104V22.585Z" fill="url(#paint10_linear_479_2679)"/>
<path d="M112.609 40.9231H109.673V57.0959H112.609V40.9231Z" fill="url(#paint11_linear_479_2679)"/>
<path d="M125.61 32.196H122.674V57.104H125.61V32.196Z" fill="url(#paint12_linear_479_2679)"/>
<path d="M132.107 27.4675H129.171V57.096H132.107V27.4675Z" fill="url(#paint13_linear_479_2679)"/>
<path d="M145.108 21.1411H142.172V57.0959H145.108V21.1411Z" fill="url(#paint14_linear_479_2679)"/>
<path d="M151.613 30.2739H148.677V57.1042H151.613V30.2739Z" fill="url(#paint15_linear_479_2679)"/>
<path d="M155.052 57.4614H0.145508V0.962158H0.737574V56.8693H155.052V57.4614Z" fill="white"/>
<path d="M5.18652 61.5701V59.0692H5.89246C6.11003 59.0692 6.3024 59.1173 6.46958 59.2135C6.63677 59.3097 6.76559 59.4465 6.85605 59.624C6.94766 59.8015 6.99403 60.0053 6.99518 60.2355V60.3952C6.99518 60.6311 6.94937 60.8378 6.85777 61.0153C6.76731 61.1928 6.63734 61.329 6.46787 61.4241C6.29954 61.5191 6.10316 61.5678 5.87872 61.5701H5.18652ZM5.5163 59.3406V61.3004H5.86326C6.11747 61.3004 6.315 61.2214 6.45584 61.0634C6.59783 60.9053 6.66883 60.6803 6.66883 60.3883V60.2423C6.66883 59.9584 6.60184 59.7379 6.46787 59.5811C6.33504 59.423 6.1461 59.3429 5.90105 59.3406H5.5163ZM8.83819 60.9174H7.79044L7.55512 61.5701H7.21503L8.17003 59.0692H8.45859L9.41531 61.5701H9.07694L8.83819 60.9174ZM7.89006 60.646H8.74028L8.31431 59.4763L7.89006 60.646ZM11.2566 59.3406H10.4528V61.5701H10.1247V59.3406H9.32256V59.0692H11.2566V59.3406ZM12.8712 60.9174H11.8234L11.5881 61.5701H11.248L12.203 59.0692H12.4916L13.4483 61.5701H13.1099L12.8712 60.9174ZM11.923 60.646H12.7733L12.3473 59.4763L11.923 60.646ZM16.1432 60.5034C16.1432 60.8756 16.0797 61.1521 15.9526 61.333C15.8255 61.514 15.6268 61.6044 15.3566 61.6044C15.0898 61.6044 14.8922 61.5162 14.764 61.3399C14.6357 61.1624 14.5693 60.8979 14.5648 60.5464V60.1221C14.5648 59.7545 14.6283 59.4814 14.7554 59.3028C14.8825 59.1242 15.0818 59.0349 15.3531 59.0349C15.6222 59.0349 15.8203 59.1213 15.9474 59.2942C16.0745 59.466 16.1398 59.7316 16.1432 60.0912V60.5034ZM15.8255 60.0689C15.8255 59.7998 15.7877 59.604 15.7121 59.4814C15.6365 59.3578 15.5169 59.2959 15.3531 59.2959C15.1905 59.2959 15.072 59.3572 14.9976 59.4797C14.9232 59.6022 14.8848 59.7906 14.8825 60.0448V60.5532C14.8825 60.8235 14.9214 61.0233 14.9993 61.1527C15.0783 61.2809 15.1974 61.3451 15.3566 61.3451C15.5135 61.3451 15.6297 61.2844 15.7053 61.163C15.782 61.0416 15.8221 60.8504 15.8255 60.5893V60.0689ZM17.5946 61.5701H17.2752V59.4522L16.6345 59.6876V59.399L17.5448 59.0572H17.5946V61.5701Z" fill="#F5F7F6"/>
<path d="M23.9285 61.5701V59.0692H24.6344C24.852 59.0692 25.0443 59.1173 25.2115 59.2135C25.3787 59.3097 25.5075 59.4465 25.598 59.624C25.6896 59.8015 25.736 60.0053 25.7371 60.2355V60.3952C25.7371 60.6311 25.6913 60.8378 25.5997 61.0153C25.5092 61.1928 25.3793 61.329 25.2098 61.4241C25.0415 61.5191 24.8451 61.5678 24.6207 61.5701H23.9285ZM24.2582 59.3406V61.3004H24.6052C24.8594 61.3004 25.0569 61.2214 25.1978 61.0634C25.3398 60.9053 25.4108 60.6803 25.4108 60.3883V60.2423C25.4108 59.9584 25.3438 59.7379 25.2098 59.5811C25.077 59.423 24.888 59.3429 24.643 59.3406H24.2582ZM27.5801 60.9174H26.5324L26.2971 61.5701H25.957L26.912 59.0692H27.2005L28.1573 61.5701H27.8189L27.5801 60.9174ZM26.632 60.646H27.4822L27.0563 59.4763L26.632 60.646ZM29.9985 59.3406H29.1947V61.5701H28.8666V59.3406H28.0645V59.0692H29.9985V59.3406ZM31.6131 60.9174H30.5654L30.3301 61.5701H29.99L30.945 59.0692H31.2335L32.1902 61.5701H31.8519L31.6131 60.9174ZM30.665 60.646H31.5152L31.0892 59.4763L30.665 60.646ZM34.8852 60.5034C34.8852 60.8756 34.8216 61.1521 34.6945 61.333C34.5674 61.514 34.3688 61.6044 34.0985 61.6044C33.8317 61.6044 33.6342 61.5162 33.5059 61.3399C33.3777 61.1624 33.3113 60.8979 33.3067 60.5464V60.1221C33.3067 59.7545 33.3702 59.4814 33.4974 59.3028C33.6245 59.1242 33.8237 59.0349 34.0951 59.0349C34.3642 59.0349 34.5623 59.1213 34.6894 59.2942C34.8165 59.466 34.8818 59.7316 34.8852 60.0912V60.5034ZM34.5674 60.0689C34.5674 59.7998 34.5296 59.604 34.4541 59.4814C34.3785 59.3578 34.2588 59.2959 34.0951 59.2959C33.9325 59.2959 33.814 59.3572 33.7395 59.4797C33.6651 59.6022 33.6267 59.7906 33.6245 60.0448V60.5532C33.6245 60.8235 33.6634 61.0233 33.7413 61.1527C33.8203 61.2809 33.9394 61.3451 34.0985 61.3451C34.2554 61.3451 34.3716 61.2844 34.4472 61.163C34.5239 61.0416 34.564 60.8504 34.5674 60.5893V60.0689ZM36.9309 61.5701H35.2923V61.3416L36.158 60.3798C36.2862 60.2343 36.3744 60.1164 36.4225 60.0259C36.4717 59.9343 36.4963 59.8398 36.4963 59.7425C36.4963 59.612 36.4568 59.5049 36.3778 59.4213C36.2988 59.3377 36.1934 59.2959 36.0618 59.2959C35.9037 59.2959 35.7806 59.3412 35.6925 59.4316C35.6054 59.5209 35.5619 59.6458 35.5619 59.8061H35.2442C35.2442 59.5759 35.318 59.3898 35.4657 59.2478C35.6146 59.1058 35.8133 59.0349 36.0618 59.0349C36.2942 59.0349 36.478 59.0961 36.6131 59.2186C36.7482 59.34 36.8158 59.502 36.8158 59.7047C36.8158 59.9509 36.6589 60.2441 36.3452 60.5842L35.6753 61.3107H36.9309V61.5701Z" fill="#F5F7F6"/>
<path d="M42.7722 61.5701V59.0692H43.4782C43.6957 59.0692 43.8881 59.1173 44.0553 59.2135C44.2225 59.3097 44.3513 59.4465 44.4417 59.624C44.5334 59.8015 44.5797 60.0053 44.5809 60.2355V60.3952C44.5809 60.6311 44.5351 60.8378 44.4435 61.0153C44.353 61.1928 44.223 61.329 44.0536 61.4241C43.8852 61.5191 43.6889 61.5678 43.4644 61.5701H42.7722ZM43.102 59.3406V61.3004H43.449C43.7032 61.3004 43.9007 61.2214 44.0415 61.0634C44.1835 60.9053 44.2545 60.6803 44.2545 60.3883V60.2423C44.2545 59.9584 44.1875 59.7379 44.0536 59.5811C43.9207 59.423 43.7318 59.3429 43.4867 59.3406H43.102ZM46.4239 60.9174H45.3761L45.1408 61.5701H44.8007L45.7557 59.0692H46.0443L47.001 61.5701H46.6626L46.4239 60.9174ZM45.4758 60.646H46.326L45.9 59.4763L45.4758 60.646ZM48.8423 59.3406H48.0385V61.5701H47.7104V59.3406H46.9083V59.0692H48.8423V59.3406ZM50.4569 60.9174H49.4091L49.1738 61.5701H48.8337L49.7887 59.0692H50.0773L51.034 61.5701H50.6956L50.4569 60.9174ZM49.5087 60.646H50.359L49.933 59.4763L49.5087 60.646ZM53.7289 60.5034C53.7289 60.8756 53.6654 61.1521 53.5383 61.333C53.4112 61.514 53.2125 61.6044 52.9423 61.6044C52.6755 61.6044 52.4779 61.5162 52.3497 61.3399C52.2214 61.1624 52.155 60.8979 52.1504 60.5464V60.1221C52.1504 59.7545 52.214 59.4814 52.3411 59.3028C52.4682 59.1242 52.6674 59.0349 52.9388 59.0349C53.2079 59.0349 53.406 59.1213 53.5331 59.2942C53.6602 59.466 53.7255 59.7316 53.7289 60.0912V60.5034ZM53.4112 60.0689C53.4112 59.7998 53.3734 59.604 53.2978 59.4814C53.2222 59.3578 53.1026 59.2959 52.9388 59.2959C52.7762 59.2959 52.6577 59.3572 52.5833 59.4797C52.5089 59.6022 52.4705 59.7906 52.4682 60.0448V60.5532C52.4682 60.8235 52.5071 61.0233 52.585 61.1527C52.664 61.2809 52.7831 61.3451 52.9423 61.3451C53.0991 61.3451 53.2154 61.2844 53.2909 61.163C53.3677 61.0416 53.4077 60.8504 53.4112 60.5893V60.0689ZM54.5981 60.1651H54.8368C54.9868 60.1628 55.1048 60.1233 55.1906 60.0465C55.2765 59.9698 55.3195 59.8662 55.3195 59.7356C55.3195 59.4425 55.1735 59.2959 54.8815 59.2959C54.7441 59.2959 54.6341 59.3354 54.5517 59.4144C54.4704 59.4923 54.4297 59.5959 54.4297 59.7253H54.112C54.112 59.5272 54.1841 59.3629 54.3284 59.2324C54.4738 59.1007 54.6582 59.0349 54.8815 59.0349C55.1174 59.0349 55.3023 59.0973 55.4363 59.2221C55.5702 59.3469 55.6372 59.5204 55.6372 59.7425C55.6372 59.8513 55.6017 59.9566 55.5307 60.0586C55.4609 60.1605 55.3653 60.2366 55.2439 60.287C55.3813 60.3305 55.4872 60.4027 55.5616 60.5034C55.6372 60.6042 55.675 60.7273 55.675 60.8727C55.675 61.0971 55.6017 61.2752 55.4552 61.4069C55.3086 61.5386 55.1179 61.6044 54.8832 61.6044C54.6484 61.6044 54.4572 61.5409 54.3095 61.4138C54.1629 61.2867 54.0896 61.1189 54.0896 60.9105H54.4091C54.4091 61.0422 54.4521 61.1475 54.5379 61.2265C54.6238 61.3056 54.7389 61.3451 54.8832 61.3451C55.0366 61.3451 55.154 61.305 55.2353 61.2248C55.3166 61.1447 55.3573 61.0296 55.3573 60.8796C55.3573 60.7342 55.3126 60.6225 55.2233 60.5446C55.134 60.4668 55.0051 60.4267 54.8368 60.4244H54.5981V60.1651Z" fill="#F5F7F6"/>
<path d="M62.5437 61.5701V59.0692H63.2496C63.4672 59.0692 63.6596 59.1173 63.8268 59.2135C63.9939 59.3097 64.1228 59.4465 64.2132 59.624C64.3048 59.8015 64.3512 60.0053 64.3524 60.2355V60.3952C64.3524 60.6311 64.3066 60.8378 64.2149 61.0153C64.1245 61.1928 63.9945 61.329 63.825 61.4241C63.6567 61.5191 63.4603 61.5678 63.2359 61.5701H62.5437ZM62.8735 59.3406V61.3004H63.2204C63.4746 61.3004 63.6722 61.2214 63.813 61.0634C63.955 60.9053 64.026 60.6803 64.026 60.3883V60.2423C64.026 59.9584 63.959 59.7379 63.825 59.5811C63.6922 59.423 63.5033 59.3429 63.2582 59.3406H62.8735ZM66.1954 60.9174H65.1476L64.9123 61.5701H64.5722L65.5272 59.0692H65.8158L66.7725 61.5701H66.4341L66.1954 60.9174ZM65.2472 60.646H66.0975L65.6715 59.4763L65.2472 60.646ZM68.6138 59.3406H67.8099V61.5701H67.4819V59.3406H66.6797V59.0692H68.6138V59.3406ZM70.2284 60.9174H69.1806L68.9453 61.5701H68.6052L69.5602 59.0692H69.8488L70.8055 61.5701H70.4671L70.2284 60.9174ZM69.2802 60.646H70.1304L69.7045 59.4763L69.2802 60.646ZM73.5004 60.5034C73.5004 60.8756 73.4369 61.1521 73.3098 61.333C73.1827 61.514 72.984 61.6044 72.7138 61.6044C72.4469 61.6044 72.2494 61.5162 72.1212 61.3399C71.9929 61.1624 71.9265 60.8979 71.9219 60.5464V60.1221C71.9219 59.7545 71.9855 59.4814 72.1126 59.3028C72.2397 59.1242 72.4389 59.0349 72.7103 59.0349C72.9794 59.0349 73.1775 59.1213 73.3046 59.2942C73.4317 59.466 73.497 59.7316 73.5004 60.0912V60.5034ZM73.1827 60.0689C73.1827 59.7998 73.1449 59.604 73.0693 59.4814C72.9937 59.3578 72.8741 59.2959 72.7103 59.2959C72.5477 59.2959 72.4292 59.3572 72.3548 59.4797C72.2803 59.6022 72.242 59.7906 72.2397 60.0448V60.5532C72.2397 60.8235 72.2786 61.0233 72.3565 61.1527C72.4355 61.2809 72.5546 61.3451 72.7138 61.3451C72.8706 61.3451 72.9869 61.2844 73.0624 61.163C73.1392 61.0416 73.1792 60.8504 73.1827 60.5893V60.0689ZM75.249 60.7301H75.5959V60.9895H75.249V61.5701H74.9295V60.9895H73.7907V60.8023L74.9106 59.0692H75.249V60.7301ZM74.1514 60.7301H74.9295V59.5038L74.8917 59.5725L74.1514 60.7301Z" fill="#F5F7F6"/>
<path d="M82.0752 61.5701V59.0692H82.7811C82.9987 59.0692 83.1911 59.1173 83.3583 59.2135C83.5254 59.3097 83.6543 59.4465 83.7447 59.624C83.8363 59.8015 83.8827 60.0053 83.8838 60.2355V60.3952C83.8838 60.6311 83.838 60.8378 83.7464 61.0153C83.656 61.1928 83.526 61.329 83.3565 61.4241C83.1882 61.5191 82.9918 61.5678 82.7674 61.5701H82.0752ZM82.405 59.3406V61.3004H82.7519C83.0061 61.3004 83.2037 61.2214 83.3445 61.0634C83.4865 60.9053 83.5575 60.6803 83.5575 60.3883V60.2423C83.5575 59.9584 83.4905 59.7379 83.3565 59.5811C83.2237 59.423 83.0348 59.3429 82.7897 59.3406H82.405ZM85.7269 60.9174H84.6791L84.4438 61.5701H84.1037L85.0587 59.0692H85.3473L86.304 61.5701H85.9656L85.7269 60.9174ZM84.7787 60.646H85.629L85.203 59.4763L84.7787 60.646ZM88.1453 59.3406H87.3414V61.5701H87.0134V59.3406H86.2112V59.0692H88.1453V59.3406ZM89.7598 60.9174H88.7121L88.4768 61.5701H88.1367L89.0917 59.0692H89.3802L90.337 61.5701H89.9986L89.7598 60.9174ZM88.8117 60.646H89.6619L89.236 59.4763L88.8117 60.646ZM93.0319 60.5034C93.0319 60.8756 92.9684 61.1521 92.8413 61.333C92.7142 61.514 92.5155 61.6044 92.2452 61.6044C91.9784 61.6044 91.7809 61.5162 91.6527 61.3399C91.5244 61.1624 91.458 60.8979 91.4534 60.5464V60.1221C91.4534 59.7545 91.517 59.4814 91.6441 59.3028C91.7712 59.1242 91.9704 59.0349 92.2418 59.0349C92.5109 59.0349 92.709 59.1213 92.8361 59.2942C92.9632 59.466 93.0285 59.7316 93.0319 60.0912V60.5034ZM92.7142 60.0689C92.7142 59.7998 92.6764 59.604 92.6008 59.4814C92.5252 59.3578 92.4056 59.2959 92.2418 59.2959C92.0792 59.2959 91.9607 59.3572 91.8863 59.4797C91.8118 59.6022 91.7735 59.7906 91.7712 60.0448V60.5532C91.7712 60.8235 91.8101 61.0233 91.888 61.1527C91.967 61.2809 92.0861 61.3451 92.2452 61.3451C92.4021 61.3451 92.5183 61.2844 92.5939 61.163C92.6706 61.0416 92.7107 60.8504 92.7142 60.5893V60.0689ZM93.585 60.3162L93.7121 59.0692H94.9934V59.3629H93.9818L93.9062 60.0448C94.0287 59.9727 94.1678 59.9366 94.3236 59.9366C94.5514 59.9366 94.7324 60.0122 94.8663 60.1633C95.0003 60.3133 95.0673 60.5166 95.0673 60.7731C95.0673 61.0307 94.9975 61.234 94.8578 61.3828C94.7192 61.5306 94.5251 61.6044 94.2755 61.6044C94.0545 61.6044 93.8741 61.5432 93.7344 61.4206C93.5947 61.2981 93.5151 61.1286 93.4957 60.9122H93.7963C93.8157 61.0554 93.8667 61.1636 93.9491 61.2368C94.0316 61.309 94.1404 61.3451 94.2755 61.3451C94.4232 61.3451 94.5389 61.2947 94.6224 61.1939C94.7072 61.0931 94.7495 60.954 94.7495 60.7765C94.7495 60.6093 94.7037 60.4754 94.6121 60.3746C94.5217 60.2727 94.4009 60.2217 94.2497 60.2217C94.1112 60.2217 94.0024 60.2521 93.9234 60.3128L93.8392 60.3815L93.585 60.3162Z" fill="#F5F7F6"/>
<path d="M101.433 61.5701V59.0692H102.139C102.357 59.0692 102.549 59.1173 102.716 59.2135C102.883 59.3097 103.012 59.4465 103.103 59.624C103.194 59.8015 103.241 60.0053 103.242 60.2355V60.3952C103.242 60.6311 103.196 60.8378 103.104 61.0153C103.014 61.1928 102.884 61.329 102.714 61.4241C102.546 61.5191 102.35 61.5678 102.125 61.5701H101.433ZM101.763 59.3406V61.3004H102.11C102.364 61.3004 102.562 61.2214 102.702 61.0634C102.844 60.9053 102.915 60.6803 102.915 60.3883V60.2423C102.915 59.9584 102.848 59.7379 102.714 59.5811C102.582 59.423 102.393 59.3429 102.148 59.3406H101.763ZM105.085 60.9174H104.037L103.802 61.5701H103.462L104.417 59.0692H104.705L105.662 61.5701H105.324L105.085 60.9174ZM104.137 60.646H104.987L104.561 59.4763L104.137 60.646ZM107.503 59.3406H106.699V61.5701H106.371V59.3406H105.569V59.0692H107.503V59.3406ZM109.118 60.9174H108.07L107.835 61.5701H107.495L108.45 59.0692H108.738L109.695 61.5701H109.357L109.118 60.9174ZM108.17 60.646H109.02L108.594 59.4763L108.17 60.646ZM112.39 60.5034C112.39 60.8756 112.326 61.1521 112.199 61.333C112.072 61.514 111.873 61.6044 111.603 61.6044C111.336 61.6044 111.139 61.5162 111.011 61.3399C110.882 61.1624 110.816 60.8979 110.811 60.5464V60.1221C110.811 59.7545 110.875 59.4814 111.002 59.3028C111.129 59.1242 111.328 59.0349 111.6 59.0349C111.869 59.0349 112.067 59.1213 112.194 59.2942C112.321 59.466 112.386 59.7316 112.39 60.0912V60.5034ZM112.072 60.0689C112.072 59.7998 112.034 59.604 111.959 59.4814C111.883 59.3578 111.763 59.2959 111.6 59.2959C111.437 59.2959 111.319 59.3572 111.244 59.4797C111.17 59.6022 111.131 59.7906 111.129 60.0448V60.5532C111.129 60.8235 111.168 61.0233 111.246 61.1527C111.325 61.2809 111.444 61.3451 111.603 61.3451C111.76 61.3451 111.876 61.2844 111.952 61.163C112.029 61.0416 112.069 60.8504 112.072 60.5893V60.0689ZM114.044 59.0675V59.3372H113.986C113.738 59.3417 113.541 59.415 113.395 59.557C113.248 59.699 113.163 59.8988 113.14 60.1565C113.272 60.0053 113.452 59.9297 113.68 59.9297C113.897 59.9297 114.071 60.0065 114.2 60.1599C114.331 60.3133 114.396 60.5114 114.396 60.7542C114.396 61.0118 114.326 61.218 114.185 61.3725C114.045 61.5271 113.857 61.6044 113.621 61.6044C113.382 61.6044 113.188 61.5128 113.039 61.3296C112.89 61.1452 112.816 60.9082 112.816 60.6185V60.4966C112.816 60.0362 112.914 59.6847 113.11 59.4419C113.306 59.198 113.599 59.0732 113.987 59.0675H114.044ZM113.627 60.1943C113.518 60.1943 113.418 60.2269 113.326 60.2922C113.234 60.3574 113.171 60.4393 113.135 60.5378V60.6546C113.135 60.8607 113.182 61.0267 113.274 61.1527C113.367 61.2786 113.483 61.3416 113.621 61.3416C113.765 61.3416 113.877 61.289 113.958 61.1836C114.04 61.0783 114.082 60.9403 114.082 60.7697C114.082 60.5979 114.04 60.4593 113.956 60.354C113.874 60.2475 113.764 60.1943 113.627 60.1943Z" fill="#F5F7F6"/>
<path d="M120.69 61.5701V59.0692H121.396C121.613 59.0692 121.806 59.1173 121.973 59.2135C122.14 59.3097 122.269 59.4465 122.359 59.624C122.451 59.8015 122.497 60.0053 122.498 60.2355V60.3952C122.498 60.6311 122.453 60.8378 122.361 61.0153C122.27 61.1928 122.141 61.329 121.971 61.4241C121.803 61.5191 121.606 61.5678 121.382 61.5701H120.69ZM121.019 59.3406V61.3004H121.366C121.621 61.3004 121.818 61.2214 121.959 61.0634C122.101 60.9053 122.172 60.6803 122.172 60.3883V60.2423C122.172 59.9584 122.105 59.7379 121.971 59.5811C121.838 59.423 121.649 59.3429 121.404 59.3406H121.019ZM124.341 60.9174H123.294L123.058 61.5701H122.718L123.673 59.0692H123.962L124.918 61.5701H124.58L124.341 60.9174ZM123.393 60.646H124.243L123.817 59.4763L123.393 60.646ZM126.76 59.3406H125.956V61.5701H125.628V59.3406H124.826V59.0692H126.76V59.3406ZM128.374 60.9174H127.327L127.091 61.5701H126.751L127.706 59.0692H127.995L128.951 61.5701H128.613L128.374 60.9174ZM127.426 60.646H128.276L127.85 59.4763L127.426 60.646ZM131.646 60.5034C131.646 60.8756 131.583 61.1521 131.456 61.333C131.329 61.514 131.13 61.6044 130.86 61.6044C130.593 61.6044 130.395 61.5162 130.267 61.3399C130.139 61.1624 130.073 60.8979 130.068 60.5464V60.1221C130.068 59.7545 130.131 59.4814 130.259 59.3028C130.386 59.1242 130.585 59.0349 130.856 59.0349C131.125 59.0349 131.324 59.1213 131.451 59.2942C131.578 59.466 131.643 59.7316 131.646 60.0912V60.5034ZM131.329 60.0689C131.329 59.7998 131.291 59.604 131.215 59.4814C131.14 59.3578 131.02 59.2959 130.856 59.2959C130.694 59.2959 130.575 59.3572 130.501 59.4797C130.426 59.6022 130.388 59.7906 130.386 60.0448V60.5532C130.386 60.8235 130.425 61.0233 130.502 61.1527C130.581 61.2809 130.701 61.3451 130.86 61.3451C131.017 61.3451 131.133 61.2844 131.208 61.163C131.285 61.0416 131.325 60.8504 131.329 60.5893V60.0689ZM133.668 59.2478L132.632 61.5701H132.299L133.331 59.3303H131.978V59.0692H133.668V59.2478Z" fill="#F5F7F6"/>
<path d="M139.637 61.5701V59.0692H140.343C140.56 59.0692 140.753 59.1173 140.92 59.2135C141.087 59.3097 141.216 59.4465 141.306 59.624C141.398 59.8015 141.444 60.0053 141.445 60.2355V60.3952C141.445 60.6311 141.4 60.8378 141.308 61.0153C141.218 61.1928 141.088 61.329 140.918 61.4241C140.75 61.5191 140.553 61.5678 140.329 61.5701H139.637ZM139.966 59.3406V61.3004H140.313C140.568 61.3004 140.765 61.2214 140.906 61.0634C141.048 60.9053 141.119 60.6803 141.119 60.3883V60.2423C141.119 59.9584 141.052 59.7379 140.918 59.5811C140.785 59.423 140.596 59.3429 140.351 59.3406H139.966ZM143.288 60.9174H142.241L142.005 61.5701H141.665L142.62 59.0692H142.909L143.866 61.5701H143.527L143.288 60.9174ZM142.34 60.646H143.19L142.765 59.4763L142.34 60.646ZM145.707 59.3406H144.903V61.5701H144.575V59.3406H143.773V59.0692H145.707V59.3406ZM147.321 60.9174H146.274L146.038 61.5701H145.698L146.653 59.0692H146.942L147.898 61.5701H147.56L147.321 60.9174ZM146.373 60.646H147.223L146.797 59.4763L146.373 60.646ZM150.593 60.5034C150.593 60.8756 150.53 61.1521 150.403 61.333C150.276 61.514 150.077 61.6044 149.807 61.6044C149.54 61.6044 149.342 61.5162 149.214 61.3399C149.086 61.1624 149.02 60.8979 149.015 60.5464V60.1221C149.015 59.7545 149.078 59.4814 149.206 59.3028C149.333 59.1242 149.532 59.0349 149.803 59.0349C150.072 59.0349 150.271 59.1213 150.398 59.2942C150.525 59.466 150.59 59.7316 150.593 60.0912V60.5034ZM150.276 60.0689C150.276 59.7998 150.238 59.604 150.162 59.4814C150.087 59.3578 149.967 59.2959 149.803 59.2959C149.641 59.2959 149.522 59.3572 149.448 59.4797C149.373 59.6022 149.335 59.7906 149.333 60.0448V60.5532C149.333 60.8235 149.372 61.0233 149.45 61.1527C149.529 61.2809 149.648 61.3451 149.807 61.3451C149.964 61.3451 150.08 61.2844 150.155 61.163C150.232 61.0416 150.272 60.8504 150.276 60.5893V60.0689ZM152.517 59.7219C152.517 59.8467 152.484 59.9578 152.418 60.0551C152.352 60.1525 152.264 60.2286 152.151 60.2836C152.282 60.3397 152.385 60.4215 152.461 60.5292C152.537 60.6368 152.576 60.7588 152.576 60.895C152.576 61.1115 152.502 61.2838 152.356 61.412C152.21 61.5403 152.019 61.6044 151.78 61.6044C151.54 61.6044 151.347 61.5403 151.201 61.412C151.057 61.2827 150.985 61.1103 150.985 60.895C150.985 60.7599 151.022 60.638 151.095 60.5292C151.169 60.4204 151.272 60.338 151.402 60.2818C151.291 60.2269 151.204 60.1507 151.14 60.0534C151.076 59.9561 151.043 59.8456 151.043 59.7219C151.043 59.5112 151.111 59.344 151.246 59.2204C151.381 59.0967 151.559 59.0349 151.78 59.0349C152 59.0349 152.178 59.0967 152.313 59.2204C152.449 59.344 152.517 59.5112 152.517 59.7219ZM152.258 60.8882C152.258 60.7485 152.213 60.6345 152.124 60.5464C152.036 60.4582 151.92 60.4141 151.777 60.4141C151.634 60.4141 151.519 60.4576 151.432 60.5446C151.346 60.6317 151.303 60.7462 151.303 60.8882C151.303 61.0302 151.345 61.1418 151.428 61.2231C151.513 61.3044 151.63 61.3451 151.78 61.3451C151.929 61.3451 152.046 61.3044 152.131 61.2231C152.215 61.1407 152.258 61.029 152.258 60.8882ZM151.78 59.2959C151.656 59.2959 151.554 59.3349 151.476 59.4127C151.4 59.4895 151.361 59.5942 151.361 59.7271C151.361 59.8542 151.399 59.9572 151.475 60.0362C151.551 60.1141 151.653 60.153 151.78 60.153C151.907 60.153 152.009 60.1141 152.084 60.0362C152.161 59.9572 152.199 59.8542 152.199 59.7271C152.199 59.6 152.16 59.4963 152.081 59.4162C152.002 59.336 151.902 59.2959 151.78 59.2959Z" fill="#F5F7F6"/>
<defs>
<linearGradient id="paint0_linear_479_2679" x1="7.13095" y1="70.6365" x2="7.13095" y2="10.761" gradientUnits="userSpaceOnUse">
<stop stop-color="#27B7FF"/>
<stop offset="0.9899" stop-color="#F408AB"/>
</linearGradient>
<linearGradient id="paint1_linear_479_2679" x1="13.6316" y1="70.6362" x2="13.6316" y2="10.7608" gradientUnits="userSpaceOnUse">
<stop stop-color="#27B7FF"/>
<stop offset="0.9899" stop-color="#F408AB"/>
</linearGradient>
<linearGradient id="paint2_linear_479_2679" x1="26.6328" y1="70.6363" x2="26.6328" y2="10.7609" gradientUnits="userSpaceOnUse">
<stop stop-color="#27B7FF"/>
<stop offset="0.9899" stop-color="#F408AB"/>
</linearGradient>
<linearGradient id="paint3_linear_479_2679" x1="33.1332" y1="70.6364" x2="33.1332" y2="10.7611" gradientUnits="userSpaceOnUse">
<stop stop-color="#27B7FF"/>
<stop offset="0.9899" stop-color="#F408AB"/>
</linearGradient>
<linearGradient id="paint4_linear_479_2679" x1="46.1345" y1="70.6364" x2="46.1345" y2="10.7612" gradientUnits="userSpaceOnUse">
<stop stop-color="#27B7FF"/>
<stop offset="0.9899" stop-color="#F408AB"/>
</linearGradient>
<linearGradient id="paint5_linear_479_2679" x1="52.6351" y1="70.6364" x2="52.6351" y2="10.761" gradientUnits="userSpaceOnUse">
<stop stop-color="#27B7FF"/>
<stop offset="0.9899" stop-color="#F408AB"/>
</linearGradient>
<linearGradient id="paint6_linear_479_2679" x1="65.6363" y1="70.6363" x2="65.6363" y2="10.761" gradientUnits="userSpaceOnUse">
<stop stop-color="#27B7FF"/>
<stop offset="0.9899" stop-color="#F408AB"/>
</linearGradient>
<linearGradient id="paint7_linear_479_2679" x1="72.1367" y1="70.6364" x2="72.1367" y2="10.7609" gradientUnits="userSpaceOnUse">
<stop stop-color="#27B7FF"/>
<stop offset="0.9899" stop-color="#F408AB"/>
</linearGradient>
<linearGradient id="paint8_linear_479_2679" x1="85.1379" y1="70.6363" x2="85.1379" y2="10.7611" gradientUnits="userSpaceOnUse">
<stop stop-color="#27B7FF"/>
<stop offset="0.9899" stop-color="#F408AB"/>
</linearGradient>
<linearGradient id="paint9_linear_479_2679" x1="91.6384" y1="70.6365" x2="91.6384" y2="10.7611" gradientUnits="userSpaceOnUse">
<stop stop-color="#27B7FF"/>
<stop offset="0.9899" stop-color="#F408AB"/>
</linearGradient>
<linearGradient id="paint10_linear_479_2679" x1="104.64" y1="70.6365" x2="104.64" y2="10.7609" gradientUnits="userSpaceOnUse">
<stop stop-color="#27B7FF"/>
<stop offset="0.9899" stop-color="#F408AB"/>
</linearGradient>
<linearGradient id="paint11_linear_479_2679" x1="111.14" y1="70.6363" x2="111.14" y2="10.7609" gradientUnits="userSpaceOnUse">
<stop stop-color="#27B7FF"/>
<stop offset="0.9899" stop-color="#F408AB"/>
</linearGradient>
<linearGradient id="paint12_linear_479_2679" x1="124.141" y1="70.6363" x2="124.141" y2="10.7611" gradientUnits="userSpaceOnUse">
<stop stop-color="#27B7FF"/>
<stop offset="0.9899" stop-color="#F408AB"/>
</linearGradient>
<linearGradient id="paint13_linear_479_2679" x1="130.642" y1="70.6364" x2="130.642" y2="10.7609" gradientUnits="userSpaceOnUse">
<stop stop-color="#27B7FF"/>
<stop offset="0.9899" stop-color="#F408AB"/>
</linearGradient>
<linearGradient id="paint14_linear_479_2679" x1="143.643" y1="70.6363" x2="143.643" y2="10.7609" gradientUnits="userSpaceOnUse">
<stop stop-color="#27B7FF"/>
<stop offset="0.9899" stop-color="#F408AB"/>
</linearGradient>
<linearGradient id="paint15_linear_479_2679" x1="150.144" y1="70.6365" x2="150.144" y2="10.7611" gradientUnits="userSpaceOnUse">
<stop stop-color="#27B7FF"/>
<stop offset="0.9899" stop-color="#F408AB"/>
</linearGradient>
</defs>
</svg>
