<svg width="32" height="34" viewBox="0 0 32 34" fill="none" xmlns="http://www.w3.org/2000/svg">
<path d="M0.76856 0.67527C0.372226 1.07305 0.139893 1.68896 0.139893 2.47168V30.8549C0.139893 31.6505 0.372226 32.2664 0.76856 32.6513L0.864228 32.7412L17.7972 16.8558V16.6633V16.4708L0.864228 0.585449L0.76856 0.67527Z" fill="url(#paint0_linear_479_2329)"/>
<path d="M23.4435 22.1552L17.7991 16.8558V16.6633V16.4708L23.4435 11.1714L23.5665 11.2355L30.2495 14.8027C32.1629 15.8164 32.1629 17.4845 30.2495 18.511L23.5665 22.0782L23.4435 22.1552Z" fill="url(#paint1_linear_479_2329)"/>
<path d="M23.5657 22.0913L17.7984 16.6636L0.769775 32.6516C1.39844 33.2803 2.4371 33.3573 3.61243 32.7286L23.5657 22.0913Z" fill="url(#paint2_linear_479_2329)"/>
<path d="M23.5651 11.2485L3.59826 0.5984C2.42294 -0.0303425 1.38428 0.0466463 0.755615 0.675388L17.7978 16.6634L23.5651 11.2485Z" fill="url(#paint3_linear_479_2329)"/>
<path opacity="0.2" d="M23.4414 21.9629L3.59754 32.5488C2.49055 33.1391 1.49289 33.1006 0.864222 32.5617L0.768555 32.6515L0.864222 32.7413C1.50655 33.2802 2.49055 33.3187 3.59754 32.7285L23.5644 22.0784L23.4414 21.9629Z" fill="black"/>
<path opacity="0.12" d="M0.767424 32.4717C0.371037 32.0739 0.138672 31.458 0.138672 30.6753V30.8678C0.138672 31.6633 0.371037 32.2792 0.767424 32.6642L0.863104 32.5743L0.767424 32.4717Z" fill="black"/>
<path opacity="0.12" d="M30.2489 18.3317L23.4292 21.9629L23.5522 22.0784L30.2352 18.5113C31.1919 17.998 31.6702 17.3308 31.6702 16.6636C31.6019 17.2666 31.1235 17.8697 30.2489 18.3317Z" fill="black"/>
<path opacity="0.25" d="M3.5983 0.779034L30.2484 14.9963C31.1094 15.4582 31.6014 16.0485 31.6834 16.6644C31.6834 15.9971 31.205 15.3171 30.2484 14.8167L3.5983 0.599394C1.68496 -0.414292 0.126953 0.432585 0.126953 2.48562V2.67809C0.126953 0.612226 1.69862 -0.234651 3.5983 0.779034Z" fill="white"/>
<defs>
<linearGradient id="paint0_linear_479_2329" x1="16.2934" y1="2.1763" x2="-5.19821" y2="25.0667" gradientUnits="userSpaceOnUse">
<stop stop-color="#00A0FF"/>
<stop offset="0.00657445" stop-color="#00A1FF"/>
<stop offset="0.2601" stop-color="#00BEFF"/>
<stop offset="0.5122" stop-color="#00D2FF"/>
<stop offset="0.7604" stop-color="#00DFFF"/>
<stop offset="1" stop-color="#00E3FF"/>
</linearGradient>
<linearGradient id="paint1_linear_479_2329" x1="32.7427" y1="16.6652" x2="-0.326632" y2="16.6652" gradientUnits="userSpaceOnUse">
<stop stop-color="#FFE000"/>
<stop offset="0.4087" stop-color="#FFBD00"/>
<stop offset="0.7754" stop-color="#FFA500"/>
<stop offset="1" stop-color="#FF9C00"/>
</linearGradient>
<linearGradient id="paint2_linear_479_2329" x1="20.4318" y1="19.6099" x2="-8.71252" y2="50.6511" gradientUnits="userSpaceOnUse">
<stop stop-color="#FF3A44"/>
<stop offset="1" stop-color="#C31162"/>
</linearGradient>
<linearGradient id="paint3_linear_479_2329" x1="-3.52585" y1="-8.77332" x2="9.48839" y2="5.08778" gradientUnits="userSpaceOnUse">
<stop stop-color="#32A071"/>
<stop offset="0.0685" stop-color="#2DA771"/>
<stop offset="0.4762" stop-color="#15CF74"/>
<stop offset="0.8009" stop-color="#06E775"/>
<stop offset="1" stop-color="#00F076"/>
</linearGradient>
</defs>
</svg>
