<svg width="47" height="13" viewBox="0 0 47 13" fill="none" xmlns="http://www.w3.org/2000/svg">
<path d="M7.12742 0.237305V6.60475L2.60318 0.237305H0.592407V11.9668H3.27344V5.59936L7.79767 11.9668H9.80845V0.237305H7.12742Z" fill="white"/>
<path d="M15.3515 12.2014C17.8147 12.2014 19.792 10.2744 19.792 7.7777C19.792 5.28099 17.8147 3.354 15.3515 3.354C12.8883 3.354 10.9111 5.28099 10.9111 7.7777C10.9111 10.2744 12.8883 12.2014 15.3515 12.2014ZM15.3515 9.75496C14.2624 9.75496 13.4246 8.96741 13.4246 7.7777C13.4246 6.58799 14.2624 5.80044 15.3515 5.80044C16.4407 5.80044 17.2785 6.58799 17.2785 7.7777C17.2785 8.96741 16.4407 9.75496 15.3515 9.75496Z" fill="white"/>
<path d="M28.7689 0.237305H20.0555V2.8178H23.0717V11.9668H25.7527V2.8178H28.7689V0.237305Z" fill="white"/>
<path d="M34.0317 3.58859V4.37614C33.4787 3.7394 32.6577 3.354 31.535 3.354C29.3399 3.354 27.5302 5.28099 27.5302 7.7777C27.5302 10.2744 29.3399 12.2014 31.535 12.2014C32.6577 12.2014 33.4787 11.816 34.0317 11.1793V11.9668H36.5451V3.58859H34.0317ZM32.0377 9.82199C30.8815 9.82199 30.0436 9.03443 30.0436 7.7777C30.0436 6.52097 30.8815 5.73341 32.0377 5.73341C33.1939 5.73341 34.0317 6.52097 34.0317 7.7777C34.0317 9.03443 33.1939 9.82199 32.0377 9.82199Z" fill="white"/>
<path d="M42.9952 3.354C41.8725 3.354 41.0514 3.7394 40.4985 4.37614V0.237305H37.985V11.9668H40.4985V11.1793C41.0514 11.816 41.8725 12.2014 42.9952 12.2014C45.1903 12.2014 47 10.2744 47 7.7777C47 5.28099 45.1903 3.354 42.9952 3.354ZM42.4925 9.82199C41.3363 9.82199 40.4985 9.03443 40.4985 7.7777C40.4985 6.52097 41.3363 5.73341 42.4925 5.73341C43.6487 5.73341 44.4865 6.52097 44.4865 7.7777C44.4865 9.03443 43.6487 9.82199 42.4925 9.82199Z" fill="white"/>
</svg>
