<svg xmlns="http://www.w3.org/2000/svg" xmlns:xlink="http://www.w3.org/1999/xlink" xmlns:bx="https://boxy-svg.com">


  <symbol id="logo-text" viewBox="0 0 47 13">
    <path d="M7.12742 0.237305V6.60475L2.60318 0.237305H0.592407V11.9668H3.27344V5.59936L7.79767 11.9668H9.80845V0.237305H7.12742Z" fill="white"/>
    <path d="M15.3515 12.2014C17.8147 12.2014 19.792 10.2744 19.792 7.7777C19.792 5.28099 17.8147 3.354 15.3515 3.354C12.8883 3.354 10.9111 5.28099 10.9111 7.7777C10.9111 10.2744 12.8883 12.2014 15.3515 12.2014ZM15.3515 9.75496C14.2624 9.75496 13.4246 8.96741 13.4246 7.7777C13.4246 6.58799 14.2624 5.80044 15.3515 5.80044C16.4407 5.80044 17.2785 6.58799 17.2785 7.7777C17.2785 8.96741 16.4407 9.75496 15.3515 9.75496Z" fill="white"/>
    <path d="M28.7689 0.237305H20.0555V2.8178H23.0717V11.9668H25.7527V2.8178H28.7689V0.237305Z" fill="white"/>
    <path d="M34.0317 3.58859V4.37614C33.4787 3.7394 32.6577 3.354 31.535 3.354C29.3399 3.354 27.5302 5.28099 27.5302 7.7777C27.5302 10.2744 29.3399 12.2014 31.535 12.2014C32.6577 12.2014 33.4787 11.816 34.0317 11.1793V11.9668H36.5451V3.58859H34.0317ZM32.0377 9.82199C30.8815 9.82199 30.0436 9.03443 30.0436 7.7777C30.0436 6.52097 30.8815 5.73341 32.0377 5.73341C33.1939 5.73341 34.0317 6.52097 34.0317 7.7777C34.0317 9.03443 33.1939 9.82199 32.0377 9.82199Z" fill="white"/>
    <path d="M42.9952 3.354C41.8725 3.354 41.0514 3.7394 40.4985 4.37614V0.237305H37.985V11.9668H40.4985V11.1793C41.0514 11.816 41.8725 12.2014 42.9952 12.2014C45.1903 12.2014 47 10.2744 47 7.7777C47 5.28099 45.1903 3.354 42.9952 3.354ZM42.4925 9.82199C41.3363 9.82199 40.4985 9.03443 40.4985 7.7777C40.4985 6.52097 41.3363 5.73341 42.4925 5.73341C43.6487 5.73341 44.4865 6.52097 44.4865 7.7777C44.4865 9.03443 43.6487 9.82199 42.4925 9.82199Z" fill="white"/>
  </symbol>
  <symbol id="google-play" viewBox="0 0 159 36">
    <path d="M51.1809 5.3247C51.1809 6.40254 50.8392 7.26225 50.1559 7.89099C49.3906 8.64805 48.3792 9.03299 47.1493 9.03299C45.9603 9.03299 44.9626 8.64805 44.1289 7.87816C43.2953 7.10827 42.8853 6.14591 42.8853 5.01674C42.8853 3.87474 43.2953 2.92521 44.1289 2.15532C44.9626 1.38543 45.9603 1.00049 47.1493 1.00049C47.7369 1.00049 48.2972 1.10314 48.8302 1.32128C49.3632 1.53941 49.7869 1.8217 50.1149 2.18098L49.3906 2.86105C48.8439 2.25797 48.1059 1.95002 47.1493 1.95002C46.2883 1.95002 45.5366 2.23231 44.9079 2.80973C44.2793 3.37431 43.9649 4.11854 43.9649 5.02957C43.9649 5.94061 44.2793 6.68483 44.9079 7.24942C45.5366 7.814 46.2883 8.10913 47.1493 8.10913C48.0649 8.10913 48.8302 7.82684 49.4452 7.24942C49.8416 6.87731 50.0739 6.35122 50.1286 5.68398H47.1493V4.74728H51.1262C51.1536 4.95258 51.1809 5.14506 51.1809 5.3247Z" fill="white" stroke="white" stroke-width="0.256629" stroke-miterlimit="10"/>
    <path d="M57.481 2.11701H53.7499V4.55499H57.112V5.47885H53.7499V7.91683H57.481V8.86636H52.6976V1.16748H57.481V2.11701Z" fill="white" stroke="white" stroke-width="0.256629" stroke-miterlimit="10"/>
    <path d="M61.9224 8.86636H60.8701V2.11701H58.5741V1.16748H64.2047V2.11701H61.9087V8.86636H61.9224Z" fill="white" stroke="white" stroke-width="0.256629" stroke-miterlimit="10"/>
    <path d="M68.2908 8.86636V1.16748H69.3431V8.86636H68.2908Z" fill="white" stroke="white" stroke-width="0.256629" stroke-miterlimit="10"/>
    <path d="M74.0181 8.86636H72.9657V2.11701H70.6697V1.16748H76.3004V2.11701H74.0044V8.86636H74.0181Z" fill="white" stroke="white" stroke-width="0.256629" stroke-miterlimit="10"/>
    <path d="M86.9733 7.86484C86.167 8.64756 85.1694 9.03251 83.9667 9.03251C82.7641 9.03251 81.7664 8.64756 80.9601 7.86484C80.1537 7.08212 79.7574 6.13259 79.7574 5.01625C79.7574 3.89991 80.1537 2.93755 80.9601 2.16767C81.7664 1.38494 82.7641 1 83.9667 1C85.1557 1 86.1533 1.38494 86.9733 2.16767C87.7797 2.95039 88.1897 3.89991 88.1897 5.01625C88.176 6.14542 87.7797 7.09495 86.9733 7.86484ZM81.7391 7.22327C82.3404 7.80068 83.092 8.08298 83.9667 8.08298C84.8414 8.08298 85.593 7.80068 86.1943 7.22327C86.7957 6.64585 87.11 5.91446 87.11 5.01625C87.11 4.11805 86.8093 3.38665 86.1943 2.80924C85.593 2.23182 84.8414 1.9367 83.9667 1.9367C83.092 1.9367 82.3404 2.21899 81.7391 2.79641C81.1377 3.38666 80.8234 4.11805 80.8234 5.01625C80.8234 5.91446 81.1377 6.64585 81.7391 7.22327Z" fill="white" stroke="white" stroke-width="0.256629" stroke-miterlimit="10"/>
    <path d="M89.6663 8.86636V1.16748H90.9509L94.9415 7.15977H94.9825L94.9415 5.67132V1.16748H95.9938V8.86636H94.9005L90.7323 2.59177H90.6913L90.7323 4.08022V8.86636H89.6663Z" fill="white" stroke="white" stroke-width="0.256629" stroke-miterlimit="10"/>
    <path d="M79.498 20.0928C76.2863 20.0928 73.6623 22.3896 73.6623 25.5462C73.6623 28.6899 76.2863 30.9996 79.498 30.9996C82.7096 30.9996 85.3336 28.6899 85.3336 25.5462C85.3336 22.3896 82.7096 20.0928 79.498 20.0928ZM79.498 28.8567C77.735 28.8567 76.218 27.4966 76.218 25.5462C76.218 23.583 77.735 22.2357 79.498 22.2357C81.261 22.2357 82.778 23.583 82.778 25.5462C82.778 27.4966 81.2473 28.8567 79.498 28.8567ZM66.7607 20.0928C63.549 20.0928 60.925 22.3896 60.925 25.5462C60.925 28.6899 63.549 30.9996 66.7607 30.9996C69.9723 30.9996 72.5963 28.6899 72.5963 25.5462C72.5963 22.3896 69.9723 20.0928 66.7607 20.0928ZM66.7607 28.8567C64.9977 28.8567 63.4807 27.4966 63.4807 25.5462C63.4807 23.583 64.9977 22.2357 66.7607 22.2357C68.5237 22.2357 70.0407 23.583 70.0407 25.5462C70.0407 27.4966 68.5237 28.8567 66.7607 28.8567ZM51.6181 21.7737V24.0834H57.522C57.3444 25.3794 56.8797 26.3417 56.1827 26.9961C55.3217 27.8045 53.9824 28.6899 51.6317 28.6899C47.9964 28.6899 45.1537 25.944 45.1537 22.5308C45.1537 19.1176 47.9964 16.3717 51.6317 16.3717C53.5861 16.3717 55.0211 17.0902 56.0734 18.0269L57.809 16.3973C56.333 15.0757 54.3787 14.062 51.6181 14.062C46.6434 14.062 42.4614 17.8601 42.4614 22.5436C42.4614 27.2143 46.6434 31.0252 51.6181 31.0252C54.3104 31.0252 56.333 30.204 57.9184 28.6514C59.5447 27.1245 60.0504 24.9688 60.0504 23.2365C60.0504 22.6976 60.0094 22.1972 59.9137 21.7866H51.6181V21.7737ZM113.542 23.5701C113.063 22.3511 111.587 20.0928 108.567 20.0928C105.574 20.0928 103.087 22.2998 103.087 25.5462C103.087 28.6001 105.547 30.9996 108.854 30.9996C111.519 30.9996 113.063 29.4726 113.692 28.5872L111.71 27.3426C111.054 28.2536 110.152 28.8567 108.854 28.8567C107.556 28.8567 106.626 28.2921 106.039 27.2015L113.815 24.1861L113.542 23.5701ZM105.615 25.3922C105.547 23.2878 107.351 22.21 108.649 22.21C109.66 22.21 110.521 22.6848 110.808 23.3648L105.615 25.3922ZM99.3009 30.6788H101.857V14.6394H99.3009V30.6788ZM95.1189 21.3118H95.0233C94.4493 20.6702 93.3559 20.0928 91.9619 20.0928C89.0509 20.0928 86.386 22.4923 86.386 25.5719C86.386 28.6257 89.0509 31.0124 91.9619 31.0124C93.3423 31.0124 94.4493 30.435 95.0233 29.7677H95.1053V30.5505C95.1053 32.642 93.9163 33.7583 92.0029 33.7583C90.4449 33.7583 89.4746 32.7062 89.0783 31.8208L86.8506 32.6933C87.4929 34.1433 89.1876 35.914 92.0029 35.914C94.9959 35.914 97.5243 34.2588 97.5243 30.2297V20.4264H95.1053V21.3118H95.1189ZM92.1806 28.8567C90.4176 28.8567 88.9416 27.4709 88.9416 25.5719C88.9416 23.6471 90.4176 22.2485 92.1806 22.2485C93.9163 22.2485 95.2829 23.66 95.2829 25.5719C95.2966 27.4709 93.9299 28.8567 92.1806 28.8567ZM125.513 14.6394H119.405V30.6788H121.96V24.5967H125.527C128.356 24.5967 131.13 22.6719 131.13 19.618C131.13 16.5642 128.329 14.6394 125.513 14.6394ZM125.568 22.364H121.947V16.8593H125.568C127.481 16.8593 128.561 18.3477 128.561 19.6052C128.561 20.8627 127.481 22.364 125.568 22.364ZM141.339 20.0671C139.494 20.0671 137.581 20.837 136.788 22.518L139.057 23.4033C139.535 22.518 140.437 22.2228 141.38 22.2228C142.706 22.2228 144.045 22.9671 144.059 24.2887V24.4555C143.594 24.2117 142.61 23.8396 141.394 23.8396C138.948 23.8396 136.474 25.0971 136.474 27.4452C136.474 29.5881 138.469 30.9739 140.711 30.9739C142.419 30.9739 143.376 30.2553 143.963 29.4085H144.045V30.6531H146.505V24.5068C146.519 21.6582 144.25 20.0671 141.339 20.0671ZM141.025 28.8567C140.191 28.8567 139.03 28.4589 139.03 27.4966C139.03 26.2648 140.478 25.79 141.736 25.79C142.856 25.79 143.389 26.021 144.059 26.3289C143.868 27.8045 142.501 28.8567 141.025 28.8567ZM155.484 20.4136L152.56 27.3683H152.478L149.444 20.4136H146.697L151.248 30.1399L148.651 35.5419H151.316L158.327 20.4136H155.484ZM132.524 30.6788H135.08V14.6394H132.524V30.6788Z" fill="white"/>
    <path d="M0.64166 1.85935C0.245327 2.25713 0.0129929 2.87304 0.0129929 3.65576V32.039C0.0129929 32.8346 0.245327 33.4505 0.64166 33.8354L0.737328 33.9252L17.6703 18.0399V17.8474V17.6549L0.737328 1.76953L0.64166 1.85935Z" fill="#00E3FF"/>
    <path d="M23.3165 23.3393L17.6721 18.0398V17.8474V17.6549L23.3165 12.3555L23.4395 12.4196L30.1225 15.9868C32.0359 17.0005 32.0359 18.6686 30.1225 19.6951L23.4395 23.2623L23.3165 23.3393Z" fill="#FF9C00"/>
    <path d="M23.4387 23.2754L17.6714 17.8477L0.642776 33.8357C1.27144 34.4644 2.3101 34.5414 3.48543 33.9127L23.4387 23.2754Z" fill="#C31162"/>
    <path d="M23.4382 12.4326L3.47133 1.78248C2.29601 1.15374 1.25735 1.23073 0.628685 1.85947L17.6709 17.8475L23.4382 12.4326Z" fill="#00F076"/>
    <path opacity="0.2" d="M23.3145 23.147L3.47058 33.7329C2.36359 34.3232 1.36592 34.2847 0.737261 33.7458L0.641594 33.8356L0.737261 33.9254C1.37959 34.4643 2.36359 34.5028 3.47058 33.9126L23.4375 23.2625L23.3145 23.147Z" fill="black"/>
    <path opacity="0.12" d="M0.640562 33.6558C0.244175 33.258 0.0118103 32.6421 0.0118103 31.8594V32.0518C0.0118103 32.8474 0.244175 33.4633 0.640562 33.8482L0.736243 33.7584L0.640562 33.6558Z" fill="black"/>
    <path opacity="0.12" d="M30.122 19.5157L23.3023 23.147L23.4253 23.2625L30.1083 19.6954C31.065 19.1821 31.5433 18.5149 31.5433 17.8477C31.475 18.4507 30.9966 19.0538 30.122 19.5157Z" fill="black"/>
    <path opacity="0.25" d="M3.47134 1.96312L30.1214 16.1804C30.9824 16.6423 31.4744 17.2326 31.5564 17.8485C31.5564 17.1812 31.0781 16.5012 30.1214 16.0007L3.47134 1.78348C1.558 0.76979 0 1.61667 0 3.6697V3.86217C0 1.79631 1.57167 0.949431 3.47134 1.96312Z" fill="white"/>
    <defs>
      <linearGradient id="paint0_linear_736_5807" x1="16.1665" y1="3.36038" x2="-5.32511" y2="26.2508" gradientUnits="userSpaceOnUse">
      <stop stop-color="#00A0FF"/>
      <stop offset="0.00657445" stop-color="#00A1FF"/>
      <stop offset="0.2601" stop-color="#00BEFF"/>
      <stop offset="0.5122" stop-color="#00D2FF"/>
      <stop offset="0.7604" stop-color="#00DFFF"/>
      <stop offset="1" stop-color="#00E3FF"/>
      </linearGradient>
      <linearGradient id="paint1_linear_736_5807" x1="32.6158" y1="17.8493" x2="-0.453601" y2="17.8493" gradientUnits="userSpaceOnUse">
      <stop stop-color="#FFE000"/>
      <stop offset="0.4087" stop-color="#FFBD00"/>
      <stop offset="0.7754" stop-color="#FFA500"/>
      <stop offset="1" stop-color="#FF9C00"/>
      </linearGradient>
      <linearGradient id="paint2_linear_736_5807" x1="20.3048" y1="20.794" x2="-8.83952" y2="51.8352" gradientUnits="userSpaceOnUse">
      <stop stop-color="#FF3A44"/>
      <stop offset="1" stop-color="#C31162"/>
      </linearGradient>
      <linearGradient id="paint3_linear_736_5807" x1="-3.65278" y1="-7.58924" x2="9.36146" y2="6.27186" gradientUnits="userSpaceOnUse">
      <stop stop-color="#32A071"/>
      <stop offset="0.0685" stop-color="#2DA771"/>
      <stop offset="0.4762" stop-color="#15CF74"/>
      <stop offset="0.8009" stop-color="#06E775"/>
      <stop offset="1" stop-color="#00F076"/>
      </linearGradient>
    </defs>
  </symbol>
  <symbol id="app-store" viewBox="0 0 136 33">
    <path d="M20.2081 15.2183C20.1671 11.6896 23.2831 9.97021 23.4334 9.89322C21.6704 7.48091 18.9371 7.14729 17.9804 7.12163C15.6844 6.89066 13.4567 8.40477 12.295 8.40477C11.106 8.40477 9.30203 7.13446 7.36136 7.17295C4.86035 7.21145 2.52334 8.57158 1.25234 10.6759C-1.38534 14.9745 0.582672 21.2876 3.11101 24.7649C4.38202 26.4715 5.85802 28.3705 7.79869 28.2935C9.69837 28.2165 10.409 27.1644 12.6914 27.1644C14.96 27.1644 15.6161 28.2935 17.5977 28.255C19.6341 28.2294 20.9187 26.5485 22.1351 24.829C23.5974 22.8787 24.1851 20.9539 24.2124 20.8641C24.1441 20.8513 20.2491 19.4527 20.2081 15.2183Z" fill="white"/>
    <path d="M16.4773 4.83758C17.5023 3.64425 18.1993 2.01464 17.9943 0.359375C16.5183 0.423533 14.6733 1.32174 13.6073 2.48941C12.6643 3.51594 11.8306 5.2097 12.0493 6.80081C13.703 6.9163 15.4113 6.01809 16.4773 4.83758Z" fill="white"/>
    <path d="M44.1656 23.9949H37.7013L36.1433 28.3063H33.41L39.5326 12.3696H42.3753L48.4979 28.3063H45.7099L44.1656 23.9949ZM38.371 22.006H43.4959L40.9676 15.0129H40.8993L38.371 22.006Z" fill="white"/>
    <path d="M61.7407 22.4941C61.7407 26.0997 59.6771 28.4222 56.5748 28.4222C54.8119 28.4222 53.4179 27.678 52.6799 26.3948H52.6252V32.1433H50.0833V16.6814H52.5432V18.619H52.5842C53.2949 17.3743 54.7982 16.5659 56.5202 16.5659C59.6771 16.5659 61.7407 18.8884 61.7407 22.4941ZM59.1305 22.4941C59.1305 20.1459 57.8321 18.5933 55.8642 18.5933C53.9235 18.5933 52.6116 20.1716 52.6116 22.4941C52.6116 24.8294 53.9235 26.4077 55.8642 26.4077C57.8321 26.4077 59.1305 24.8679 59.1305 22.4941Z" fill="white"/>
    <path d="M75.3533 22.4941C75.3533 26.0997 73.2896 28.4222 70.1872 28.4222C68.4242 28.4222 67.0302 27.678 66.2922 26.3948H66.2376V32.1433H63.7092V16.6814H66.1692V18.619H66.2102C66.9209 17.3743 68.4242 16.5659 70.1462 16.5659C73.2896 16.5659 75.3533 18.8884 75.3533 22.4941ZM72.7429 22.4941C72.7429 20.1459 71.4446 18.5933 69.4766 18.5933C67.5359 18.5933 66.2239 20.1716 66.2239 22.4941C66.2239 24.8294 67.5359 26.4077 69.4766 26.4077C71.4582 26.4077 72.7429 24.8679 72.7429 22.4941Z" fill="white"/>
    <path d="M84.3597 23.8666C84.551 25.4448 86.1773 26.4842 88.4187 26.4842C90.5643 26.4842 92.095 25.4448 92.095 24.0205C92.095 22.7887 91.1656 22.0445 88.9653 21.5312L86.765 21.0308C83.649 20.3251 82.2003 18.9521 82.2003 16.7323C82.2003 13.9863 84.756 12.1001 88.3777 12.1001C91.9583 12.1001 94.4183 13.9863 94.5003 16.7323H91.931C91.7806 15.1412 90.373 14.1788 88.3367 14.1788C86.3003 14.1788 84.8927 15.154 84.8927 16.5655C84.8927 17.6946 85.781 18.349 87.9676 18.8623L89.84 19.2986C93.325 20.0684 94.7736 21.3901 94.7736 23.7126C94.7736 26.6895 92.2453 28.5629 88.2273 28.5629C84.469 28.5629 81.927 26.7408 81.763 23.8537H84.3597V23.8666Z" fill="white"/>
    <path d="M100.266 13.9346V16.6805H102.617V18.5667H100.266V24.9696C100.266 25.9705 100.731 26.4324 101.77 26.4324C102.029 26.4324 102.439 26.3939 102.603 26.3811V28.2545C102.316 28.3186 101.756 28.37 101.196 28.37C98.6947 28.37 97.7107 27.4846 97.7107 25.2391V18.5796H95.9067V16.6933H97.7107V13.9346H100.266Z" fill="white"/>
    <path d="M103.971 22.4933C103.971 18.8364 106.267 16.5396 109.834 16.5396C113.415 16.5396 115.697 18.8364 115.697 22.4933C115.697 26.1631 113.428 28.4471 109.834 28.4471C106.253 28.4471 103.971 26.1631 103.971 22.4933ZM113.128 22.4933C113.128 19.9912 111.898 18.5028 109.847 18.5028C107.797 18.5028 106.567 19.9912 106.567 22.4933C106.567 25.0083 107.784 26.4839 109.847 26.4839C111.911 26.4839 113.128 25.0083 113.128 22.4933Z" fill="white"/>
    <path d="M117.815 16.681H120.234V18.6571H120.289C120.671 17.3483 121.806 16.5527 123.268 16.5527C123.637 16.5527 123.938 16.6041 124.143 16.6426V18.8752C123.938 18.7982 123.5 18.7341 123.008 18.7341C121.368 18.7341 120.357 19.7734 120.357 21.403V28.2935H117.815V16.681Z" fill="white"/>
    <path d="M135.84 24.8928C135.499 26.9972 133.312 28.4471 130.511 28.4471C126.916 28.4471 124.675 26.1888 124.675 22.5447C124.675 18.9005 126.916 16.5396 130.401 16.5396C133.818 16.5396 135.977 18.7466 135.977 22.2752V23.0964H127.244V23.2375C127.244 25.2264 128.57 26.5224 130.579 26.5224C131.987 26.5224 133.094 25.8937 133.435 24.8928H135.84ZM127.258 21.4155H133.449C133.394 19.6319 132.178 18.4643 130.415 18.4643C128.666 18.4771 127.395 19.6704 127.258 21.4155Z" fill="white"/>
    <path d="M38.0561 0.37207C40.4751 0.37207 41.8964 1.7707 41.8964 4.1702C41.8964 6.62101 40.4888 8.01965 38.0561 8.01965H35.104V0.37207H38.0561ZM36.375 6.9418H37.9057C39.6141 6.9418 40.5981 5.94094 40.5981 4.18303C40.5981 2.45077 39.6004 1.44992 37.9057 1.44992H36.375V6.9418Z" fill="white"/>
    <path d="M43.3179 5.13297C43.3179 3.27238 44.4249 2.13037 46.2152 2.13037C48.0055 2.13037 49.1125 3.25955 49.1125 5.13297C49.1125 7.00638 48.0055 8.13556 46.2152 8.13556C44.4249 8.13556 43.3179 7.00638 43.3179 5.13297ZM47.8689 5.13297C47.8689 3.87547 47.2675 3.14407 46.2152 3.14407C45.1629 3.14407 44.5615 3.87547 44.5615 5.13297C44.5615 6.39046 45.1492 7.12187 46.2152 7.12187C47.2812 7.12187 47.8689 6.39046 47.8689 5.13297Z" fill="white"/>
    <path d="M56.8339 8.03246H55.5766L54.3056 3.77241H54.21L52.939 8.03246H51.6953L50.0007 2.2583H51.2307L52.3377 6.67232H52.4333L53.7043 2.2583H54.866L56.137 6.67232H56.2326L57.3259 2.2583H58.5423L56.8339 8.03246Z" fill="white"/>
    <path d="M59.9503 2.24572H61.1257V3.16959H61.2214C61.522 2.52801 62.137 2.14307 63.0527 2.14307C64.4194 2.14307 65.1847 2.91296 65.1847 4.28593V8.03274H63.9684V4.58106C63.9684 3.65719 63.5447 3.19525 62.6427 3.19525C61.7407 3.19525 61.1667 3.75984 61.1667 4.65805V8.03274H59.9503V2.24572Z" fill="white"/>
    <path d="M67.1116 0H68.328V8.03251H67.1116V0Z" fill="white"/>
    <path d="M70.0231 5.13297C70.0231 3.27238 71.1301 2.13037 72.9204 2.13037C74.7107 2.13037 75.8177 3.25955 75.8177 5.13297C75.8177 7.00638 74.7107 8.13556 72.9204 8.13556C71.1165 8.13556 70.0231 7.00638 70.0231 5.13297ZM74.574 5.13297C74.574 3.87547 73.9727 3.14407 72.9204 3.14407C71.8681 3.14407 71.2668 3.87547 71.2668 5.13297C71.2668 6.39046 71.8544 7.12187 72.9204 7.12187C73.9727 7.12187 74.574 6.39046 74.574 5.13297Z" fill="white"/>
    <path d="M77.1021 6.39032C77.1021 5.35096 77.9221 4.74788 79.3844 4.67089L81.0517 4.58107V4.08064C81.0517 3.46472 80.628 3.1311 79.7944 3.1311C79.111 3.1311 78.6464 3.36207 78.5097 3.77268H77.3344C77.4574 2.78465 78.4551 2.14307 79.849 2.14307C81.3934 2.14307 82.268 2.86164 82.268 4.08064V8.03276H81.0927V7.22437H80.997C80.628 7.80179 79.9584 8.13541 79.152 8.13541C77.9631 8.12258 77.1021 7.45534 77.1021 6.39032ZM81.0654 5.90272V5.41512L79.562 5.50494C78.7147 5.55627 78.3321 5.82573 78.3321 6.33899C78.3321 6.86509 78.8104 7.16022 79.4664 7.16022C80.382 7.16022 81.0654 6.62129 81.0654 5.90272Z" fill="white"/>
    <path d="M83.8665 5.13261C83.8665 3.31053 84.8641 2.15569 86.4221 2.15569C87.2695 2.15569 87.9801 2.52781 88.3081 3.16938H88.4038V0H89.6201V8.03253H88.4448V7.12149H88.3491C87.9801 7.75023 87.2695 8.13518 86.4221 8.13518C84.8505 8.12235 83.8665 6.96751 83.8665 5.13261ZM85.1238 5.13261C85.1238 6.36443 85.7388 7.09583 86.7638 7.09583C87.7888 7.09583 88.4175 6.3516 88.4175 5.13261C88.4175 3.92644 87.7751 3.16938 86.7638 3.16938C85.7388 3.18222 85.1238 3.92644 85.1238 5.13261Z" fill="white"/>
    <path d="M94.6358 5.13297C94.6358 3.27238 95.7428 2.13037 97.5332 2.13037C99.3235 2.13037 100.43 3.25955 100.43 5.13297C100.43 7.00638 99.3235 8.13556 97.5332 8.13556C95.7428 8.13556 94.6358 7.00638 94.6358 5.13297ZM99.1868 5.13297C99.1868 3.87547 98.5855 3.14407 97.5332 3.14407C96.4808 3.14407 95.8795 3.87547 95.8795 5.13297C95.8795 6.39046 96.4671 7.12187 97.5332 7.12187C98.5855 7.12187 99.1868 6.39046 99.1868 5.13297Z" fill="white"/>
    <path d="M102.071 2.24572H103.246V3.16959H103.342C103.642 2.52801 104.257 2.14307 105.173 2.14307C106.54 2.14307 107.305 2.91296 107.305 4.28593V8.03274H106.089V4.58106C106.089 3.65719 105.665 3.19525 104.763 3.19525C103.861 3.19525 103.287 3.75984 103.287 4.65805V8.03274H102.071V2.24572Z" fill="white"/>
    <path d="M114.165 0.808105V2.27089H115.505V3.23324H114.165V6.21012C114.165 6.8132 114.425 7.08266 115.04 7.08266C115.231 7.08266 115.327 7.06983 115.505 7.057V8.00652C115.313 8.03218 115.081 8.07068 114.849 8.07068C113.496 8.07068 112.963 7.62158 112.963 6.50525V3.24607H111.992V2.28372H112.963V0.808105H114.165Z" fill="white"/>
    <path d="M117.145 0H118.347V3.18221H118.443C118.744 2.54063 119.386 2.14286 120.315 2.14286C121.627 2.14286 122.434 2.92558 122.434 4.29855V8.03251H121.217V4.58084C121.217 3.65697 120.766 3.19504 119.905 3.19504C118.908 3.19504 118.361 3.78529 118.361 4.65783V8.03251H117.145V0Z" fill="white"/>
    <path d="M129.526 6.46731C129.253 7.50667 128.269 8.13541 126.862 8.13541C125.099 8.13541 124.019 7.00624 124.019 5.15849C124.019 3.31074 125.126 2.14307 126.862 2.14307C128.57 2.14307 129.608 3.24658 129.608 5.05584V5.45361H125.263V5.51777C125.304 6.53147 125.932 7.17305 126.903 7.17305C127.64 7.17305 128.146 6.92925 128.365 6.46731H129.526ZM125.263 4.60673H128.365C128.337 3.69569 127.75 3.10543 126.848 3.10543C125.946 3.10543 125.331 3.70852 125.263 4.60673Z" fill="white"/>
  </symbol>
</svg>
